<svg width="21.500000" height="19.500000" viewBox="0 0 21.5 19.5" fill="none" xmlns="http://www.w3.org/2000/svg" xmlns:xlink="http://www.w3.org/1999/xlink">
	<desc>
			Created with Pixso.
	</desc>
	<defs/>
	<path id="Icon" d="M17.75 12.87C19.47 13.32 20.75 14.88 20.75 16.75L20.75 18.75M14.25 1.04C15.71 1.63 16.75 3.07 16.75 4.75C16.75 6.42 15.71 7.86 14.25 8.45M0.75 18.75C0.75 16.88 0.75 15.95 1.05 15.21C1.46 14.23 2.23 13.46 3.21 13.05C3.95 12.75 4.88 12.75 6.75 12.75L9.75 12.75C11.61 12.75 12.54 12.75 13.28 13.05C14.26 13.46 15.03 14.23 15.44 15.21C15.75 15.95 15.75 16.88 15.75 18.75M8.25 8.75C6.04 8.75 4.25 6.95 4.25 4.75C4.25 2.54 6.04 0.75 8.25 0.75C10.45 0.75 12.25 2.54 12.25 4.75C12.25 6.95 10.45 8.75 8.25 8.75Z" stroke="#1E1E1E" stroke-opacity="1.000000" stroke-width="1.500000" stroke-linejoin="round" stroke-linecap="round"/>
</svg>
