<svg width="19.413574" height="21.500000" viewBox="0 0 19.4136 21.5" fill="none" xmlns="http://www.w3.org/2000/svg" xmlns:xlink="http://www.w3.org/1999/xlink">
	<desc>
			Created with Pixso.
	</desc>
	<defs/>
	<path id="Icon" d="M7.68 19.43C7.85 19.82 8.14 20.15 8.5 20.39C8.85 20.62 9.27 20.75 9.7 20.75C10.13 20.75 10.55 20.62 10.91 20.39C11.27 20.15 11.55 19.82 11.72 19.43L12.31 18.12C12.52 17.65 12.87 17.26 13.31 17.01C13.75 16.75 14.27 16.64 14.78 16.69L16.21 16.85C16.63 16.89 17.06 16.81 17.45 16.62C17.83 16.42 18.14 16.12 18.36 15.75C18.57 15.38 18.67 14.96 18.65 14.53C18.63 14.1 18.48 13.69 18.23 13.34L17.38 12.18C17.08 11.76 16.92 11.26 16.92 10.75C16.92 10.23 17.09 9.73 17.39 9.32L18.24 8.15C18.49 7.81 18.63 7.4 18.66 6.97C18.68 6.54 18.58 6.12 18.36 5.75C18.15 5.37 17.83 5.07 17.45 4.88C17.07 4.68 16.64 4.61 16.21 4.65L14.78 4.8C14.27 4.86 13.76 4.75 13.31 4.49C12.87 4.23 12.52 3.84 12.31 3.37L11.72 2.06C11.55 1.67 11.27 1.34 10.91 1.1C10.55 0.87 10.13 0.74 9.7 0.75C9.27 0.74 8.85 0.87 8.5 1.1C8.14 1.34 7.85 1.67 7.68 2.06L7.1 3.37C6.89 3.84 6.54 4.23 6.1 4.49C5.65 4.75 5.14 4.86 4.62 4.8L3.19 4.65C2.77 4.61 2.34 4.68 1.95 4.88C1.57 5.07 1.26 5.37 1.04 5.75C0.83 6.12 0.73 6.54 0.75 6.97C0.77 7.4 0.92 7.81 1.17 8.15L2.02 9.32C2.32 9.73 2.48 10.23 2.48 10.75C2.48 11.26 2.32 11.76 2.02 12.17L1.17 13.34C0.92 13.68 0.77 14.1 0.75 14.52C0.73 14.95 0.83 15.37 1.04 15.75C1.26 16.12 1.57 16.42 1.95 16.61C2.34 16.8 2.77 16.88 3.19 16.84L4.62 16.69C5.13 16.63 5.65 16.74 6.09 17C6.54 17.26 6.89 17.65 7.1 18.12L7.68 19.43ZM9.7 13.75C8.04 13.75 6.7 12.4 6.7 10.75C6.7 9.09 8.04 7.75 9.7 7.75C11.36 7.75 12.7 9.09 12.7 10.75C12.7 12.4 11.36 13.75 9.7 13.75Z" stroke="#1E1E1E" stroke-opacity="1.000000" stroke-width="1.500000" stroke-linejoin="round"/>
</svg>
