<svg width="340.000000" height="240.000000" viewBox="0 0 340 240" fill="none" xmlns="http://www.w3.org/2000/svg" xmlns:xlink="http://www.w3.org/1999/xlink">
	<desc>
			Created with Pixso.
	</desc>
	<defs>
		<clipPath id="clip5269_34334">
			<rect id="Construction worker-cuate 2" rx="0.000000" width="339.519989" height="239.520004" transform="translate(0.240000 0.240000)" fill="white" fill-opacity="0"/>
		</clipPath>
	</defs>
	<rect id="Construction worker-cuate 2" rx="0.000000" width="339.519989" height="239.520004" transform="translate(0.240000 0.240000)" fill="#FFFFFF" fill-opacity="0"/>
	<g clip-path="url(#clip5269_34334)">
		<path id="Vector" d="M68 204.63L93.39 204.51L118.78 204.47L169.58 204.39L220.37 204.47L245.77 204.51L271.16 204.63L245.77 204.75L220.37 204.79L169.58 204.87L118.78 204.79L93.39 204.75L68 204.63Z" fill="#263238" fill-opacity="1.000000" fill-rule="nonzero"/>
		<path id="Vector" d="M82.56 53.15C82.53 49.46 83.12 45.79 84.31 42.29C86.14 37.02 89.3 32.31 93.48 28.62C97.67 24.92 102.73 22.37 108.19 21.2C110 20.83 111.84 20.61 113.69 20.55C114.17 20.55 114.62 20.52 115.08 20.52L116.47 20.57C117.39 20.57 118.31 20.72 119.23 20.82C122.92 21.28 126.5 22.4 129.79 24.12C133.08 25.81 136.04 28.05 138.57 30.75C141.08 33.46 143.12 36.57 144.62 39.94C141.5 33.23 136.22 27.77 129.62 24.43C127.98 23.61 126.28 22.93 124.54 22.38C123.66 22.14 122.78 21.9 121.89 21.69L120.55 21.44L119.87 21.31L119.18 21.23C118.27 21.11 117.36 21.04 116.45 21.01L115.08 20.96C114.6 20.96 114.17 20.96 113.71 20.99C111.89 21.07 110.07 21.3 108.28 21.67C104.7 22.43 101.28 23.79 98.15 25.69C95.03 27.62 92.26 30.06 89.93 32.89C85.26 38.62 82.66 45.76 82.56 53.15Z" fill="#263238" fill-opacity="1.000000" fill-rule="nonzero"/>
		<path id="Vector" d="M87.6 29.32C89.12 27.34 90.88 25.55 92.83 23.99C96.75 20.84 101.35 18.67 106.27 17.64C106.88 17.54 107.5 17.41 108.11 17.32C108.73 17.24 109.35 17.15 109.97 17.1L111.84 17L113.71 17L111.85 17.11L110 17.32C109.39 17.4 108.78 17.51 108.17 17.6C107.56 17.7 106.96 17.86 106.35 17.99C101.54 19.14 97.01 21.28 93.06 24.26C91.08 25.77 89.25 27.46 87.6 29.32Z" fill="#263238" fill-opacity="1.000000" fill-rule="nonzero"/>
		<path id="Vector" d="M229.98 86.91C237.29 85.75 243.99 82.14 248.98 76.68C251.44 73.96 253.43 70.86 254.88 67.5C256.31 64.13 257.16 60.54 257.39 56.89C257.5 55.07 257.46 53.24 257.28 51.42C257.22 50.97 257.17 50.52 257.11 50.07L256.86 48.72C256.7 47.82 256.49 46.93 256.24 46.05C256.18 45.83 256.13 45.61 256.06 45.39L255.84 44.74L255.4 43.45C255.08 42.59 254.7 41.76 254.33 40.92C253.53 39.28 252.61 37.7 251.56 36.2C247.3 30.16 241.13 25.72 234.04 23.61C237.6 24.6 240.97 26.16 244.01 28.25C247.05 30.36 249.71 32.98 251.86 35.99C254.04 38.99 255.67 42.36 256.66 45.93C256.92 46.82 257.14 47.73 257.31 48.64L257.56 50C257.63 50.48 257.68 50.92 257.74 51.38C257.94 53.22 257.98 55.08 257.87 56.93C257.41 64.38 254.38 71.44 249.3 76.91C244.21 82.38 237.39 85.91 229.99 86.91L229.98 86.91Z" fill="#263238" fill-opacity="1.000000" fill-rule="nonzero"/>
		<path id="Vector" d="M261.59 53.61C261.52 51.14 261.21 48.67 260.66 46.25C259.54 41.43 257.45 36.88 254.5 32.9C254.12 32.42 253.76 31.91 253.36 31.46C252.96 31.01 252.56 30.5 252.14 30.07L250.86 28.71L249.5 27.42L250.94 28.61L252.31 29.89C252.75 30.33 253.16 30.8 253.59 31.25C254.01 31.71 254.39 32.21 254.79 32.69C256.34 34.66 257.65 36.8 258.7 39.07C259.74 41.35 260.52 43.74 261.02 46.19C261.51 48.63 261.7 51.12 261.59 53.61Z" fill="#263238" fill-opacity="1.000000" fill-rule="nonzero"/>
		<path id="Vector" d="M207.26 93.84C205.05 102.31 199.99 109.76 192.94 114.93C185.88 120.1 177.25 122.68 168.52 122.23C166.35 122.11 164.19 121.8 162.08 121.32C161.55 121.19 161.02 121.07 160.5 120.93L158.94 120.45C157.9 120.13 156.88 119.76 155.88 119.34C155.63 119.24 155.38 119.14 155.13 119.04L154.39 118.68L152.93 117.99C152.45 117.76 151.97 117.45 151.49 117.2C151.01 116.94 150.53 116.66 150.09 116.37C148.26 115.2 146.53 113.88 144.93 112.41L143.74 111.32L142.63 110.13C141.85 109.36 141.19 108.49 140.51 107.66C140.16 107.25 139.87 106.79 139.55 106.35L138.64 105.03L137.8 103.64C137.52 103.16 137.23 102.72 137 102.23C134.97 98.4 133.6 94.26 132.92 89.98C134.41 98.54 138.73 106.35 145.2 112.15C146.8 113.58 148.52 114.87 150.33 116.02C150.78 116.31 151.26 116.56 151.72 116.84C152.18 117.11 152.64 117.39 153.13 117.61L154.57 118.3L155.29 118.66C155.54 118.76 155.77 118.85 156.04 118.95C157.03 119.37 158.04 119.73 159.07 120.04L160.61 120.52C161.13 120.65 161.65 120.77 162.17 120.9C164.26 121.36 166.39 121.66 168.53 121.78C172.83 122 177.13 121.5 181.25 120.29C187.46 118.45 193.11 115.06 197.66 110.44C202.2 105.82 205.5 100.13 207.25 93.89L207.26 93.84Z" fill="#263238" fill-opacity="1.000000" fill-rule="nonzero"/>
		<path id="Vector" d="M194.3 119.33C191.97 121.1 189.44 122.58 186.75 123.75C181.36 126.11 175.48 127.17 169.6 126.85C168.87 126.79 168.16 126.75 167.41 126.67C166.66 126.58 165.97 126.48 165.24 126.36C164.51 126.23 163.8 126.08 163.1 125.92L160.98 125.35L163.12 125.79C163.84 125.91 164.56 126.01 165.28 126.13C165.99 126.24 166.72 126.29 167.44 126.36C168.17 126.44 168.88 126.44 169.62 126.48C172.51 126.58 175.41 126.36 178.26 125.84C181.11 125.32 183.9 124.51 186.59 123.41C189.29 122.31 191.87 120.94 194.3 119.33Z" fill="#263238" fill-opacity="1.000000" fill-rule="nonzero"/>
		<path id="Vector" d="M196.97 84.89C196.68 87.6 195.98 90.24 194.9 92.73L199.76 96.23L197.24 100.59L191.8 98.12C190.19 100.32 188.27 102.26 186.09 103.88L188.56 109.35L184.2 111.86L180.71 107.01C178.23 108.11 175.59 108.82 172.89 109.13L172.29 115.11L167.26 115.11L166.67 109.16C163.97 108.87 161.33 108.17 158.83 107.1L155.34 111.96L150.98 109.44L153.43 103.99C151.25 102.39 149.3 100.46 147.67 98.29L142.22 100.71L139.71 96.39L144.56 92.9C143.47 90.41 142.75 87.78 142.44 85.08L136.46 84.46L136.46 79.43L142.4 78.84C142.7 76.14 143.4 73.5 144.48 71L139.61 67.5L142.13 63.15L147.57 65.61C149.18 63.42 151.11 61.47 153.29 59.85L150.86 54.4L155.22 51.88L158.7 56.73C161.18 55.64 163.82 54.93 166.51 54.63L167.1 48.67L172.13 48.67L172.73 54.61C175.43 54.9 178.07 55.6 180.56 56.68L184.06 51.82L188.41 54.34L185.96 59.78C188.15 61.39 190.09 63.32 191.72 65.49L197.18 63.03L199.7 67.39L194.84 70.87C195.93 73.35 196.64 75.98 196.94 78.67L202.91 79.27L202.91 84.3L196.97 84.89Z" fill="#FDCE51" fill-opacity="1.000000" fill-rule="nonzero"/>
		<path id="Vector" d="M136.69 59.43C136.14 62.31 135.03 65.05 133.41 67.49L136.96 71.87L131.41 77.15L127.47 73.6C124.97 75.31 122.15 76.5 119.18 77.1L118.63 82.35L111.02 82.14L110.74 77.19C107.66 76.63 104.73 75.43 102.15 73.65L98.25 76.81L92.97 71.27L96.2 67.69C94.43 65.08 93.24 62.11 92.71 59L87.78 58.47L87.98 50.82L92.89 50.58C93.53 47.53 94.8 44.66 96.62 42.15L93.32 38.09L98.87 32.81L102.76 36.31C105.29 34.7 108.12 33.62 111.08 33.13L111.66 27.58L119.29 27.78L119.58 33.35C122.42 33.99 125.11 35.18 127.49 36.87L132.03 33.18L137.29 38.73L133.45 42.99C135.03 45.39 136.13 48.08 136.68 50.9L142.52 51.51L142.31 59.15L136.69 59.43Z" fill="#455A64" fill-opacity="1.000000" fill-rule="nonzero"/>
		<path id="Vector" d="M117.83 62.59L112.16 62.54L112.16 62.44C111.99 61.54 111.77 60.65 111.5 59.78C111.22 59.29 110.85 58.87 110.4 58.53C109.44 57.74 108.64 56.77 108.06 55.67C107.48 54.56 107.14 53.35 107.04 52.11C106.97 50.95 107.12 49.79 107.51 48.69C107.89 47.6 108.49 46.59 109.27 45.73C110.03 44.92 110.95 44.27 111.97 43.83C113 43.4 114.1 43.17 115.21 43.18C116.32 43.19 117.42 43.43 118.44 43.89C119.45 44.35 120.36 45.01 121.11 45.83C121.87 46.71 122.46 47.73 122.82 48.83C123.18 49.94 123.32 51.1 123.22 52.26C123.1 53.5 122.73 54.71 122.13 55.8C121.53 56.89 120.71 57.85 119.72 58.62C119.27 58.94 118.89 59.36 118.61 59.84C118.32 60.71 118.08 61.6 117.89 62.49L117.83 62.59ZM112.36 62.31L117.64 62.35C117.83 61.48 118.06 60.61 118.35 59.76C118.64 59.24 119.04 58.79 119.53 58.44C120.78 57.34 122.49 55.84 122.95 52.24C123.05 51.12 122.91 49.98 122.56 48.91C122.2 47.84 121.64 46.85 120.89 46C120.17 45.2 119.29 44.56 118.3 44.12C117.32 43.68 116.25 43.44 115.18 43.43C114.1 43.42 113.03 43.64 112.04 44.06C111.04 44.49 110.15 45.11 109.41 45.9C108.65 46.73 108.07 47.71 107.7 48.78C107.32 49.84 107.17 50.97 107.25 52.1C107.63 55.7 109.32 57.24 110.55 58.36C111.03 58.72 111.42 59.18 111.7 59.7C111.98 60.55 112.2 61.43 112.36 62.31Z" fill="#FFFFFF" fill-opacity="1.000000" fill-rule="nonzero"/>
		<path id="Vector" d="M112.02 53.76L112.38 53.69L113.92 62.41L113.57 62.47L112.02 53.76Z" fill="#FFFFFF" fill-opacity="1.000000" fill-rule="evenodd"/>
		<path id="Vector" d="M116.25 62.43L117.95 53.75L118.31 53.81L116.6 62.5L116.25 62.43Z" fill="#FFFFFF" fill-opacity="1.000000" fill-rule="evenodd"/>
		<path id="Vector" d="M115.14 56.67C114.62 56.67 114.18 56.19 113.87 55.62C113.82 55.69 113.74 55.75 113.66 55.79C113.58 55.83 113.49 55.86 113.39 55.86C112.56 55.86 112.24 54.15 112.23 54.07L112.4 54.05C112.49 54.5 112.82 55.68 113.39 55.68C113.47 55.67 113.54 55.65 113.61 55.61C113.67 55.57 113.73 55.52 113.77 55.45C113.54 54.97 113.4 54.44 113.38 53.91C113.38 53.43 113.58 53.15 113.9 53.15C113.99 53.14 114.09 53.17 114.18 53.22C114.26 53.26 114.33 53.33 114.38 53.42C114.63 53.87 114.43 54.75 114.1 55.31C114.07 55.37 114.03 55.42 113.99 55.48C114.28 56.04 114.69 56.48 115.13 56.49C115.53 56.49 115.89 56.13 116.15 55.64C115.82 55.22 115.65 54.7 115.67 54.17C115.67 53.55 115.91 53.17 116.29 53.17C116.6 53.17 116.77 53.48 116.77 54.01C116.75 54.56 116.61 55.11 116.36 55.61C116.5 55.75 116.69 55.83 116.89 55.83C117.37 55.83 117.82 54.65 117.95 54.19L118.13 54.24C118.07 54.43 117.59 56.01 116.88 56.01C116.66 56 116.45 55.92 116.28 55.77C116.18 56.01 116.03 56.21 115.83 56.37C115.63 56.53 115.39 56.63 115.14 56.67ZM116.29 53.35C115.97 53.35 115.85 53.79 115.85 54.17C115.84 54.63 115.98 55.09 116.24 55.47C116.45 55.01 116.57 54.51 116.6 54.01C116.6 53.81 116.57 53.35 116.29 53.35ZM113.89 53.35C113.62 53.35 113.56 53.67 113.56 53.94C113.58 54.41 113.69 54.88 113.89 55.32L113.93 55.24C114.23 54.76 114.41 53.91 114.2 53.53C114.17 53.48 114.13 53.43 114.07 53.4C114.02 53.36 113.96 53.35 113.89 53.35Z" fill="#FFFFFF" fill-opacity="1.000000" fill-rule="nonzero"/>
		<path id="Vector" d="M118.48 63.68L111.5 63.62L111.5 62.06L118.49 62.12L118.48 63.68ZM111.74 63.38L118.24 63.44L118.24 62.36L111.75 62.31L111.74 63.38Z" fill="#FFFFFF" fill-opacity="1.000000" fill-rule="nonzero"/>
		<path id="Vector" d="M118.47 65.21L111.5 65.15L111.5 63.59L118.49 63.65L118.47 65.21ZM111.72 64.91L118.23 64.97L118.23 63.89L111.72 63.83L111.72 64.91Z" fill="#FFFFFF" fill-opacity="1.000000" fill-rule="nonzero"/>
		<path id="Vector" d="M118.45 66.74L111.46 66.68L111.46 65.12L118.45 65.19L118.45 66.74ZM111.71 66.44L118.22 66.5L118.22 65.42L111.71 65.36L111.71 66.44Z" fill="#FFFFFF" fill-opacity="1.000000" fill-rule="nonzero"/>
		<path id="Vector" d="M180.62 73.25L175.88 69.21L175.94 69.12C175.99 69.05 177.11 67.4 178.71 67.2C179.12 67.15 179.54 67.2 179.93 67.33C180.32 67.46 180.67 67.67 180.97 67.96C181.3 68.21 181.57 68.53 181.77 68.9C181.96 69.27 182.07 69.67 182.1 70.09C182.16 71.72 180.76 73.13 180.7 73.19L180.62 73.25ZM176.2 69.17L180.6 72.92C180.89 72.6 181.91 71.4 181.86 70.07C181.83 69.69 181.73 69.32 181.55 68.98C181.37 68.65 181.12 68.35 180.82 68.12C180.55 67.86 180.22 67.66 179.86 67.54C179.5 67.42 179.12 67.38 178.75 67.42C177.47 67.59 176.47 68.83 176.22 69.17L176.2 69.17Z" fill="#FFFFFF" fill-opacity="1.000000" fill-rule="nonzero"/>
		<path id="Vector" d="M162.7 94.96L162.52 94.81L180.56 72.98L176.17 69.23L158.13 91.06L157.94 90.9L176.14 68.89L180.9 72.95L180.82 73.04L162.7 94.96Z" fill="#FFFFFF" fill-opacity="1.000000" fill-rule="nonzero"/>
		<path id="Vector" d="M180.51 74.22L174.98 69.51L175.86 68.45L181.38 73.16L180.51 74.22ZM175.34 69.47L180.49 73.87L181.06 73.19L175.9 68.79L175.34 69.47Z" fill="#FFFFFF" fill-opacity="1.000000" fill-rule="nonzero"/>
		<path id="Vector" d="M179.71 75.18L174.19 70.47L175.06 69.41L180.58 74.12L179.71 75.18ZM174.52 70.44L179.66 74.83L180.23 74.15L175.07 69.75L174.52 70.44Z" fill="#FFFFFF" fill-opacity="1.000000" fill-rule="nonzero"/>
		<path id="Vector" d="M157.26 96.63L157.96 90.98L158.06 90.98L158.93 90.83L159.07 90.81L159.07 91.71L159.98 91.59L159.98 92.49L160.86 92.34L160.86 93.24L161.73 93.09L161.73 94L162.47 93.87L162.61 93.87L162.61 95L157.26 96.63ZM158.18 91.2L157.54 96.29L158.63 95.95L162.37 94.78L162.37 94.1L161.64 94.23L161.5 94.26L161.5 93.35L160.62 93.5L160.62 92.6L159.74 92.75L159.74 91.85L158.85 91.99L158.85 91.11L158.18 91.2Z" fill="#FFFFFF" fill-opacity="1.000000" fill-rule="nonzero"/>
		<path id="Vector" d="M157.35 96.46L157.64 94.19L159.52 95.8L157.35 96.46ZM157.83 94.66L157.64 96.13L159.04 95.69L157.83 94.66Z" fill="#FFFFFF" fill-opacity="1.000000" fill-rule="nonzero"/>
		<path id="Vector" d="M160.41 90.71C161.55 89.11 162.75 87.56 163.96 86.02C165.17 84.48 166.42 82.98 167.65 81.44C168.88 79.91 170.16 78.44 171.44 76.97C172.73 75.49 174.03 74.02 175.38 72.59C174.24 74.19 173.04 75.74 171.83 77.28C170.62 78.83 169.37 80.33 168.14 81.86C166.91 83.38 165.63 84.86 164.34 86.33C163.05 87.81 161.76 89.28 160.41 90.71Z" fill="#FFFFFF" fill-opacity="1.000000" fill-rule="nonzero"/>
		<path id="Vector" d="M162.49 92.44C163.63 90.84 164.83 89.29 166.04 87.75C167.24 86.2 168.5 84.7 169.73 83.17C170.95 81.64 172.24 80.17 173.53 78.69C174.82 77.21 176.11 75.74 177.46 74.32C176.32 75.91 175.12 77.46 173.91 79C172.7 80.55 171.45 82.06 170.22 83.58C168.99 85.1 167.71 86.58 166.42 88.06C165.14 89.54 163.82 91.01 162.49 92.44Z" fill="#FFFFFF" fill-opacity="1.000000" fill-rule="nonzero"/>
		<path id="Vector" d="M245.56 59.43C245.01 62.31 243.9 65.05 242.28 67.49L245.83 71.87L240.28 77.15L236.34 73.6C233.85 75.32 231.03 76.52 228.05 77.12L227.5 82.37L219.86 82.17L219.61 77.19C216.53 76.63 213.6 75.43 211.02 73.65L207.12 76.81L201.84 71.27L205.07 67.69C203.3 65.08 202.11 62.11 201.58 59L196.64 58.47L196.85 50.82L201.76 50.58C202.4 47.53 203.67 44.66 205.49 42.15L202.22 38.1L207.76 32.81L211.65 36.32C214.18 34.71 217.01 33.63 219.97 33.14L220.55 27.59L228.19 27.79L228.47 33.36C231.3 34 233.99 35.19 236.36 36.87L240.9 33.18L246.18 38.73L242.34 42.99C243.92 45.39 245.02 48.08 245.57 50.9L251.4 51.51L251.18 59.13L245.56 59.43Z" fill="#455A64" fill-opacity="1.000000" fill-rule="nonzero"/>
		<path id="Vector" d="M217.76 67.97L216.58 67.97L216.58 45.37L217.76 45.37L217.76 67.97ZM216.82 67.73L217.52 67.73L217.52 45.61L216.82 45.61L216.82 67.73Z" fill="#FFFFFF" fill-opacity="1.000000" fill-rule="nonzero"/>
		<path id="Vector" d="M233.55 56.79L217.52 56.79L217.52 45.88L233.55 45.88L228.08 51.33L233.55 56.79ZM217.76 56.55L232.97 56.55L227.74 51.33L232.97 46.12L217.76 46.12L217.76 56.55Z" fill="#FFFFFF" fill-opacity="1.000000" fill-rule="nonzero"/>
		<path id="Vector" d="M118.93 134.29L220.22 134.29L220.22 140.69L118.93 140.69L118.93 134.29Z" fill="#FFFFFF" fill-opacity="1.000000" fill-rule="evenodd"/>
		<path id="Vector" d="M220.22 140.68L118.94 140.85L118.77 140.85L118.77 140.68L118.77 134.29L118.77 134.1L118.95 134.1L169.58 134.16L220.22 134.27L220.22 140.68ZM220.22 140.68L220.22 134.29L169.58 134.41L118.93 134.46L119.11 134.29L119.11 140.68L118.94 140.51L220.22 140.68Z" fill="#263238" fill-opacity="1.000000" fill-rule="nonzero"/>
		<path id="Vector" d="M120.17 135.42L185.71 135.42L185.71 139.55L120.17 139.55L120.17 135.42Z" fill="#FDCE51" fill-opacity="1.000000" fill-rule="evenodd"/>
		<g opacity="0.100000">
			<path id="Vector" d="M126.76 135.42L123.36 135.42L120.17 139.55L123.56 139.55L126.76 135.42Z" fill="#1E1E1E" fill-opacity="1.000000" fill-rule="nonzero"/>
		</g>
		<g opacity="0.100000">
			<path id="Vector" d="M133.31 135.42L129.91 135.42L126.71 139.55L130.11 139.55L133.31 135.42Z" fill="#1E1E1E" fill-opacity="1.000000" fill-rule="nonzero"/>
		</g>
		<g opacity="0.100000">
			<path id="Vector" d="M139.86 135.42L136.47 135.42L133.27 139.55L136.66 139.55L139.86 135.42Z" fill="#1E1E1E" fill-opacity="1.000000" fill-rule="nonzero"/>
		</g>
		<g opacity="0.100000">
			<path id="Vector" d="M146.41 135.42L143.01 135.42L139.81 139.55L143.21 139.55L146.41 135.42Z" fill="#1E1E1E" fill-opacity="1.000000" fill-rule="nonzero"/>
		</g>
		<g opacity="0.100000">
			<path id="Vector" d="M152.96 135.42L149.57 135.42L146.36 139.55L149.76 139.55L152.96 135.42Z" fill="#1E1E1E" fill-opacity="1.000000" fill-rule="nonzero"/>
		</g>
		<g opacity="0.100000">
			<path id="Vector" d="M159.51 135.42L156.12 135.42L152.92 139.55L156.31 139.55L159.51 135.42Z" fill="#1E1E1E" fill-opacity="1.000000" fill-rule="nonzero"/>
		</g>
		<g opacity="0.100000">
			<path id="Vector" d="M166.06 135.42L162.67 135.42L159.46 139.55L162.86 139.55L166.06 135.42Z" fill="#1E1E1E" fill-opacity="1.000000" fill-rule="nonzero"/>
		</g>
		<g opacity="0.100000">
			<path id="Vector" d="M172.61 135.42L169.22 135.42L166.02 139.55L169.41 139.55L172.61 135.42Z" fill="#1E1E1E" fill-opacity="1.000000" fill-rule="nonzero"/>
		</g>
		<g opacity="0.100000">
			<path id="Vector" d="M179.16 135.42L175.76 135.42L172.57 139.55L175.96 139.55L179.16 135.42Z" fill="#1E1E1E" fill-opacity="1.000000" fill-rule="nonzero"/>
		</g>
		<g opacity="0.100000">
			<path id="Vector" d="M185.7 135.43L185.7 135.42L182.32 135.42L179.12 139.55L182.51 139.55L185.7 135.43Z" fill="#1E1E1E" fill-opacity="1.000000" fill-rule="nonzero"/>
		</g>
		<g opacity="0.100000">
			<path id="Vector" d="M185.7 139.55L185.7 139.51L185.67 139.55L185.7 139.55Z" fill="#1E1E1E" fill-opacity="1.000000" fill-rule="nonzero"/>
		</g>
		<path id="Vector" d="M97.33 76.28C98.83 87.35 103.69 98.72 105.53 100.44C107.52 102.31 117.46 103.29 122.51 103.54C124.16 103.63 125.45 92.29 124.12 91.13C122.79 89.96 114.23 91.25 112.76 90.17C112.28 89.82 105.41 80.71 101.81 75.29C98.46 70.22 96.87 72.92 97.33 76.28Z" fill="#F7A9A0" fill-opacity="1.000000" fill-rule="nonzero"/>
		<path id="Vector" d="M121.1 105.14L122.71 90.17C122.71 90.17 114.47 90.55 113.44 89.82C112.41 89.08 104.57 78.19 101.62 74.46C98.68 70.73 95.2 70.86 97.3 79.59C99.55 89.02 102.77 98.47 104.75 100.44C107.33 103.02 121.1 105.14 121.1 105.14Z" fill="#FDCE51" fill-opacity="1.000000" fill-rule="nonzero"/>
		<path id="Vector" d="M117.97 103.52C117.98 102.98 118.03 102.44 118.1 101.91C118.14 101.43 118.17 100.95 118.22 100.47C118.32 99.42 118.41 98.38 118.52 97.34C118.63 96.3 118.72 95.26 118.84 94.21C118.95 93.17 119.03 92.14 119.2 91.11C119.2 91.11 119.21 91.1 119.22 91.1C119.22 91.09 119.23 91.09 119.24 91.09C119.25 91.09 119.25 91.09 119.26 91.1C119.27 91.1 119.27 91.11 119.27 91.11C119.3 92.16 119.23 93.2 119.17 94.24C119.12 95.29 119.02 96.29 118.92 97.31C118.82 98.33 118.69 99.39 118.55 100.43C118.48 100.91 118.4 101.42 118.31 101.92C118.25 102.46 118.16 102.99 118.03 103.51C118.02 103.52 118.02 103.52 118.02 103.53C118.01 103.53 118.01 103.53 118 103.53C118 103.53 117.99 103.53 117.98 103.53C117.98 103.53 117.98 103.52 117.97 103.52Z" fill="#263238" fill-opacity="1.000000" fill-rule="nonzero"/>
		<g opacity="0.100000">
			<path id="Vector" d="M114.35 103.86C110.46 103 106.08 101.78 104.72 100.43C102.74 98.45 99.5 89.01 97.27 79.58C95.95 74.04 96.87 71.96 98.48 72.13L114.35 103.86Z" fill="#1E1E1E" fill-opacity="1.000000" fill-rule="nonzero"/>
		</g>
		<path id="Vector" d="M124.67 71.35C126.25 69.8 128.23 68.73 130.39 68.25C132.55 67.77 134.8 67.91 136.88 68.64L129.92 75.43L132.28 80.53L137.32 83.01L144.29 76.22C144.94 78.24 145.03 80.39 144.57 82.46C144.11 84.52 143.11 86.43 141.66 87.98C140.22 89.53 138.39 90.66 136.36 91.26C134.33 91.86 132.17 91.91 130.12 91.4C128.06 90.9 126.18 89.85 124.67 88.37C123.15 86.89 122.06 85.03 121.51 82.99C120.95 80.94 120.95 78.79 121.51 76.75C122.06 74.7 123.15 72.85 124.67 71.37L124.67 71.35Z" fill="#DBDBDB" fill-opacity="1.000000" fill-rule="nonzero"/>
		<path id="Vector" d="M92.4 136.08C90.82 137.62 88.84 138.69 86.68 139.17C84.52 139.65 82.27 139.52 80.19 138.79L87.15 131.99L84.79 126.89L79.75 124.42L72.79 131.22C72.14 129.2 72.04 127.05 72.5 124.98C72.96 122.92 73.96 121.01 75.41 119.46C76.85 117.91 78.68 116.78 80.71 116.18C82.74 115.58 84.9 115.53 86.95 116.04C89.01 116.54 90.89 117.59 92.41 119.07C93.92 120.55 95.01 122.41 95.57 124.46C96.12 126.5 96.12 128.65 95.56 130.7C95.01 132.74 93.91 134.6 92.4 136.08Z" fill="#DBDBDB" fill-opacity="1.000000" fill-rule="nonzero"/>
		<path id="Vector" d="M92.53 126.74L85.13 119.17L126.49 78.79L133.89 86.37L92.53 126.74Z" fill="#DBDBDB" fill-opacity="1.000000" fill-rule="evenodd"/>
		<path id="Vector" d="M102.52 112.64L99.47 109.52L116.51 92.89L119.55 96.01L102.52 112.64Z" fill="#C7C7C7" fill-opacity="1.000000" fill-rule="evenodd"/>
		<path id="Vector" d="M115.52 100C115.37 98.42 117.32 99.15 117.32 99.15C117.32 99.15 114.76 97.43 115.23 95.74C115.7 94.05 118.02 95.07 118.18 95.14C118.05 95.05 115.74 93.4 116.39 91.78C117.04 90.15 119.23 91.42 119.37 91.51C119.27 91.38 117.98 89.68 118.76 88.55C120.09 86.58 124.19 91.12 126.1 91.25L128.47 88.56C128.24 89.45 128.27 90.39 128.57 91.26C128.95 92.53 129.21 93.38 129.07 94.2C129.02 94.57 128.85 94.91 128.58 95.17C128.32 95.44 127.98 95.61 127.61 95.67C127.61 95.67 128.82 96.83 128.36 98.15C128.11 98.82 126.81 99.03 126.81 99.03C127.08 99.31 127.26 99.65 127.33 100.03C127.41 100.4 127.39 100.79 127.26 101.15C126.87 102.06 125.63 102.13 125.63 102.13C125.63 102.13 126.11 103.48 125.4 104.29C123.98 105.89 115.86 103.39 115.52 100Z" fill="#F7A9A0" fill-opacity="1.000000" fill-rule="nonzero"/>
		<path id="Vector" d="M126.74 90.7L128.42 88.6C128.5 88.54 128.59 88.47 128.66 88.42C131.46 86.41 135.7 87.58 134.2 89.54C133.05 91.02 129.88 90.76 128.92 92.45L126.74 90.7Z" fill="#F7A9A0" fill-opacity="1.000000" fill-rule="nonzero"/>
		<path id="Vector" d="" fill="#263238" fill-opacity="1.000000" fill-rule="nonzero"/>
		<path id="Vector" d="M126.86 99.04C126.89 99.04 126.86 99.1 126.86 99.1C123.56 98.88 120.45 97.5 118.09 95.18C118.01 95.1 118.02 94.94 118.12 95.04C119.78 96.53 124.16 98.46 126.86 99.04Z" fill="#263238" fill-opacity="1.000000" fill-rule="nonzero"/>
		<path id="Vector" d="M119.27 91.27C121.6 93.5 124.41 94.77 127.48 95.65C127.52 95.65 127.48 95.72 127.48 95.72C125.86 95.69 123.96 94.93 122.53 94.21C121.19 93.55 120.04 92.56 119.2 91.33C119.18 91.3 119.22 91.22 119.27 91.27Z" fill="#263238" fill-opacity="1.000000" fill-rule="nonzero"/>
		<path id="Vector" d="M130.7 221.43C129.59 221.78 98.21 221.11 97.03 220.33C96.58 220.03 96.41 215.45 96.36 209.92C96.36 208.72 96.36 207.49 96.36 206.23C96.36 204.75 96.36 203.25 96.39 201.79C96.48 195.23 96.67 188.02 96.67 188.02L117.1 188.4L116.87 202.17L116.78 206.61L116.6 210.29C116.6 210.29 128.5 215.93 129.71 216.92C130.91 217.92 131.8 221.09 130.7 221.43Z" fill="#F7A9A0" fill-opacity="1.000000" fill-rule="nonzero"/>
		<path id="Vector" d="M130.7 221.43C129.59 221.78 98.21 221.11 97.03 220.33C96.58 220.03 96.41 215.45 96.36 209.92C96.36 208.72 96.36 207.49 96.36 206.23C96.36 204.75 96.36 203.25 96.39 201.79L116.87 202.17L116.78 206.61L116.6 210.29C116.6 210.29 128.5 215.93 129.71 216.92C130.91 217.92 131.8 221.09 130.7 221.43Z" fill="#FFFFFF" fill-opacity="1.000000" fill-rule="nonzero"/>
		<path id="Vector" d="M130.79 221.48C130.07 221.7 116.71 221.51 106.98 221.12C104.72 221.03 102.66 220.94 101.01 220.83C98.72 220.68 97.16 220.53 96.94 220.35C96.39 219.99 96.25 213.27 96.26 206.19L116.79 206.56L116.61 210.27C116.61 210.27 128.58 215.93 129.79 216.93C131 217.94 131.9 221.13 130.79 221.48Z" fill="#FDCE51" fill-opacity="1.000000" fill-rule="nonzero"/>
		<path id="Vector" d="M130.37 220.22C125.09 219.98 103.73 219.5 98.49 219.66C98.45 219.66 98.45 219.69 98.49 219.7C103.72 220.05 125.07 220.36 130.37 220.31C130.48 220.3 130.48 220.22 130.37 220.22Z" fill="#263238" fill-opacity="1.000000" fill-rule="nonzero"/>
		<path id="Vector" d="M117.39 209.12C115.31 208.69 112.76 208.95 111.15 210.4C111.08 210.46 111.15 210.54 111.23 210.52C113.24 209.93 115.3 209.55 117.38 209.38C117.41 209.38 117.44 209.36 117.46 209.34C117.48 209.31 117.49 209.28 117.49 209.25C117.49 209.22 117.48 209.19 117.46 209.17C117.45 209.14 117.42 209.12 117.39 209.12Z" fill="#263238" fill-opacity="1.000000" fill-rule="nonzero"/>
		<path id="Vector" d="M118.87 210.06C116.8 209.63 114.24 209.89 112.63 211.34C112.57 211.39 112.63 211.48 112.72 211.46C114.72 210.86 116.78 210.48 118.87 210.32C118.9 210.32 118.92 210.3 118.94 210.28C118.96 210.25 118.98 210.22 118.98 210.19C118.98 210.16 118.97 210.13 118.95 210.11C118.93 210.08 118.9 210.06 118.87 210.06Z" fill="#263238" fill-opacity="1.000000" fill-rule="nonzero"/>
		<path id="Vector" d="M120.35 211C118.28 210.56 115.73 210.83 114.11 212.28C114.05 212.33 114.11 212.42 114.2 212.4C116.2 211.8 118.26 211.42 120.35 211.26C120.38 211.25 120.41 211.24 120.43 211.21C120.45 211.19 120.46 211.16 120.46 211.13C120.46 211.1 120.45 211.07 120.43 211.04C120.41 211.02 120.38 211 120.35 211Z" fill="#263238" fill-opacity="1.000000" fill-rule="nonzero"/>
		<path id="Vector" d="M121.84 211.93C119.76 211.5 117.21 211.76 115.6 213.21C115.53 213.27 115.6 213.36 115.68 213.34C117.69 212.74 119.75 212.36 121.83 212.19C121.86 212.19 121.89 212.17 121.91 212.15C121.93 212.13 121.94 212.1 121.94 212.06C121.94 212.03 121.93 212 121.91 211.98C121.89 211.95 121.87 211.94 121.84 211.93Z" fill="#263238" fill-opacity="1.000000" fill-rule="nonzero"/>
		<path id="Vector" d="M121.34 204.39C120.54 203.24 119.01 203.71 118.12 204.42C116.63 205.67 115.49 207.29 114.81 209.12C114.81 209.13 114.81 209.14 114.81 209.15C114.81 209.16 114.81 209.17 114.82 209.17C114.82 209.18 114.83 209.19 114.84 209.19C114.85 209.2 114.85 209.2 114.86 209.2C114.86 209.36 115 209.53 115.18 209.47C116.92 208.87 118.84 208.44 120.34 207.33C121.21 206.68 122.09 205.47 121.34 204.39ZM117.62 208.02C116.78 208.34 115.92 208.61 115.09 208.95C115.74 208.04 116.35 207.1 117.08 206.25C117.43 205.84 117.81 205.45 118.21 205.09C118.84 204.53 121.32 203.39 120.91 205.67C120.68 206.92 118.63 207.65 117.62 208.03L117.62 208.02Z" fill="#263238" fill-opacity="1.000000" fill-rule="nonzero"/>
		<path id="Vector" d="M109.53 208.48C111.24 209.24 113.21 209.25 115.03 209.46C115.07 209.46 115.11 209.46 115.15 209.44C115.18 209.42 115.22 209.39 115.24 209.36C115.27 209.33 115.28 209.29 115.29 209.25C115.3 209.21 115.3 209.17 115.29 209.13C115.29 209.13 115.3 209.13 115.31 209.12C115.32 209.11 115.32 209.11 115.32 209.1C115.33 209.09 115.33 209.08 115.33 209.07C115.33 209.06 115.32 209.05 115.32 209.05C114.27 207.4 112.81 206.06 111.08 205.16C110.07 204.66 108.46 204.52 107.94 205.81C107.43 207.03 108.55 208.02 109.53 208.48ZM108.62 206.97C107.72 204.83 110.39 205.43 111.13 205.83C111.6 206.1 112.05 206.4 112.48 206.73C113.35 207.42 114.2 208.16 115 208.94C114.11 208.78 113.22 208.7 112.33 208.57C111.27 208.42 109.12 208.14 108.62 206.97Z" fill="#263238" fill-opacity="1.000000" fill-rule="nonzero"/>
		<g opacity="0.100000">
			<path id="Vector" d="M114.73 221.37C112.09 221.3 109.42 221.21 106.98 221.12C104.72 221.04 102.66 220.94 101 220.83C98.72 220.68 97.16 220.53 96.94 220.35C96.46 220.03 96.29 214.84 96.26 208.8C100.94 211.93 110.06 218.18 114.73 221.37Z" fill="#1E1E1E" fill-opacity="1.000000" fill-rule="nonzero"/>
		</g>
		<path id="Vector" d="M117.18 208.12L95.3 208.14C95.3 208.14 96.58 156.14 96.33 154.92C95.73 152 82.47 105.73 82.47 105.73L100.88 106.04L104.24 106.15C104.24 106.15 115.92 145.07 117.15 152.17C119.28 164.49 117.18 208.12 117.18 208.12Z" fill="#263238" fill-opacity="1.000000" fill-rule="nonzero"/>
		<path id="Vector" d="M115.94 204.22C112.31 204.13 101.35 203.74 96.49 204.11C96.46 204.11 96.46 204.17 96.49 204.18C98.15 204.45 112.3 204.37 115.94 204.32C115.95 204.33 115.96 204.33 115.97 204.32C115.97 204.32 115.98 204.32 115.99 204.31C116 204.31 116 204.3 116.01 204.3C116.01 204.29 116.01 204.28 116.01 204.27C116.01 204.26 116.01 204.26 116.01 204.25C116 204.24 116 204.23 115.99 204.23C115.98 204.22 115.97 204.22 115.97 204.22C115.96 204.22 115.95 204.22 115.94 204.22Z" fill="#37474F" fill-opacity="1.000000" fill-rule="nonzero"/>
		<path id="Vector" d="M98.16 153.75C97.46 150.92 92.27 133.24 90.68 127.66C89.09 122.08 87.6 116.47 86.23 110.84C86.06 110.12 85.88 109.4 85.69 108.7C85.69 108.64 85.59 108.66 85.6 108.73C86.12 111.56 86.82 114.37 87.49 117.18C88.15 119.99 88.87 122.79 89.61 125.58C91.12 131.18 92.76 136.75 94.54 142.27C95.43 145.03 96.9 150.68 97.67 153.46C98.45 156.25 97.19 201.46 97.26 202.22C97.27 202.25 97.29 202.29 97.32 202.32C97.35 202.34 97.39 202.35 97.43 202.35C97.47 202.35 97.5 202.34 97.53 202.32C97.56 202.29 97.58 202.25 97.59 202.22C97.69 196.82 98.85 156.56 98.16 153.75Z" fill="#37474F" fill-opacity="1.000000" fill-rule="nonzero"/>
		<path id="Vector" d="M100.88 106.04C100.88 106.04 96.38 155.15 96.33 154.91C95.75 152.09 83.29 108.58 82.51 105.86C82.48 105.77 82.47 105.73 82.47 105.73L100.88 106.04Z" fill="#37474F" fill-opacity="1.000000" fill-rule="nonzero"/>
		<path id="Vector" d="M106.52 222.68C105.41 223.03 74.03 222.36 72.85 221.57C72.4 221.28 72.23 216.7 72.19 211.17C72.19 209.97 72.19 208.74 72.19 207.49C72.19 206 72.19 204.5 72.22 203.04C72.3 196.48 72.5 190.71 72.5 190.71L92.93 191.09L92.68 203.43L92.6 207.87L92.42 211.55C92.42 211.55 104.32 217.19 105.52 218.19C106.72 219.18 107.62 222.34 106.52 222.68Z" fill="#F7A9A0" fill-opacity="1.000000" fill-rule="nonzero"/>
		<path id="Vector" d="M106.52 222.68C105.41 223.03 74.03 222.36 72.85 221.57C72.4 221.28 72.23 216.7 72.19 211.17C72.19 209.97 72.19 208.74 72.19 207.49C72.19 206 72.19 204.5 72.22 203.04L92.68 203.43L92.6 207.87L92.42 211.55C92.42 211.55 104.32 217.19 105.52 218.19C106.72 219.18 107.62 222.34 106.52 222.68Z" fill="#FFFFFF" fill-opacity="1.000000" fill-rule="nonzero"/>
		<path id="Vector" d="M106.61 222.73C105.89 222.96 92.52 222.73 82.79 222.38C80.54 222.28 78.47 222.18 76.83 222.08C74.54 221.93 72.99 221.78 72.76 221.6C72.21 221.23 72.07 214.51 72.07 207.43L92.61 207.81L92.43 211.51C92.43 211.51 104.4 217.17 105.61 218.18C106.83 219.18 107.72 222.39 106.61 222.73Z" fill="#FDCE51" fill-opacity="1.000000" fill-rule="nonzero"/>
		<path id="Vector" d="M106.19 221.46C100.91 221.22 79.55 220.73 74.31 220.9C74.26 220.9 74.26 220.93 74.31 220.93C79.54 221.29 100.89 221.59 106.18 221.54C106.29 221.54 106.3 221.46 106.19 221.46Z" fill="#263238" fill-opacity="1.000000" fill-rule="nonzero"/>
		<path id="Vector" d="M93.2 210.37C91.13 209.94 88.58 210.2 86.96 211.65C86.9 211.7 86.96 211.8 87.05 211.78C89.05 211.17 91.11 210.79 93.19 210.62C93.22 210.62 93.24 210.6 93.26 210.58C93.28 210.56 93.29 210.53 93.29 210.5C93.29 210.47 93.28 210.45 93.27 210.42C93.25 210.4 93.23 210.38 93.2 210.37Z" fill="#263238" fill-opacity="1.000000" fill-rule="nonzero"/>
		<path id="Vector" d="M94.7 211.31C92.62 210.87 90.07 211.14 88.46 212.59C88.39 212.65 88.46 212.73 88.54 212.71C90.54 212.12 92.61 211.74 94.7 211.59C94.73 211.59 94.77 211.57 94.8 211.54C94.82 211.52 94.84 211.48 94.84 211.45C94.84 211.41 94.82 211.37 94.8 211.35C94.77 211.32 94.73 211.31 94.7 211.31Z" fill="#263238" fill-opacity="1.000000" fill-rule="nonzero"/>
		<path id="Vector" d="M96.17 212.24C94.1 211.81 91.55 212.07 89.93 213.52C89.86 213.58 89.93 213.67 90.01 213.65C92.01 213.06 94.06 212.67 96.14 212.51C96.17 212.51 96.2 212.49 96.22 212.47C96.25 212.45 96.26 212.42 96.27 212.39C96.27 212.36 96.27 212.32 96.25 212.3C96.23 212.27 96.2 212.25 96.17 212.24Z" fill="#263238" fill-opacity="1.000000" fill-rule="nonzero"/>
		<path id="Vector" d="M97.65 213.18C95.58 212.75 93.03 213.02 91.41 214.46C91.35 214.52 91.41 214.61 91.5 214.59C93.5 213.99 95.56 213.61 97.64 213.45C97.68 213.44 97.7 213.43 97.72 213.4C97.75 213.38 97.76 213.35 97.76 213.32C97.76 213.29 97.75 213.26 97.73 213.23C97.71 213.21 97.68 213.19 97.65 213.18Z" fill="#263238" fill-opacity="1.000000" fill-rule="nonzero"/>
		<path id="Vector" d="M97.16 205.64C96.36 204.5 94.83 204.97 93.94 205.68C92.45 206.93 91.3 208.55 90.63 210.38C90.63 210.42 90.63 210.45 90.68 210.46C90.68 210.62 90.82 210.78 91 210.72C92.73 210.12 94.66 209.69 96.16 208.58C97.03 207.93 97.9 206.72 97.16 205.64ZM93.44 209.28C92.6 209.59 91.74 209.86 90.91 210.21C91.53 209.28 92.19 208.38 92.9 207.51C93.25 207.09 93.63 206.7 94.03 206.34C94.66 205.79 97.14 204.64 96.72 206.92C96.49 208.17 94.45 208.9 93.44 209.28Z" fill="#263238" fill-opacity="1.000000" fill-rule="nonzero"/>
		<path id="Vector" d="M85.36 209.72C87.06 210.49 89.03 210.5 90.85 210.71C91.03 210.74 91.14 210.54 91.11 210.38C91.11 210.38 91.12 210.37 91.13 210.37C91.13 210.36 91.14 210.35 91.14 210.35C91.14 210.34 91.15 210.33 91.14 210.32C91.14 210.31 91.14 210.31 91.14 210.3C90.09 208.65 88.63 207.31 86.9 206.41C85.88 205.91 84.28 205.77 83.75 207.06C83.23 208.34 84.36 209.28 85.36 209.72ZM84.44 208.22C83.55 206.09 86.22 206.68 86.95 207.08C87.42 207.35 87.87 207.65 88.3 207.98C89.18 208.67 90.03 209.41 90.83 210.2C89.94 210.03 89.05 209.95 88.15 209.82C87.09 209.66 84.94 209.4 84.44 208.22Z" fill="#263238" fill-opacity="1.000000" fill-rule="nonzero"/>
		<path id="Vector" d="M93.31 210.02L71.18 209.6C71.18 209.6 77.53 128.96 76.74 124.64C75.44 117.56 76.55 109.48 79.95 105.65L102 106.06C102 106.06 102.32 115.39 99.98 119.04C99.98 119.04 97.88 120.31 96.87 120.87L93.31 210.02Z" fill="#263238" fill-opacity="1.000000" fill-rule="nonzero"/>
		<path id="Vector" d="M92.69 206C89.26 205.84 90.73 205.84 87.3 205.72C85.62 205.67 74.58 205.31 73 205.53C72.97 205.53 72.97 205.59 73 205.6C74.57 205.9 85.61 206.08 87.29 206.08C90.72 206.14 89.25 206.08 92.69 206.08C92.69 206.08 92.7 206.07 92.7 206.07C92.71 206.06 92.71 206.05 92.71 206.04C92.71 206.03 92.71 206.02 92.71 206.02C92.7 206.01 92.7 206 92.69 206Z" fill="#37474F" fill-opacity="1.000000" fill-rule="nonzero"/>
		<path id="Vector" d="M80.3 124.42C80.17 122.79 79.94 121.18 79.79 119.56C79.52 116.31 79.78 113.04 80.56 109.87C80.56 109.86 80.55 109.85 80.55 109.84C80.54 109.83 80.53 109.82 80.52 109.82C80.51 109.82 80.5 109.82 80.49 109.82C80.48 109.83 80.47 109.83 80.47 109.84C79.87 112.65 79.35 115.46 79.44 118.35C79.53 121.23 79.98 124.03 79.98 126.9C79.97 129.76 79.69 132.69 79.45 135.58C79.21 138.47 78.97 141.39 78.72 144.3C77.76 155.99 76.85 167.67 75.91 179.34C75.66 182.61 75.43 185.87 75.16 189.13C74.89 192.39 74.52 199.69 74.34 203C74.34 203.29 74.75 203.28 74.78 203C75.39 197.14 75.88 187.35 76.36 181.47C76.84 175.6 77.28 169.85 77.75 164.04C78.21 158.22 78.66 152.41 79.12 146.6C79.35 143.69 79.57 140.78 79.79 137.88C80.01 135 80.27 132.09 80.37 129.18C80.44 127.59 80.41 126 80.3 124.42Z" fill="#37474F" fill-opacity="1.000000" fill-rule="nonzero"/>
		<path id="Vector" d="M93.26 113.19C93.26 113.14 93.21 113.08 93.17 113.11C92.05 114.96 90.49 116.49 88.64 117.6C86.45 118.93 83.46 119.62 81.79 119.83C81.68 119.83 81.71 119.93 81.81 119.94C83.58 120.05 86.02 119.6 88.7 118.15C92.56 116.07 93.2 113.6 93.26 113.19Z" fill="#37474F" fill-opacity="1.000000" fill-rule="nonzero"/>
		<path id="Vector" d="M100.64 118.77C98.61 119.51 96.64 120.42 94.77 121.5C94.7 121.54 94.75 121.66 94.83 121.62C96.8 120.77 98.82 119.96 100.75 119C100.77 118.99 100.79 118.96 100.8 118.93C100.81 118.9 100.81 118.87 100.8 118.84C100.79 118.81 100.76 118.79 100.73 118.77C100.7 118.76 100.67 118.76 100.64 118.77Z" fill="#37474F" fill-opacity="1.000000" fill-rule="nonzero"/>
		<path id="Vector" d="M101.33 106.23C101.33 106.17 101.2 106.15 101.2 106.23C101.19 108.26 101.07 110.3 100.84 112.32C100.74 113.28 99.88 118.44 98.13 118.08C97.84 118.01 97.69 117.75 97.65 117.34C97.66 116.8 97.75 116.26 97.9 115.75C98.1 114.66 98.26 113.57 98.38 112.47C98.59 110.44 98.58 108.38 98.34 106.35C98.34 106.33 98.33 106.32 98.32 106.3C98.31 106.29 98.29 106.29 98.28 106.29C98.26 106.29 98.25 106.29 98.24 106.3C98.23 106.32 98.22 106.33 98.22 106.35C98.26 109.18 98.07 112.01 97.64 114.81C97.41 116.16 96.68 118.17 98.2 118.39C99.71 118.61 100.78 115.2 100.98 114.27C101.47 111.62 101.58 108.91 101.33 106.23Z" fill="#37474F" fill-opacity="1.000000" fill-rule="nonzero"/>
		<path id="Vector" d="M98.18 118.19C98.02 118.57 97.89 118.96 97.78 119.35C97.67 119.66 97.61 119.99 97.62 120.31C97.62 120.38 97.71 120.38 97.74 120.34C97.92 120.04 98.06 119.72 98.15 119.38C98.29 119.02 98.43 118.67 98.55 118.3C98.56 118.26 98.55 118.21 98.52 118.17C98.5 118.13 98.46 118.1 98.41 118.09C98.37 118.08 98.32 118.08 98.28 118.1C98.24 118.11 98.2 118.15 98.18 118.19Z" fill="#37474F" fill-opacity="1.000000" fill-rule="nonzero"/>
		<path id="Vector" d="M75.72 112.35C75.79 112.43 106.48 113.14 106.79 112.83C107.22 112.37 104.42 80.07 99.36 72.85C98.1 71.04 93.49 69.74 91.53 71.51C85.85 76.64 84.62 81.02 83.08 84.6C81.95 87.25 80.57 91.77 79.3 96.42C77.22 104.07 75.46 112.03 75.72 112.35Z" fill="#FDCE51" fill-opacity="1.000000" fill-rule="nonzero"/>
		<path id="Vector" d="M87.02 75.8C80.67 83.48 73.43 97.45 74.37 100.34C76.92 108.2 79.45 114.99 82 119.24C83.18 121.2 94.03 115.1 92.94 113.18C90.69 109.3 86.36 99.94 85.69 98.62C85.3 97.85 88.93 85.27 91.13 78.32C93.51 70.77 90.08 72.09 87.02 75.8Z" fill="#F7A9A0" fill-opacity="1.000000" fill-rule="nonzero"/>
		<path id="Vector" d="M78.29 116.55L91.65 110.01C91.65 110.01 86.37 98.29 86.37 97.02C86.37 95.75 90.69 81.54 92.01 76.95C93.32 72.37 91.41 69.5 85.7 76.41C79.99 83.32 74.14 94.65 73.57 97.38C73.01 100.1 78.29 116.55 78.29 116.55Z" fill="#FDCE51" fill-opacity="1.000000" fill-rule="nonzero"/>
		<path id="Vector" d="M89.9 84.15C90.24 83.22 90.63 82.31 91.01 81.39C91.03 81.32 91.15 81.39 91.13 81.43C90.68 82.67 90.27 83.91 89.85 85.16C90.17 84.59 90.48 84.02 90.81 83.47C90.82 83.46 90.83 83.45 90.84 83.45C90.85 83.44 90.86 83.45 90.87 83.45C90.88 83.46 90.89 83.47 90.89 83.48C90.9 83.49 90.9 83.5 90.89 83.51C90.52 84.2 90.12 84.87 89.72 85.55C89.62 85.85 86.71 96.25 86.68 96.65C86.66 97.1 86.73 97.55 86.88 97.98C87.12 98.76 87.39 99.54 87.67 100.31C88.23 101.86 88.83 103.4 89.47 104.92C90.19 106.65 91.02 108.36 91.84 110.05C91.84 110.05 91.36 110.18 91.33 110.19C91.29 110.2 91.29 110.19 91.3 110.16C91.31 110.13 91.62 110 91.62 110C90.79 108.53 89.99 107.12 89.29 105.57C88.59 104.02 87.97 102.5 87.41 100.93C87.12 100.12 86.84 99.31 86.58 98.49C86.29 97.72 86.22 96.89 86.35 96.09C86.54 95.26 89.52 85.11 89.9 84.15Z" fill="#263238" fill-opacity="1.000000" fill-rule="nonzero"/>
		<path id="Vector" d="M78.07 112.75C78.54 112.5 79.02 112.27 79.51 112.07C79.94 111.86 80.37 111.65 80.82 111.46C81.78 111.03 82.74 110.59 83.7 110.16C84.66 109.73 85.62 109.31 86.58 108.89C87.54 108.47 88.5 108.03 89.46 107.67C89.49 107.67 89.52 107.71 89.48 107.73C88.6 108.28 87.65 108.73 86.71 109.2C85.78 109.66 84.87 110.08 83.93 110.5C83 110.92 82.01 111.33 81.05 111.73C80.57 111.91 80.09 112.09 79.61 112.26C79.12 112.47 78.6 112.66 78.08 112.8C78.08 112.8 78.07 112.8 78.07 112.8C78.06 112.8 78.06 112.79 78.05 112.78C78.05 112.78 78.05 112.77 78.06 112.77C78.06 112.76 78.06 112.76 78.07 112.75Z" fill="#263238" fill-opacity="1.000000" fill-rule="nonzero"/>
		<path id="Vector" d="M97.26 76.13C95.9 76.37 92.73 74.21 91.34 72.19C91.25 72.05 91.31 70.49 91.29 68.59C91.29 67.43 91.24 66.15 91.11 64.98L98.63 65.99C98.36 67.5 98.29 69.03 98.39 70.55C98.41 70.71 98.45 70.87 98.49 71.03C98.49 71.03 98.49 71.08 98.49 71.11C98.76 72 99.38 75.74 97.26 76.13Z" fill="#F7A9A0" fill-opacity="1.000000" fill-rule="nonzero"/>
		<path id="Vector" d="M98.49 71.03C98.49 71.05 98.49 71.08 98.49 71.1C98.25 71.16 97.99 71.2 97.74 71.22C93.48 71.58 91.87 66.46 91.5 65.05L98.59 66.01C98.33 67.51 98.25 69.04 98.36 70.57C98.39 70.72 98.44 70.88 98.49 71.03Z" fill="#263238" fill-opacity="1.000000" fill-rule="nonzero"/>
		<path id="Vector" d="M89.94 55.1C89.1 57.7 90.36 65.27 92.19 66.98C94.85 69.47 99.25 69.77 101.37 66.56C103.43 63.46 101.61 53.6 99.56 52.06C96.54 49.75 91.17 51.26 89.94 55.1Z" fill="#F7A9A0" fill-opacity="1.000000" fill-rule="nonzero"/>
		<path id="Vector" d="M97.49 59.83C97.49 59.83 97.46 59.86 97.46 59.88C97.57 60.36 97.61 60.98 97.18 61.23C97.18 61.23 97.18 61.27 97.18 61.26C97.74 61.08 97.68 60.29 97.49 59.83Z" fill="#263238" fill-opacity="1.000000" fill-rule="nonzero"/>
		<path id="Vector" d="M96.94 59.38C96.11 59.47 96.35 61.12 97.12 61.04C97.88 60.96 97.63 59.3 96.94 59.38Z" fill="#263238" fill-opacity="1.000000" fill-rule="nonzero"/>
		<path id="Vector" d="M100.4 59.36C100.4 59.36 100.44 59.36 100.44 59.4C100.5 59.91 100.65 60.5 101.13 60.6L101.13 60.63C100.56 60.63 100.37 59.86 100.4 59.36Z" fill="#263238" fill-opacity="1.000000" fill-rule="nonzero"/>
		<path id="Vector" d="M100.77 58.76C101.59 58.58 101.89 60.2 101.13 60.39C100.38 60.58 100.09 58.91 100.77 58.76Z" fill="#263238" fill-opacity="1.000000" fill-rule="nonzero"/>
		<path id="Vector" d="M96.18 58.72C96.39 58.62 96.59 58.52 96.79 58.4C97.02 58.32 97.21 58.16 97.35 57.96C97.37 57.89 97.38 57.81 97.36 57.73C97.33 57.66 97.29 57.59 97.23 57.54C97.09 57.47 96.93 57.44 96.78 57.44C96.62 57.45 96.47 57.5 96.34 57.58C96.05 57.71 95.82 57.94 95.69 58.23C95.66 58.3 95.66 58.38 95.67 58.45C95.69 58.52 95.72 58.59 95.78 58.64C95.83 58.69 95.89 58.72 95.97 58.74C96.04 58.75 96.11 58.75 96.18 58.72Z" fill="#263238" fill-opacity="1.000000" fill-rule="nonzero"/>
		<path id="Vector" d="M101.25 58.04C101.03 58.02 100.8 58 100.57 57.96C100.33 57.96 100.09 57.89 99.9 57.75C99.84 57.69 99.81 57.62 99.8 57.54C99.79 57.47 99.81 57.39 99.85 57.32C99.95 57.2 100.09 57.11 100.23 57.06C100.38 57.01 100.54 57 100.69 57.03C101.01 57.05 101.31 57.18 101.54 57.41C101.59 57.46 101.62 57.53 101.63 57.6C101.64 57.68 101.63 57.75 101.6 57.82C101.57 57.88 101.52 57.94 101.46 57.98C101.4 58.02 101.33 58.04 101.25 58.04Z" fill="#263238" fill-opacity="1.000000" fill-rule="nonzero"/>
		<path id="Vector" d="" fill="#263238" fill-opacity="1.000000" fill-rule="nonzero"/>
		<path id="Vector" d="M97.86 63.05C98.02 63.24 98.22 63.39 98.43 63.49C98.65 63.6 98.89 63.66 99.14 63.66C99.35 63.67 99.56 63.65 99.77 63.6C99.81 63.6 99.84 63.59 99.88 63.57L99.99 63.54C100.02 63.53 100.04 63.51 100.06 63.49C100.07 63.46 100.08 63.44 100.08 63.41C100.08 63.41 100.08 63.38 100.08 63.36L100.08 63.31C100.03 62.91 99.91 62.32 99.91 62.32C100.06 62.37 100.84 62.6 100.8 62.39C100.5 60.62 100.02 58.89 99.36 57.22C99.36 57.21 99.35 57.2 99.34 57.19C99.33 57.19 99.32 57.19 99.3 57.19C99.29 57.19 99.28 57.2 99.28 57.21C99.27 57.22 99.27 57.23 99.27 57.25C99.54 58.88 100.09 60.46 100.39 62.1C100.11 62.01 99.82 61.97 99.53 61.97C99.48 61.99 99.79 63.11 99.79 63.29C99.48 63.37 99.15 63.38 98.82 63.33C98.5 63.28 98.19 63.16 97.91 62.99C97.86 62.98 97.82 63.02 97.86 63.05Z" fill="#263238" fill-opacity="1.000000" fill-rule="nonzero"/>
		<path id="Vector" d="M99.5 63.44C99.32 63.75 99.06 64.01 98.76 64.2C98.59 64.29 98.39 64.33 98.2 64.31C97.77 64.26 97.72 63.89 97.72 63.56C97.74 63.38 97.78 63.21 97.84 63.04C98.33 63.35 98.91 63.49 99.5 63.44Z" fill="#263238" fill-opacity="1.000000" fill-rule="nonzero"/>
		<path id="Vector" d="M98.77 64.2C98.6 64.29 98.4 64.33 98.21 64.31C97.78 64.26 97.73 63.89 97.73 63.56C97.95 63.53 98.17 63.58 98.36 63.69C98.55 63.81 98.69 63.99 98.77 64.2Z" fill="#FF9BBC" fill-opacity="1.000000" fill-rule="nonzero"/>
		<path id="Vector" d="M101.14 54.94C101.03 54.73 100.39 53.23 100.09 53.25C99.71 53.25 99.51 53.89 98.83 54.14C97.87 54.49 96.06 53.54 94.73 54.01C93.4 54.48 92.69 55.82 92.6 58.26C92.52 60.69 90.76 62.78 90.1 61.23C90.1 61.18 90.04 61.08 89.98 60.94C89.61 58.64 89.42 55.94 89.82 54.7C91.05 50.86 97.07 49.84 99.72 51.82C100.18 52.2 100.55 52.67 100.79 53.21C101.04 53.75 101.16 54.34 101.14 54.94Z" fill="#263238" fill-opacity="1.000000" fill-rule="nonzero"/>
		<path id="Vector" d="M92.08 61.49C92.08 61.49 90.36 59.06 89.26 59.67C88.15 60.29 89.45 63.82 90.75 64.3C90.91 64.37 91.09 64.41 91.27 64.41C91.45 64.42 91.62 64.39 91.79 64.32C91.96 64.25 92.11 64.15 92.23 64.03C92.36 63.9 92.46 63.75 92.52 63.58L92.08 61.49Z" fill="#F7A9A0" fill-opacity="1.000000" fill-rule="nonzero"/>
		<path id="Vector" d="M89.66 60.68C89.66 60.68 89.63 60.71 89.66 60.71C90.57 61.08 91.05 61.92 91.39 62.79C91.34 62.7 91.27 62.62 91.18 62.56C91.1 62.5 91 62.46 90.89 62.45C90.79 62.43 90.68 62.43 90.58 62.46C90.48 62.49 90.38 62.54 90.3 62.6C90.3 62.6 90.3 62.66 90.32 62.65C90.48 62.6 90.66 62.6 90.82 62.65C90.98 62.7 91.12 62.8 91.22 62.93C91.39 63.15 91.54 63.4 91.65 63.65C91.7 63.74 91.85 63.69 91.81 63.6C91.82 62.41 90.91 60.79 89.66 60.68Z" fill="#263238" fill-opacity="1.000000" fill-rule="nonzero"/>
		<path id="Vector" d="M98.69 71.76L97.9 75.46L91.27 70.66L89.94 72.62C89.94 72.62 96.33 80.82 96.32 80.42L98.18 76.31L100.58 78.74L99.8 73.16L98.69 71.76Z" fill="#EBEBEB" fill-opacity="1.000000" fill-rule="nonzero"/>
		<path id="Vector" d="M100.3 75.46C100.1 74.37 100.14 74.29 99.89 73.21C99.89 73.17 99.82 73.16 99.81 73.21C99.72 74.29 100.29 77.42 100.41 78.42C100.29 78.32 98.21 76.28 98.19 76.32C97.87 76.96 96.37 79.99 96.31 80.25C95.29 78.95 91.45 74.24 90.29 73.03C90.28 73.02 90.28 73.02 90.27 73.02C90.26 73.01 90.25 73.02 90.24 73.02C90.23 73.03 90.23 73.04 90.23 73.04C90.22 73.05 90.22 73.06 90.23 73.07C91.15 74.47 96.26 80.82 96.32 80.8C97.06 79.4 97.7 77.96 98.24 76.48C98.69 76.91 100.82 79.23 100.81 79.07C100.7 77.85 100.53 76.65 100.3 75.46Z" fill="#263238" fill-opacity="1.000000" fill-rule="nonzero"/>
		<path id="Vector" d="M251.29 179.04C251.44 175.25 251.39 171.46 251.14 167.68C250.58 159.87 249.39 152.13 247.58 144.52C246.58 140.24 245.36 136.03 244.09 131.82C244.05 131.69 243.85 131.73 243.88 131.86C247.82 146.69 251.05 162 250.83 177.41C250.77 181.73 250.27 185.97 249.87 190.25C249.87 190.37 250.05 190.41 250.08 190.3C250.81 186.59 251.22 182.82 251.29 179.04Z" fill="#FDCE51" fill-opacity="1.000000" fill-rule="nonzero"/>
		<path id="Vector" d="M243.88 131.86C243.88 131.86 237.91 147.01 239.25 150.58C240.59 154.16 243.34 154.9 243.34 154.9C243.34 154.9 239.69 160.12 242.25 165.01C244.8 169.9 250.46 169.66 250.84 175.21C250.84 175.19 251.18 152.01 243.88 131.86Z" fill="#FDCE51" fill-opacity="1.000000" fill-rule="nonzero"/>
		<path id="Vector" d="M250.19 165.62C250.2 165.59 250.2 165.56 250.19 165.53C249.4 155.2 247.46 144.98 244.4 135.07C244.4 135.04 244.34 135.05 244.35 135.07C245.53 139.5 246.58 143.96 247.49 148.43C246.68 147.67 245.7 147.13 244.63 146.85C244.63 146.85 244.61 146.85 244.63 146.88C245.76 147.29 246.77 147.96 247.58 148.84C247.75 149.72 247.92 150.6 248.06 151.48C246.73 149.99 244.87 149.25 243.03 148.54C243 148.54 242.99 148.58 243.03 148.59C244.95 149.37 246.87 150.38 248.18 152.04C248.63 154.55 249.03 157.07 249.38 159.61C248.41 158.6 247.18 157.89 245.82 157.57C245.78 157.57 245.75 157.62 245.8 157.63C247.2 158.03 248.45 158.84 249.41 159.94C249.53 160.84 249.64 161.72 249.75 162.62C249 161.99 248.16 161.48 247.25 161.11C247.23 161.11 247.21 161.14 247.25 161.15C248.18 161.55 249.02 162.11 249.75 162.8L249.78 162.8C249.88 163.65 249.98 164.5 250.06 165.35C248.72 163.72 246.98 162.48 245 161.74C244.97 161.74 244.95 161.78 245 161.8C246.95 162.66 248.66 163.97 249.99 165.64C250.01 165.65 250.03 165.67 250.05 165.68C250.07 165.68 250.09 165.68 250.12 165.67C250.25 166.98 250.36 168.28 250.46 169.59L250.49 169.59C250.39 168.29 250.3 166.95 250.19 165.62Z" fill="#263238" fill-opacity="1.000000" fill-rule="nonzero"/>
		<path id="Vector" d="M245.42 145.35C244.34 144.67 243.11 144.29 241.84 144.23C241.83 144.23 241.82 144.23 241.82 144.23C241.82 144.24 241.81 144.24 241.81 144.25C241.81 144.26 241.82 144.26 241.82 144.27C241.82 144.27 241.83 144.27 241.84 144.27C243.06 144.5 244.26 144.89 245.38 145.43C245.42 145.46 245.44 145.38 245.42 145.35Z" fill="#263238" fill-opacity="1.000000" fill-rule="nonzero"/>
		<path id="Vector" d="M246.12 161.38C245.29 160.91 244.38 160.6 243.43 160.47C243.43 160.47 243.42 160.47 243.42 160.47C243.42 160.47 243.42 160.47 243.41 160.47C243.41 160.47 243.41 160.48 243.41 160.48C243.41 160.48 243.41 160.49 243.41 160.49C243.41 160.49 243.41 160.5 243.41 160.5C243.41 160.5 243.41 160.5 243.41 160.51C243.42 160.51 243.42 160.51 243.42 160.51C243.42 160.51 243.43 160.51 243.43 160.51C244.36 160.7 245.25 161.02 246.09 161.45C246.12 161.47 246.16 161.41 246.12 161.38Z" fill="#263238" fill-opacity="1.000000" fill-rule="nonzero"/>
		<path id="Vector" d="M266.98 150.81C264.45 152.56 262.14 154.59 260.07 156.87C257.94 159.26 256.3 162.05 255.23 165.08C252.96 171.38 251.75 178.01 251.62 184.71C251.54 188.41 251.9 192.12 252.68 195.75C252.69 195.77 252.71 195.79 252.73 195.81C252.75 195.82 252.78 195.82 252.81 195.82C252.83 195.81 252.85 195.8 252.87 195.78C252.89 195.76 252.89 195.73 252.89 195.71C251.92 189.3 251.95 182.79 253 176.4C254.02 170.16 255.64 163.32 259.62 158.22C261.79 155.45 264.49 153.27 267.16 151.02C267.3 150.91 267.12 150.71 266.98 150.81Z" fill="#FDCE51" fill-opacity="1.000000" fill-rule="nonzero"/>
		<path id="Vector" d="M252.5 180.2C253.93 177.87 255.62 175.72 257.53 173.76C260.52 170.78 263.03 168.66 263.42 166.68C263.8 164.7 260.43 163.25 260.43 163.25C260.43 163.25 264.56 164 265.71 162.27C266.86 160.53 267.39 150.49 267.39 150.49C267.39 150.49 259.87 155.86 256.35 163.37C252.82 170.89 252.5 180.2 252.5 180.2Z" fill="#FDCE51" fill-opacity="1.000000" fill-rule="nonzero"/>
		<path id="Vector" d="" fill="#263238" fill-opacity="1.000000" fill-rule="nonzero"/>
		<path id="Vector" d="M264.68 159.91C264.19 159.84 263.69 159.82 263.19 159.86C263.13 159.86 263.13 159.96 263.19 159.96C263.67 159.96 264.18 159.96 264.67 159.96C264.68 159.96 264.68 159.96 264.69 159.95C264.69 159.95 264.7 159.95 264.7 159.94C264.7 159.93 264.7 159.93 264.7 159.92C264.69 159.92 264.69 159.91 264.68 159.91Z" fill="#263238" fill-opacity="1.000000" fill-rule="nonzero"/>
		<path id="Vector" d="M259.27 169.65C258.48 169.67 257.69 169.83 256.96 170.13C256.96 170.13 256.96 170.17 256.96 170.16C257.72 169.98 258.49 169.91 259.26 169.78C259.34 169.75 259.34 169.65 259.27 169.65Z" fill="#263238" fill-opacity="1.000000" fill-rule="nonzero"/>
		<path id="Vector" d="M257.65 166.28C257.32 166.28 256.99 166.31 256.67 166.37C256.66 166.37 256.65 166.38 256.65 166.38C256.64 166.39 256.64 166.4 256.64 166.4C256.64 166.41 256.64 166.42 256.65 166.42C256.65 166.43 256.66 166.43 256.67 166.43C257 166.45 257.33 166.43 257.65 166.38C257.66 166.38 257.67 166.37 257.68 166.36C257.69 166.36 257.69 166.34 257.69 166.33C257.69 166.32 257.69 166.31 257.68 166.3C257.67 166.29 257.66 166.29 257.65 166.28Z" fill="#263238" fill-opacity="1.000000" fill-rule="nonzero"/>
		<path id="Vector" d="M230.47 161.47C232.92 162.3 235.26 163.4 237.45 164.76C239.73 166.21 241.71 168.1 243.27 170.31C246.57 174.89 249.09 179.97 250.74 185.37C251.65 188.35 252.22 191.44 252.43 194.56C252.42 194.58 252.41 194.59 252.39 194.61C252.38 194.62 252.36 194.63 252.34 194.63C252.32 194.63 252.3 194.62 252.28 194.61C252.26 194.59 252.25 194.58 252.25 194.56C251.56 189.15 250.02 183.89 247.7 178.95C245.42 174.12 242.54 168.98 238.15 165.77C235.75 164.03 233.06 162.89 230.37 161.68C230.23 161.62 230.33 161.42 230.47 161.47Z" fill="#FDCE51" fill-opacity="1.000000" fill-rule="nonzero"/>
		<path id="Vector" d="M248.98 181.9C247.28 180.35 245.42 179 243.42 177.86C240.31 176.13 237.79 174.98 237.02 173.49C236.24 172 238.64 170.03 238.64 170.03C238.64 170.03 235.48 171.58 234.16 170.44C232.85 169.3 230.08 161.32 230.08 161.32C230.08 161.32 237.4 163.93 241.98 169.2C246.55 174.48 248.98 181.9 248.98 181.9Z" fill="#FDCE51" fill-opacity="1.000000" fill-rule="nonzero"/>
		<path id="Vector" d="M248.6 180.25C244.94 173.38 240.05 167.16 233.35 163.06C235.1 164.18 236.74 165.47 238.25 166.9C236.89 166.82 235.53 167.11 234.31 167.73C234.29 167.73 234.31 167.78 234.34 167.77C235.63 167.28 237.01 167.05 238.39 167.09C238.4 167.09 238.42 167.09 238.43 167.09L239.14 167.77C238.43 167.8 237.72 167.9 237.03 168.05C237.03 168.05 237.03 168.08 237.03 168.08C237.76 167.94 238.51 167.88 239.25 167.9C240.48 169.14 241.63 170.45 242.71 171.82C242.21 171.75 241.71 171.79 241.23 171.92C241.22 171.92 241.22 171.93 241.21 171.93C241.21 171.94 241.2 171.94 241.2 171.95C241.2 171.96 241.21 171.97 241.21 171.97C241.22 171.98 241.22 171.98 241.23 171.98C241.75 171.92 242.28 171.91 242.8 171.96C243 172.21 243.2 172.47 243.4 172.72C241.91 172.63 240.41 172.78 238.96 173.16C238.96 173.16 238.96 173.2 238.96 173.19C240.46 172.9 241.99 172.8 243.52 172.89C243.71 173.14 243.89 173.37 244.07 173.65C243.18 173.62 242.29 173.73 241.42 173.95C241.39 173.95 241.4 174.01 241.42 174C242.32 173.81 243.24 173.74 244.16 173.79C244.95 174.88 245.71 175.98 246.43 177.11C246.04 177.04 245.64 177.06 245.27 177.17C245.27 177.17 245.27 177.21 245.27 177.21C245.69 177.18 246.11 177.2 246.53 177.27C247.18 178.28 247.81 179.31 248.41 180.34C248.51 180.41 248.65 180.34 248.6 180.25Z" fill="#263238" fill-opacity="1.000000" fill-rule="nonzero"/>
		<path id="Vector" d="M242.9 174.55C242.18 174.5 241.46 174.59 240.78 174.81C240.78 174.81 240.78 174.85 240.78 174.84C241.48 174.72 242.18 174.65 242.89 174.63C242.95 174.63 242.95 174.55 242.9 174.55Z" fill="#263238" fill-opacity="1.000000" fill-rule="nonzero"/>
		<path id="Vector" d="M236.52 166.17C236.2 166.15 235.87 166.17 235.56 166.23C235.52 166.23 235.53 166.29 235.56 166.29C235.88 166.25 236.2 166.29 236.52 166.26C236.53 166.26 236.54 166.25 236.55 166.25C236.56 166.24 236.56 166.23 236.56 166.22C236.56 166.2 236.56 166.19 236.55 166.18C236.54 166.18 236.53 166.17 236.52 166.17Z" fill="#263238" fill-opacity="1.000000" fill-rule="nonzero"/>
		<path id="Vector" d="M258.43 204.63L241.9 204.63L244.25 187.37L244.86 182.94L255.46 182.94L256.07 187.37L258.43 204.63Z" fill="#455A64" fill-opacity="1.000000" fill-rule="nonzero"/>
		<path id="Vector" d="M256.07 187.37L244.25 187.37L244.86 182.94L255.46 182.94L256.07 187.37Z" fill="#263238" fill-opacity="1.000000" fill-rule="nonzero"/>
		<path id="Vector" d="M243.34 181.41L256.98 181.41L256.98 185.16L243.34 185.16L243.34 181.41Z" fill="#455A64" fill-opacity="1.000000" fill-rule="evenodd"/>
	</g>
</svg>
