<svg width="255.000000" height="96.000000" viewBox="0 0 255 96" fill="none" xmlns="http://www.w3.org/2000/svg" xmlns:xlink="http://www.w3.org/1999/xlink">
	<desc>
			Created with Pixso.
	</desc>
	<defs>
		<clipPath id="clip5269_37331">
			<rect id="Logo" rx="0.000000" width="59.750000" height="59.750000" transform="translate(0.125000 18.125000)" fill="white" fill-opacity="0"/>
		</clipPath>
	</defs>
	<rect id="Logo" rx="0.000000" width="254.000000" height="95.000000" transform="translate(0.500000 0.500000)" fill="#F5F5F5" fill-opacity="1.000000"/>
	<g clip-path="url(#clip5269_37331)">
		<path id="Union" d="M14.3447 25.6965L15.5645 22.7197L16.2192 21.1211L17.4346 18.1552C17.4868 18.0275 17.6328 17.9664 17.7607 18.0188L34.9819 25.0816C35.0503 25.1098 35.103 25.167 35.1255 25.2379L37.6294 33.1915C37.6377 33.2176 37.6416 33.2433 37.6416 33.2683C37.6416 33.437 37.4668 33.5678 37.2954 33.4976L16.6963 24.9692C16.624 24.9397 16.543 24.9448 16.4756 24.9836L14.7007 26.0079C14.5254 26.1093 14.3252 25.9723 14.3252 25.7933C14.3252 25.7619 14.3311 25.7293 14.3447 25.6965ZM34.6958 21.1637L37.6631 19.9235L39.2563 19.2575L42.2129 18.0219C42.3403 17.9687 42.4868 18.0288 42.5396 18.1562L49.7144 35.3381C49.7271 35.3689 49.7339 35.4017 49.7339 35.4344C49.7339 35.4742 49.7241 35.5139 49.7051 35.5501L45.8501 42.943C45.752 43.1313 45.479 43.119 45.3975 42.9231L36.8721 22.3142C36.8423 22.2425 36.7812 22.1886 36.7061 22.1684L34.7271 21.6359C34.6055 21.6031 34.542 21.4986 34.542 21.3938C34.542 21.3005 34.5923 21.207 34.6958 21.1637ZM3.16943 43.306L1.92578 40.339L1.2583 38.7457L0.0195312 35.7895C0.00634766 35.758 0 35.7252 0 35.693C0 35.5953 0.0576172 35.5024 0.15332 35.4623L17.3179 28.2626C17.3862 28.2339 17.4639 28.2371 17.5298 28.2714L24.9243 32.1192C25.0146 32.1662 25.0591 32.2533 25.0591 32.3404C25.0591 32.4348 25.0068 32.5292 24.9048 32.572L4.31641 41.1274C4.24512 41.1575 4.19092 41.2187 4.1709 41.2938L3.64111 43.2738C3.57959 43.5042 3.26123 43.5258 3.16943 43.306ZM52.2036 32.2541L55.1836 33.4631L56.7842 34.1123L59.7529 35.3168C59.8501 35.3562 59.9092 35.4498 59.9092 35.5486C59.9092 35.5799 59.9033 35.6117 59.8906 35.6425L52.897 52.8987C52.8691 52.9674 52.812 53.0203 52.7412 53.0429L44.8013 55.5783C44.6318 55.6323 44.4746 55.5005 44.4746 55.3407C44.4746 55.3096 44.4805 55.2774 44.4937 55.2453L52.9399 34.6038C52.9521 34.5733 52.9585 34.5411 52.9585 34.509C52.9585 34.4654 52.9468 34.422 52.9243 34.3834L51.8936 32.6115C51.8696 32.5698 51.8589 32.5268 51.8589 32.4854C51.8589 32.3216 52.0273 32.1825 52.2036 32.2541ZM22.499 49.1397L30.9487 39L30 46.5897L36.918 46.5897C37.4351 46.5897 37.6934 46.5897 37.8237 46.6951C37.9355 46.7852 38 46.9209 38 47.064L38 47.0712C37.9976 47.2389 37.832 47.4375 37.501 47.8346L29.0513 57.9743L30 50.3846L23.082 50.3846C22.5649 50.3846 22.3066 50.3846 22.1763 50.2791C22.0645 50.189 22 50.0534 22 49.9102L22 49.903C22.0024 49.7354 22.168 49.5368 22.499 49.1397ZM7.72559 63.661L4.74854 62.4445L3.1499 61.7912L0.184082 60.5792C0.0874023 60.5396 0.0283203 60.4462 0.0283203 60.3476C0.0283203 60.3161 0.034668 60.2841 0.0473633 60.2532L7.08496 43.0148C7.11279 42.946 7.16992 42.8933 7.24072 42.8709L15.1875 40.3556C15.3564 40.3021 15.5132 40.4339 15.5132 40.5934C15.5132 40.6247 15.5068 40.6571 15.4937 40.6894L6.99561 61.3094C6.98291 61.3401 6.97705 61.3726 6.97705 61.4049C6.97705 61.4482 6.98828 61.4914 7.01025 61.5299L8.03662 63.3044C8.06055 63.3459 8.07129 63.3887 8.07129 63.43C8.07129 63.594 7.90186 63.7331 7.72559 63.661ZM56.811 52.5976L58.062 55.5613L58.7339 57.153L59.98 60.106C59.9932 60.1377 59.9995 60.1707 59.9995 60.2031C59.9995 60.3006 59.9424 60.3933 59.8467 60.4336L42.7007 67.6767C42.6323 67.7056 42.5547 67.7026 42.4888 67.6685L35.0845 63.8394C34.9937 63.7925 34.9492 63.7052 34.9492 63.618C34.9492 63.5237 35.0015 63.4295 35.103 63.3866L55.6694 54.779C55.7407 54.7488 55.7949 54.6874 55.8145 54.6123L56.3394 52.6309C56.4004 52.4004 56.7183 52.3779 56.811 52.5976ZM25.3413 74.8196L22.377 76.0673L20.7852 76.7373L17.8325 77.9804C17.7051 78.034 17.5586 77.9742 17.5049 77.8469L10.2871 60.6833C10.2739 60.6523 10.2676 60.6193 10.2676 60.5864C10.2676 60.5468 10.2769 60.5073 10.2954 60.4713L14.1318 53.0686C14.2295 52.8801 14.5024 52.8917 14.5845 53.0874L23.1621 73.6746C23.1924 73.7462 23.2534 73.8 23.3286 73.82L25.3086 74.3475C25.4307 74.38 25.4941 74.4848 25.4941 74.5898C25.4941 74.6828 25.4443 74.7761 25.3413 74.8196ZM45.6807 70.2353L44.4683 73.2151L43.8174 74.8154L42.6099 77.7844C42.5576 77.9123 42.4116 77.9737 42.2842 77.9217L25.0449 70.9025C24.9761 70.8745 24.9233 70.8174 24.9009 70.7466L22.377 62.7993C22.3682 62.773 22.3647 62.7471 22.3647 62.722C22.3647 62.5535 22.5391 62.4227 22.71 62.4924L43.3311 70.9686C43.4028 70.9979 43.4844 70.9926 43.5513 70.9536L45.3232 69.9248C45.499 69.8228 45.6997 69.9597 45.6997 70.1391C45.6997 70.1702 45.6938 70.2026 45.6807 70.2353Z" clip-rule="evenodd" fill="#FDCE51" fill-opacity="1.000000" fill-rule="evenodd"/>
	</g>
	<path id="Энергорешения" d="M79.51 48.22C75.61 48.22 73.45 45.97 73.18 42.83L76.1 42.83C76.29 44.81 77.31 45.85 79.51 45.85C81.89 45.85 82.96 44.06 83.1 41.37L77.63 41.37L77.63 38.99L83.12 38.99C83.04 35.96 81.79 34.19 79.44 34.19C77.14 34.19 76.28 35.34 76.08 37.27L73.17 37.27C73.48 34.14 75.5 31.77 79.44 31.77C83.46 31.77 86.01 34.71 86.01 39.28L86.01 40.76C86.01 45.33 83.52 48.22 79.51 48.22ZM112.12 44.78C111.62 46.86 109.7 48.23 106.9 48.23C103.28 48.23 101.08 45.83 101.08 42.07C101.08 38.36 103.32 35.84 106.75 35.84C109.71 35.84 112.24 37.69 112.24 41.9L112.24 42.77L103.88 42.77C103.9 44.82 105.12 46.02 106.94 46.02C108.16 46.02 109.1 45.5 109.48 44.48L112.12 44.78ZM117.46 52.5L114.63 52.5L114.63 36L117.41 36L117.41 37.98L117.57 37.98C118 37.11 118.88 35.84 121 35.84C123.78 35.84 125.96 38.01 125.96 42.01C125.96 45.96 123.84 48.2 121.01 48.2C118.95 48.2 118.02 46.98 117.57 46.1L117.46 46.1L117.46 52.5ZM149.05 42.04C149.05 45.76 146.82 48.23 143.3 48.23C139.79 48.23 137.55 45.76 137.55 42.04C137.55 38.32 139.79 35.84 143.3 35.84C146.82 35.84 149.05 38.32 149.05 42.04ZM154.27 52.5L151.44 52.5L151.44 36L154.22 36L154.22 37.98L154.39 37.98C154.82 37.11 155.7 35.84 157.81 35.84C160.59 35.84 162.77 38.01 162.77 42.01C162.77 45.96 160.65 48.2 157.82 48.2C155.76 48.2 154.83 46.98 154.39 46.1L154.27 46.1L154.27 52.5ZM175.71 44.78C175.21 46.86 173.29 48.23 170.5 48.23C166.88 48.23 164.67 45.83 164.67 42.07C164.67 38.36 166.91 35.84 170.35 35.84C173.3 35.84 175.83 37.69 175.83 41.9L175.83 42.77L167.47 42.77C167.5 44.82 168.71 46.02 170.54 46.02C171.75 46.02 172.69 45.5 173.08 44.48L175.71 44.78ZM207.33 44.78C206.83 46.86 204.91 48.23 202.11 48.23C198.49 48.23 196.29 45.83 196.29 42.07C196.29 38.36 198.53 35.84 201.96 35.84C204.92 35.84 207.45 37.69 207.45 41.9L207.45 42.77L199.09 42.77C199.11 44.82 200.33 46.02 202.15 46.02C203.37 46.02 204.31 45.5 204.69 44.48L207.33 44.78ZM88.64 36L91.36 36L91.36 40.82L96.01 40.82L96.01 36L98.73 36L98.73 48L96.01 48L96.01 43.14L91.36 43.14L91.36 48L88.64 48L88.64 36ZM128.37 36L136.31 36L136.31 38.32L131.13 38.32L131.13 48L128.37 48L128.37 36ZM178.22 48L178.22 36L180.95 36L180.95 45.67L184.72 45.67L184.72 36L187.45 36L187.45 45.67L191.22 45.67L191.22 36L193.95 36L193.95 48L178.22 48ZM209.84 36L212.56 36L212.56 40.82L217.22 40.82L217.22 36L219.93 36L219.93 48L217.22 48L217.22 43.14L212.56 43.14L212.56 48L209.84 48L209.84 36ZM225.52 36L225.52 44.17L230.33 36L233.23 36L233.23 48L230.5 48L230.5 39.81L225.71 48L222.79 48L222.79 36L225.52 36ZM245.87 48L243.22 48L243.22 43.48L240.71 43.48L238.25 48L235.47 48L238.16 43.06C236.73 42.47 235.9 41.32 235.91 39.81C235.9 37.51 237.72 36 240.66 36L245.87 36L245.87 48ZM106.79 38.04C105.1 38.04 103.97 39.33 103.89 40.86L109.52 40.86C109.51 39.23 108.42 38.04 106.79 38.04ZM170.38 38.04C168.7 38.04 167.56 39.33 167.48 40.86L173.12 40.86C173.1 39.23 172.01 38.04 170.38 38.04ZM202 38.04C200.32 38.04 199.18 39.33 199.1 40.86L204.74 40.86C204.72 39.23 203.63 38.04 202 38.04ZM140.42 42.03C140.42 44.23 141.37 45.96 143.32 45.96C145.23 45.96 146.18 44.23 146.18 42.03C146.18 39.84 145.23 38.08 143.32 38.08C141.37 38.08 140.42 39.84 140.42 42.03ZM120.22 38.16C118.4 38.16 117.4 39.66 117.4 42C117.4 44.32 118.42 45.88 120.22 45.88C122.09 45.88 123.07 44.25 123.07 42C123.07 39.76 122.11 38.16 120.22 38.16ZM157.03 38.16C155.21 38.16 154.21 39.66 154.21 42C154.21 44.32 155.23 45.88 157.03 45.88C158.9 45.88 159.89 44.25 159.89 42C159.89 39.76 158.92 38.16 157.03 38.16ZM240.57 41.42L243.22 41.42L243.22 38.29L240.66 38.29C239.36 38.29 238.63 38.97 238.64 39.87C238.63 40.77 239.32 41.42 240.57 41.42Z" fill="#1E1E1E" fill-opacity="1.000000" fill-rule="evenodd"/>
	<path id="Эффективность в каждом шаге" d="M75.64 67.11C73.73 67.11 72.82 65.96 72.65 64.49L73.65 64.49C73.82 65.62 74.34 66.25 75.64 66.25C76.99 66.25 77.69 64.99 77.71 63.53L74.56 63.53L74.56 62.67L77.71 62.67L77.71 62.56C77.71 60.9 76.9 59.76 75.54 59.76C74.36 59.76 73.81 60.42 73.65 61.53L72.65 61.53C72.81 59.99 73.75 58.88 75.54 58.88C77.5 58.88 78.71 60.34 78.71 62.54L78.71 63.46C78.71 65.67 77.5 67.11 75.64 67.11ZM83.57 69.04L82.65 69.04L82.65 67.12C81.03 67.12 79.93 65.89 79.93 64.03C79.93 62.15 81.03 60.92 82.65 60.92L82.65 58.99L83.57 58.99L83.57 60.92C85.2 60.92 86.29 62.15 86.29 64.03C86.29 65.89 85.2 67.12 83.57 67.12L83.57 69.04ZM91.06 69.04L90.14 69.04L90.14 67.12C88.51 67.12 87.42 65.89 87.42 64.03C87.42 62.15 88.51 60.92 90.14 60.92L90.14 58.99L91.06 58.99L91.06 60.92C92.68 60.92 93.78 62.15 93.78 64.03C93.78 65.89 92.68 67.12 91.06 67.12L91.06 69.04ZM100.09 65.6C99.81 66.51 98.92 67.12 97.7 67.12C95.96 67.12 94.9 65.89 94.9 64.04C94.9 62.2 95.98 60.92 97.6 60.92C98.85 60.92 100.18 61.68 100.18 63.92L100.18 64.31L95.83 64.31C95.87 65.59 96.62 66.29 97.7 66.29C98.42 66.29 98.96 65.98 99.2 65.35L100.09 65.6ZM137.67 64.03C137.67 65.89 136.57 67.12 134.95 67.12C133.32 67.12 132.23 65.89 132.23 64.03C132.23 62.15 133.32 60.92 134.95 60.92C136.57 60.92 137.67 62.15 137.67 64.03ZM143.87 65.24C143.71 66.31 142.84 67.12 141.51 67.12C139.82 67.12 138.79 65.82 138.79 64.03C138.79 62.2 139.87 60.92 141.5 60.92C142.76 60.92 143.71 61.67 143.87 62.79L142.95 62.79C142.81 62.24 142.32 61.74 141.51 61.74C140.43 61.74 139.71 62.64 139.71 64C139.71 65.39 140.42 66.29 141.51 66.29C142.23 66.29 142.78 65.9 142.95 65.24L143.87 65.24ZM178.87 66.18C178.68 66.57 178.13 67.13 177.09 67.13C175.95 67.13 175.04 66.46 175.04 65.29C175.04 63.92 176.26 63.67 177.37 63.53C178.47 63.39 178.92 63.43 178.92 62.98L178.92 62.95C178.92 62.18 178.5 61.73 177.65 61.73C176.77 61.73 176.29 62.2 176.09 62.64L175.21 62.32C175.68 61.23 176.71 60.92 177.62 60.92C178.39 60.92 179.84 61.14 179.84 63.04L179.84 67L178.92 67L178.92 66.18L178.87 66.18ZM202.64 64.03C202.64 65.89 201.54 67.12 199.92 67.12C198.29 67.12 197.2 65.89 197.2 64.03C197.2 62.15 198.29 60.92 199.92 60.92C201.54 60.92 202.64 62.15 202.64 64.03ZM227.92 66.18C227.73 66.57 227.18 67.13 226.14 67.13C225 67.13 224.09 66.46 224.09 65.29C224.09 63.92 225.3 63.67 226.42 63.53C227.51 63.39 227.96 63.43 227.96 62.98L227.96 62.95C227.96 62.18 227.55 61.73 226.7 61.73C225.82 61.73 225.34 62.2 225.14 62.64L224.26 62.32C224.73 61.23 225.76 60.92 226.67 60.92C227.43 60.92 228.89 61.14 228.89 63.04L228.89 67L227.96 67L227.96 66.18L227.92 66.18ZM240.21 65.6C239.93 66.51 239.04 67.12 237.82 67.12C236.09 67.12 235.03 65.89 235.03 64.04C235.03 62.2 236.11 60.92 237.73 60.92C238.98 60.92 240.31 61.68 240.31 63.92L240.31 64.31L235.95 64.31C236 65.59 236.74 66.29 237.82 66.29C238.55 66.29 239.09 65.98 239.32 65.35L240.21 65.6ZM102.51 67L101.59 67L101.59 61L102.51 61L102.51 63.6L103.12 63.6L105.28 61L106.46 61L104.04 63.89L106.5 67L105.31 67L103.34 64.46L102.51 64.46L102.51 67ZM109.14 61.85L107.15 61.85L107.15 61L112.03 61L112.03 61.85L110.06 61.85L110.06 67L109.14 67L109.14 61.85ZM114.29 61L114.29 65.64L117.18 61L118.24 61L118.24 67L117.32 67L117.32 62.35L114.45 67L113.37 67L113.37 61L114.29 61ZM122.76 67L119.93 67L119.93 61L122.39 61C123.68 61 124.5 61.63 124.5 62.59C124.5 63.32 124.01 63.7 123.34 63.84C124 63.94 124.72 64.44 124.72 65.39C124.72 66.31 123.98 67 122.76 67ZM126.1 61L127.03 61L127.03 63.57L129.9 63.57L129.9 61L130.82 61L130.82 67L129.9 67L129.9 64.43L127.03 64.43L127.03 67L126.1 67L126.1 61ZM146.73 61.85L144.75 61.85L144.75 61L149.62 61L149.62 61.85L147.65 61.85L147.65 67L146.73 67L146.73 61.85ZM151.88 61L151.88 63.17L153.48 63.17C154.89 63.17 155.65 63.96 155.65 65.06C155.65 66.14 154.89 67 153.48 67L150.96 67L150.96 61L151.88 61ZM162.98 67L160.15 67L160.15 61L162.61 61C163.89 61 164.71 61.63 164.71 62.59C164.71 63.32 164.23 63.7 163.56 63.84C164.22 63.94 164.93 64.44 164.93 65.39C164.93 66.31 164.2 67 162.98 67ZM170.34 67L169.42 67L169.42 61L170.34 61L170.34 63.6L170.95 63.6L173.1 61L174.29 61L171.87 63.89L174.32 67L173.14 67L171.17 64.46L170.34 64.46L170.34 67ZM182.26 67L181.15 67L183.59 63.95L181.18 61L182.28 61L184.28 63.56L184.78 63.56L184.78 61L185.7 61L185.7 63.56L186.18 63.56L188.18 61L189.28 61L186.89 63.95L189.31 67L188.2 67L186.17 64.42L185.7 64.42L185.7 67L184.78 67L184.78 64.42L184.31 64.42L182.26 67ZM190.9 68.71L189.98 68.71L189.98 66.14L190.48 66.14C190.96 65.63 191.18 65.05 191.32 63.37L191.53 61L195.34 61L195.34 66.14L196.26 66.14L196.26 68.71L195.34 68.71L195.34 67L190.9 67L190.9 68.71ZM205.26 61L207.32 65.75L209.42 61L210.61 61L210.61 67L209.68 67L209.68 62.41L207.7 67L206.95 67L204.96 62.32L204.96 67L204.04 67L204.04 61L205.26 61ZM215.39 67L215.39 61L216.31 61L216.31 66.14L218.57 66.14L218.57 61L219.49 61L219.49 66.14L221.76 66.14L221.76 61L222.68 61L222.68 67L215.39 67ZM230.57 61L234.28 61L234.28 61.85L231.49 61.85L231.49 67L230.57 67L230.57 61ZM80.86 64.03C80.86 65.23 81.42 66.29 82.65 66.29L82.65 61.74C81.42 61.74 80.86 62.82 80.86 64.03ZM83.57 61.74L83.57 66.29C84.81 66.29 85.37 65.23 85.37 64.03C85.37 62.82 84.81 61.74 83.57 61.74ZM88.34 64.03C88.34 65.23 88.9 66.29 90.14 66.29L90.14 61.74C88.9 61.74 88.34 62.82 88.34 64.03ZM91.06 61.74L91.06 66.29C92.29 66.29 92.85 65.23 92.85 64.03C92.85 62.82 92.29 61.74 91.06 61.74ZM97.6 61.74C96.55 61.74 95.89 62.58 95.83 63.51L99.25 63.51C99.25 62.49 98.6 61.74 97.6 61.74ZM133.15 64.03C133.15 65.23 133.71 66.29 134.95 66.29C136.18 66.29 136.75 65.23 136.75 64.03C136.75 62.82 136.18 61.74 134.95 61.74C133.71 61.74 133.15 62.82 133.15 64.03ZM198.12 64.03C198.12 65.23 198.68 66.29 199.92 66.29C201.15 66.29 201.71 65.23 201.71 64.03C201.71 62.82 201.15 61.74 199.92 61.74C198.68 61.74 198.12 62.82 198.12 64.03ZM237.73 61.74C236.67 61.74 236.01 62.58 235.95 63.51L239.37 63.51C239.37 62.49 238.73 61.74 237.73 61.74ZM120.81 61.84L120.81 63.51L122.39 63.51C123.13 63.51 123.57 63.19 123.57 62.65C123.57 62.15 123.13 61.84 122.39 61.84L120.81 61.84ZM161.03 61.84L161.03 63.51L162.61 63.51C163.34 63.51 163.79 63.19 163.79 62.65C163.79 62.15 163.34 61.84 162.61 61.84L161.03 61.84ZM192.23 63.37C192.1 64.62 191.95 65.58 191.53 66.14L194.42 66.14L194.42 61.85L192.39 61.85L192.23 63.37ZM175.96 65.34C175.96 65.98 176.5 66.31 177.23 66.31C178.32 66.31 178.92 65.57 178.92 64.82L178.92 63.98C178.76 64.17 177.71 64.28 177.32 64.32C176.6 64.42 175.96 64.63 175.96 65.34ZM225.01 65.34C225.01 65.98 225.54 66.31 226.28 66.31C227.37 66.31 227.96 65.57 227.96 64.82L227.96 63.98C227.81 64.17 226.76 64.28 226.37 64.32C225.65 64.42 225.01 64.63 225.01 65.34ZM153.48 64.03L151.88 64.03L151.88 66.14L153.48 66.14C154.21 66.14 154.73 65.71 154.73 65.1C154.73 64.47 154.21 64.03 153.48 64.03ZM120.81 64.31L120.81 66.15L122.76 66.15C123.39 66.15 123.78 65.83 123.78 65.31C123.78 64.69 123.39 64.31 122.76 64.31L120.81 64.31ZM161.03 64.31L161.03 66.15L162.98 66.15C163.61 66.15 163.99 65.83 163.99 65.31C163.99 64.69 163.61 64.31 162.98 64.31L161.03 64.31Z" fill="#969696" fill-opacity="1.000000" fill-rule="evenodd"/>
</svg>
