<svg width="180.388184" height="61.973633" viewBox="0 0 180.388 61.9736" fill="none" xmlns="http://www.w3.org/2000/svg" xmlns:xlink="http://www.w3.org/1999/xlink">
	<desc>
			Created with Pixso.
	</desc>
	<defs/>
	<path id="Vector" d="M0.98 0.98L0.98 60.98L66.43 60.98L66.43 0.98L0.98 0.98Z" stroke="#C2C2C2" stroke-opacity="1.000000" stroke-width="1.972000"/>
	<path id="Vector" d="M23.99 5.45L20.55 5.45C20.55 12.62 14.06 18.43 6.04 18.43L6.04 21.53C15.96 21.5 23.99 14.33 23.99 5.45Z" fill="#C2C2C2" fill-opacity="1.000000" fill-rule="nonzero"/>
	<path id="Vector" d="M27.64 5.41L61.73 51.36L61.73 5.41L27.64 5.41Z" fill="#C2C2C2" fill-opacity="1.000000" fill-rule="nonzero"/>
	<path id="Vector" d="M57.61 56.4L58.97 56.4L14.5 23.43C15.84 22.91 17.12 22.25 18.33 21.46L58.18 54.14L21.17 19.31C23.13 17.56 24.71 15.42 25.79 13.03C26.88 10.64 27.45 8.04 27.47 5.41L24.81 5.41C24.81 14.73 16.69 22.31 6.56 22.6L57.61 56.4Z" fill="#C2C2C2" fill-opacity="1.000000" fill-rule="nonzero"/>
	<path id="Vector" d="M6.04 24.15L6.04 25.03L6.04 56.4L57.54 56.4L6.04 24.15Z" fill="#C2C2C2" fill-opacity="1.000000" fill-rule="nonzero"/>
	<path id="Vector" d="M75.61 6.11L74.78 6.11L74.78 5.37L72.29 5.37L72.29 6.11L71.46 6.11L71.46 3.48C71.46 2.74 71.87 2.37 72.7 2.37L74.36 2.37C75.19 2.37 75.61 2.74 75.61 3.48L75.61 6.11ZM74.78 4.63L74.78 3.48C74.78 3.23 74.64 3.12 74.36 3.12L72.7 3.12C72.43 3.12 72.29 3.23 72.29 3.48L72.29 4.63L74.78 4.63ZM81.21 6.11L80.15 6.11L78.82 4.63L77.88 4.63L77.88 6.11L77.06 6.11L77.06 2.41L77.88 2.41L77.88 3.89L78.82 3.89L80.15 2.41L81.21 2.41L79.54 4.26L81.21 6.11ZM86.59 2.41L85.77 2.41L85.77 5.37L83.28 5.37L83.28 2.41L82.45 2.41L82.45 6.11L86.18 6.11L86.18 6.85L87.01 6.85L87.01 5.37L86.59 5.37L86.59 2.41ZM92.6 2.41L91.78 2.41L89.29 4.99L89.29 2.41L88.46 2.41L88.46 6.11L89.29 6.11L91.78 3.52L91.78 6.11L92.6 6.11L92.6 2.41ZM98.21 5.06C98.21 5.8 97.79 6.17 96.96 6.17L95.3 6.17C94.48 6.17 94.06 5.8 94.06 5.06L94.06 3.48C94.06 2.74 94.48 2.37 95.3 2.37L96.96 2.37C97.79 2.37 98.21 2.74 98.21 3.48L98.21 5.06ZM97.37 5.06L97.37 3.48C97.37 3.23 97.24 3.12 96.96 3.12L95.3 3.12C95.03 3.12 94.89 3.23 94.89 3.48L94.89 5.08C94.89 5.33 95.03 5.46 95.3 5.46L96.96 5.46C97.21 5.43 97.37 5.31 97.37 5.06ZM103.8 6.09L102.97 6.09L102.97 4.63L100.49 4.63L100.49 6.11L99.66 6.11L99.66 2.41L100.49 2.41L100.49 3.89L102.97 3.89L102.97 2.41L103.8 2.41L103.8 6.09ZM109.4 3.14L106.08 3.14L106.08 3.89L108.57 3.89L108.57 4.63L106.08 4.63L106.08 5.37L109.4 5.37L109.4 6.11L105.28 6.11L105.28 2.41L109.4 2.41L109.4 3.14ZM115 3.5L115 3.87C115 4.61 114.59 4.99 113.76 4.99L111.7 4.99L111.7 6.09L110.87 6.09L110.87 2.41L113.78 2.41C114.59 2.41 115 2.78 115 3.52L115 3.5ZM114.17 3.5C114.17 3.26 114.03 3.14 113.76 3.14L111.7 3.14L111.7 4.26L113.76 4.26C114.03 4.26 114.17 4.13 114.17 3.89L114.17 3.5ZM120.6 6.09L119.77 6.09L119.77 4.63L117.3 4.63L117.3 6.11L116.47 6.11L116.47 2.41L117.3 2.41L117.3 3.89L119.79 3.89L119.79 2.41L120.62 2.41L120.6 6.09ZM126.2 5.05C126.2 5.8 125.78 6.16 124.95 6.16L123.29 6.16C122.46 6.16 122.05 5.8 122.05 5.05L122.05 3.48C122.05 2.74 122.46 2.37 123.29 2.37L124.95 2.37C125.78 2.37 126.2 2.74 126.2 3.48L126.2 5.05ZM125.37 5.05L125.37 3.48C125.37 3.23 125.23 3.12 124.95 3.12L123.29 3.12C123.02 3.12 122.88 3.23 122.88 3.48L122.88 5.08C122.88 5.33 123.02 5.46 123.29 5.46L124.95 5.46C125.23 5.44 125.37 5.31 125.37 5.06L125.37 5.05ZM131.79 3.15L128.48 3.15L128.48 3.89L130.96 3.89L130.96 4.63L128.48 4.63L128.48 5.37L131.79 5.37L131.79 6.11L127.67 6.11L127.67 2.41L131.79 2.41L131.79 3.15ZM139.81 5.06C139.81 5.8 139.4 6.17 138.57 6.17L136.91 6.17C136.08 6.17 135.66 5.8 135.66 5.06L135.66 3.48C135.66 2.74 136.08 2.37 136.91 2.37L138.57 2.37C139.4 2.37 139.81 2.74 139.81 3.48L139.81 5.06ZM138.98 5.06L138.98 3.48C138.98 3.23 138.84 3.12 138.57 3.12L136.91 3.12C136.63 3.12 136.5 3.23 136.5 3.48L136.5 5.08C136.5 5.33 136.63 5.46 136.91 5.46L138.57 5.46C138.84 5.43 138.98 5.31 138.98 5.06ZM144.16 3.89L142.1 3.89L142.1 3.15L145 3.15L145 2.41L141.27 2.41L141.27 6.11L144.17 6.11C145 6.11 145.42 5.74 145.42 5C145.42 4.26 144.99 3.89 144.16 3.89ZM144.16 5.37L142.1 5.37L142.1 4.63L144.16 4.63C144.44 4.63 144.58 4.75 144.58 5C144.6 5.24 144.44 5.37 144.16 5.37ZM151.84 2.41L151.01 2.41L151.01 5.37L149.75 5.37L149.75 2.41L148.92 2.41L148.92 5.37L147.69 5.37L147.69 2.41L146.86 2.41L146.86 6.11L151.42 6.11L151.42 6.85L152.25 6.85L152.25 5.37L151.84 5.37L151.84 2.41ZM157.85 3.15L154.53 3.15L154.53 3.89L157.02 3.89L157.02 4.63L154.53 4.63L154.53 5.37L157.85 5.37L157.85 6.11L153.7 6.11L153.7 2.41L157.85 2.41L157.85 3.15ZM163.45 6.11L160.57 6.11C159.73 6.11 159.32 5.74 159.32 5L159.32 3.52C159.32 2.78 159.73 2.41 160.57 2.41L163.47 2.41L163.47 3.15L160.57 3.15C160.29 3.15 160.15 3.27 160.15 3.52L160.15 5C160.15 5.24 160.29 5.37 160.57 5.37L163.47 5.37L163.45 6.11ZM169.05 3.15L167.39 3.15L167.39 6.11L166.56 6.11L166.56 3.15L164.9 3.15L164.9 2.41L169.02 2.41L169.05 3.15ZM174.38 4.25C174.48 4.16 174.55 4.04 174.6 3.91C174.64 3.79 174.66 3.65 174.64 3.51C174.64 2.78 174.22 2.41 173.4 2.41L170.5 2.41L170.5 6.11L173.4 6.11C174.23 6.11 174.64 5.74 174.64 5C174.66 4.87 174.64 4.73 174.59 4.6C174.55 4.47 174.48 4.35 174.38 4.25ZM173.4 3.89L171.34 3.89L171.34 3.15L173.4 3.15C173.68 3.15 173.82 3.27 173.82 3.52C173.82 3.77 173.68 3.89 173.4 3.89ZM173.4 5.37L171.34 5.37L171.34 4.63L173.4 4.63C173.68 4.63 173.82 4.75 173.82 5C173.82 5.24 173.68 5.37 173.4 5.37ZM180.24 5.06C180.24 5.8 179.83 6.17 179 6.17L177.34 6.17C176.51 6.17 176.1 5.8 176.1 5.06L176.1 3.48C176.1 2.74 176.51 2.37 177.34 2.37L179 2.37C179.83 2.37 180.24 2.74 180.24 3.48L180.24 5.06ZM179.41 5.06L179.41 3.48C179.41 3.23 179.28 3.12 179 3.12L177.34 3.12C177.06 3.12 176.93 3.23 176.93 3.48L176.93 5.08C176.93 5.33 177.06 5.46 177.34 5.46L179 5.46C179.28 5.43 179.41 5.31 179.41 5.06Z" fill="#C2C2C2" fill-opacity="1.000000" fill-rule="evenodd"/>
	<path id="Vector" d="M76.54 10.28L71.41 10.28L71.41 15.99L72.69 15.99L72.69 11.42L76.54 11.42L76.54 10.28ZM83.79 11.99L83.79 12.57C83.79 13.71 83.15 14.28 81.87 14.28L78.67 14.28L78.67 15.99L77.38 15.99L77.38 10.31L81.87 10.31C83.15 10.29 83.79 10.85 83.79 11.99ZM82.51 11.99C82.51 11.61 82.29 11.42 81.87 11.42L78.67 11.42L78.67 13.13L81.87 13.13C82.3 13.13 82.52 12.94 82.52 12.57L82.51 11.99ZM85.6 14.85L86.29 14.85C86.43 14.85 86.65 14.66 86.92 14.28L87.73 13.13L84.96 10.28L86.64 10.28L88.51 12.18L89.83 10.28L91.38 10.28C90.86 11.05 90.19 11.97 89.42 13.04C89.14 13.44 88.91 13.75 88.74 13.98L88.35 14.5C88.25 14.62 88.18 14.69 88.14 14.74C88.11 14.76 88.08 14.79 88.06 14.83C87.55 15.6 87.03 15.98 86.43 15.98L85.62 15.98L85.6 14.85ZM98.62 15.99L97.34 15.99L97.34 11.42L93.5 11.42L93.5 15.99L92.21 15.99L92.21 10.31L98.62 10.31L98.62 15.99ZM106.19 15.99L104.91 15.99L104.91 11.42L101.07 11.42L101.07 15.99L99.79 15.99L99.79 10.31L106.19 10.31L106.19 15.99ZM113.76 15.99L112.49 15.99L112.49 14.85L108.64 14.85L108.64 15.99L107.37 15.99L107.37 11.9C107.37 10.75 108.01 10.18 109.28 10.18L111.86 10.18C113.14 10.18 113.77 10.75 113.77 11.9L113.76 15.99ZM112.49 13.71L112.49 11.9C112.49 11.52 112.28 11.33 111.85 11.33L109.27 11.33C108.85 11.33 108.63 11.52 108.63 11.9L108.63 13.71L112.49 13.71ZM126.14 15.99L124.51 15.99L122.45 13.71L121.01 13.71L121.01 15.99L119.73 15.99L119.73 10.31L121.01 10.31L121.01 12.59L122.45 12.59L124.51 10.31L126.15 10.31L123.57 13.16L126.14 15.99ZM133.39 14.37C133.39 15.52 132.75 16.09 131.48 16.08L128.9 16.08C127.62 16.08 126.98 15.51 126.98 14.37L126.98 11.9C126.98 10.75 127.62 10.18 128.9 10.18L131.48 10.18C132.75 10.18 133.39 10.75 133.39 11.9L133.39 14.37ZM132.12 14.37L132.12 11.9C132.12 11.52 131.9 11.33 131.48 11.33L128.9 11.33C128.47 11.33 128.26 11.52 128.26 11.9L128.26 14.37C128.26 14.75 128.47 14.94 128.9 14.94L131.48 14.94C131.9 14.94 132.12 14.75 132.12 14.37ZM142.25 15.99L141 15.99L141 12.41L138.42 15.99L135.85 12.41L135.85 15.99L134.56 15.99L134.56 10.31L135.85 10.31L138.42 13.88L141 10.31L142.28 10.31L142.25 15.99ZM149.82 15.99L148.55 15.99L148.55 11.42L144.7 11.42L144.7 15.99L143.42 15.99L143.42 10.31L149.82 10.31L149.82 15.99ZM157.4 15.99L156.12 15.99L156.12 14.85L152.28 14.85L152.28 15.99L151 15.99L151 11.9C151 10.76 151.64 10.18 152.92 10.18L155.5 10.18C156.77 10.18 157.42 10.76 157.42 11.9L157.4 15.99ZM156.12 13.71L156.12 11.9C156.12 11.52 155.91 11.33 155.48 11.33L152.9 11.33C152.48 11.33 152.27 11.52 152.27 11.9L152.27 13.71L156.12 13.71ZM164.98 15.99L163.69 15.99L163.69 13.71L159.85 13.71L159.85 15.99L158.57 15.99L158.57 10.31L159.85 10.31L159.85 12.59L163.69 12.59L163.69 10.28L164.98 10.28L164.98 15.99ZM172.55 10.31L171.27 10.31L167.43 14.26L167.43 10.28L166.15 10.28L166.15 15.99L167.43 15.99L171.27 12.03L171.27 15.99L172.55 15.99L172.55 10.31ZM180.13 10.31L178.84 10.31L174.99 14.24L174.99 10.28L173.71 10.28L173.71 15.99L174.99 15.99L178.83 12.03L178.83 15.99L180.14 15.99L180.13 10.31ZM177.55 9.73L176.27 9.73L176.27 8.57L177.57 8.57L177.55 9.73Z" fill="#C2C2C2" fill-opacity="1.000000" fill-rule="evenodd"/>
	<path id="Vector" d="M104.18 25.7L77.97 25.7L77.97 31.53L97.63 31.53L97.63 37.38L77.97 37.38L77.97 43.23L104.18 43.23L104.18 49.07L71.41 49.07L71.41 19.83L104.18 19.83L104.18 25.7ZM142.96 49.09L134.6 49.09L124.12 37.38L116.75 37.38L116.75 49.07L110.19 49.07L110.19 19.83L116.75 19.83L116.75 31.53L124.12 31.53L134.6 19.83L142.96 19.83L129.85 34.48L142.96 49.09ZM180.1 49.09L157.16 49.09C150.61 49.09 147.33 46.16 147.33 40.3L147.33 28.61C147.33 22.75 150.61 19.82 157.16 19.82L180.1 19.82L180.1 25.7L157.16 25.7C154.97 25.7 153.87 26.67 153.87 28.61L153.87 40.3C153.87 42.25 154.97 43.23 157.15 43.23L180.09 43.23L180.1 49.09Z" fill="#C2C2C2" fill-opacity="1.000000" fill-rule="evenodd"/>
	<path id="Vector" d="M76.51 56.64C76.51 57.56 75.95 58.02 74.82 58.02L72.56 58.02C71.44 58.02 70.87 57.56 70.87 56.64L70.87 54.66C70.87 53.74 71.44 53.29 72.56 53.29L74.82 53.29C75.95 53.29 76.51 53.74 76.51 54.66L76.51 56.64ZM75.38 56.64L75.38 54.66C75.38 54.35 75.2 54.2 74.82 54.2L72.56 54.2C72.19 54.2 72 54.35 72 54.66L72 56.64C72 56.95 72.19 57.1 72.56 57.1L74.82 57.1C75.2 57.1 75.38 56.95 75.38 56.64Z" fill="#C2C2C2" fill-opacity="1.000000" fill-rule="nonzero"/>
	<path id="Vector" d="M81.82 57.94L79.24 57.94C78.21 57.94 77.69 57.52 77.69 56.68L77.69 55.84C77.69 55.01 78.21 54.59 79.24 54.59L81.82 54.59L81.82 55.42L79.24 55.42C78.89 55.42 78.73 55.56 78.73 55.84L78.73 56.7C78.73 56.98 78.89 57.12 79.24 57.12L81.82 57.12L81.82 57.94Z" fill="#C2C2C2" fill-opacity="1.000000" fill-rule="nonzero"/>
	<path id="Vector" d="M87.12 57.94L86.09 57.94L86.09 56.7L84.03 56.7L84.03 57.96L83 57.96L83 54.6L84.03 54.6L84.03 55.86L86.09 55.86L86.09 54.6L87.12 54.6L87.12 57.94Z" fill="#C2C2C2" fill-opacity="1.000000" fill-rule="nonzero"/>
	<path id="Vector" d="M92.42 56.76C92.42 57.6 91.91 58.02 90.88 58.02L89.85 58.02C88.82 58.02 88.3 57.6 88.3 56.76L88.3 55.77C88.3 54.93 88.82 54.51 89.85 54.51L90.88 54.51C91.91 54.51 92.42 54.93 92.42 55.77L92.42 56.76ZM91.39 56.76L91.39 55.77C91.39 55.49 91.22 55.35 90.88 55.35L89.85 55.35C89.5 55.35 89.33 55.49 89.33 55.77L89.33 56.76C89.33 57.04 89.51 57.18 89.85 57.18L90.88 57.18C91.22 57.18 91.39 57.04 91.39 56.76L91.39 56.76Z" fill="#C2C2C2" fill-opacity="1.000000" fill-rule="nonzero"/>
	<path id="Vector" d="M97.73 56.91C97.73 57.6 97.3 57.95 96.43 57.95L93.61 57.95L93.61 54.59L96.45 54.59C97.31 54.59 97.75 54.94 97.75 55.63C97.74 55.75 97.71 55.87 97.64 55.97C97.58 56.08 97.49 56.17 97.39 56.24C97.5 56.31 97.58 56.42 97.64 56.53C97.7 56.65 97.73 56.78 97.73 56.91ZM96.7 55.66C96.7 55.51 96.61 55.43 96.44 55.43L94.64 55.43L94.64 55.85L96.45 55.85C96.61 55.84 96.7 55.78 96.7 55.66ZM96.7 56.92C96.7 56.77 96.61 56.69 96.44 56.69L94.64 56.69L94.64 57.11L96.45 57.11C96.61 57.1 96.7 57.04 96.7 56.91L96.7 56.92Z" fill="#C2C2C2" fill-opacity="1.000000" fill-rule="nonzero"/>
	<path id="Vector" d="M100.19 57.94C99.33 57.94 98.89 57.58 98.89 56.87C98.89 56.19 99.33 55.84 100.19 55.84L102 55.84C102 55.56 101.83 55.42 101.49 55.42L99.09 55.42L99.09 54.59L101.49 54.59C102.52 54.59 103.03 55.01 103.03 55.84L103.03 57.94L100.19 57.94ZM100.19 57.1L102 57.1L102 56.7L100.19 56.7C100.02 56.7 99.93 56.77 99.93 56.9C99.93 57.04 100.02 57.1 100.19 57.1Z" fill="#C2C2C2" fill-opacity="1.000000" fill-rule="nonzero"/>
	<path id="Vector" d="M108.34 57.94L107.31 57.94L107.31 56.7L105.25 56.7L105.25 57.96L104.22 57.96L104.22 54.6L105.25 54.6L105.25 55.86L107.31 55.86L107.31 54.6L108.34 54.6L108.34 57.94Z" fill="#C2C2C2" fill-opacity="1.000000" fill-rule="nonzero"/>
	<path id="Vector" d="M113.64 56.76C113.64 57.6 113.13 58.02 112.1 58.02L111.07 58.02C110.04 58.02 109.52 57.6 109.52 56.76L109.52 55.77C109.52 54.93 110.04 54.51 111.07 54.51L112.1 54.51C113.13 54.51 113.64 54.93 113.64 55.77L113.64 56.76ZM112.61 56.76L112.61 55.77C112.61 55.49 112.44 55.35 112.1 55.35L111.07 55.35C110.72 55.35 110.55 55.49 110.55 55.77L110.55 56.76C110.55 57.04 110.72 57.18 111.07 57.18L112.1 57.18C112.44 57.18 112.61 57.04 112.61 56.76L112.61 56.76Z" fill="#C2C2C2" fill-opacity="1.000000" fill-rule="nonzero"/>
	<path id="Vector" d="M124.25 56.91C124.25 57.6 123.82 57.95 122.95 57.95L120.11 57.95L120.11 54.59L122.97 54.59C123.83 54.59 124.26 54.94 124.27 55.63C124.26 55.75 124.22 55.87 124.16 55.97C124.1 56.08 124.01 56.17 123.91 56.24C124.01 56.31 124.1 56.41 124.16 56.53C124.22 56.65 124.25 56.78 124.25 56.91ZM123.22 55.65C123.22 55.5 123.13 55.42 122.96 55.42L121.15 55.42L121.15 55.84L122.97 55.84C123.13 55.84 123.22 55.78 123.22 55.66L123.22 55.65ZM123.22 56.91C123.22 56.76 123.13 56.68 122.96 56.68L121.15 56.68L121.15 57.1L122.97 57.1C123.13 57.1 123.22 57.04 123.22 56.91L123.22 56.91Z" fill="#C2C2C2" fill-opacity="1.000000" fill-rule="nonzero"/>
	<path id="Vector" d="M132.98 57.94L131.85 57.94L131.85 54.28L130.72 54.28L130.72 53.37L132.98 53.37L132.98 57.94Z" fill="#C2C2C2" fill-opacity="1.000000" fill-rule="nonzero"/>
	<path id="Vector" d="M139.79 56.57C139.79 57.48 139.22 57.94 138.09 57.94L134.71 57.94L134.71 57.03L138.09 57.03C138.47 57.03 138.66 56.87 138.66 56.57L138.66 56.11L135.85 56.11C134.72 56.11 134.15 55.65 134.15 54.74C134.15 53.82 134.72 53.37 135.85 53.37L138.1 53.37C139.23 53.37 139.8 53.82 139.8 54.74L139.79 56.57ZM138.66 55.2L138.66 54.74C138.66 54.43 138.47 54.28 138.09 54.28L135.85 54.28C135.47 54.28 135.28 54.43 135.28 54.74C135.28 55.04 135.47 55.2 135.85 55.2L138.66 55.2Z" fill="#C2C2C2" fill-opacity="1.000000" fill-rule="nonzero"/>
	<path id="Vector" d="M146.6 53.37L146.6 54.28L143.44 57.94L142.08 57.94L145.23 54.28L140.95 54.28L140.95 53.37L146.6 53.37Z" fill="#C2C2C2" fill-opacity="1.000000" fill-rule="nonzero"/>
	<path id="Vector" d="M152.84 56.57C152.84 57.48 152.28 57.94 151.15 57.94L149.46 57.94C148.33 57.94 147.76 57.48 147.76 56.57L147.76 54.74C147.76 53.82 148.33 53.37 149.46 53.37L151.15 53.37C152.28 53.37 152.84 53.82 152.84 54.74L152.84 56.57ZM151.71 56.57L151.71 54.74C151.71 54.43 151.53 54.28 151.15 54.28L149.46 54.28C149.08 54.28 148.89 54.43 148.89 54.74L148.89 56.57C148.89 56.87 149.08 57.03 149.46 57.03L151.15 57.03C151.52 57.03 151.71 56.87 151.71 56.57L151.71 56.57Z" fill="#C2C2C2" fill-opacity="1.000000" fill-rule="nonzero"/>
	<path id="Vector" d="M160.6 55.84L162.14 55.84C162.3 55.84 162.39 55.77 162.4 55.63C162.4 55.49 162.3 55.42 162.14 55.42L159.57 55.42L159.57 54.59L162.14 54.59C163 54.59 163.43 54.93 163.43 55.62C163.43 56.31 163 56.69 162.14 56.69L160.6 56.69C160.43 56.69 160.34 56.76 160.34 56.9C160.34 57.05 160.43 57.11 160.6 57.11L163.17 57.11L163.17 57.95L160.6 57.95C159.74 57.95 159.31 57.59 159.31 56.91C159.31 56.23 159.74 55.84 160.6 55.84Z" fill="#C2C2C2" fill-opacity="1.000000" fill-rule="nonzero"/>
	<path id="Vector" d="M168.75 56.76C168.75 57.6 168.24 58.02 167.21 58.02L166.18 58.02C165.15 58.02 164.63 57.6 164.63 56.76L164.63 55.77C164.63 54.93 165.15 54.51 166.18 54.51L167.21 54.51C168.24 54.51 168.75 54.93 168.75 55.77L168.75 56.76ZM167.72 56.76L167.72 55.77C167.72 55.49 167.55 55.35 167.21 55.35L166.18 55.35C165.83 55.35 165.66 55.49 165.66 55.77L165.66 56.76C165.66 57.04 165.83 57.18 166.18 57.18L167.21 57.18C167.54 57.18 167.72 57.04 167.72 56.76L167.72 56.76Z" fill="#C2C2C2" fill-opacity="1.000000" fill-rule="nonzero"/>
	<path id="Vector" d="M174.05 58.36C174.05 59.2 173.54 59.62 172.51 59.62L170.96 59.62L170.96 58.76L172.51 58.76C172.85 58.76 173.02 58.62 173.02 58.34L173.02 57.92L171.48 57.92C170.45 57.92 169.93 57.51 169.93 56.66L169.93 55.83C169.93 54.99 170.45 54.57 171.48 54.57L174.05 54.57L174.05 58.36ZM173.02 55.42L171.48 55.42C171.13 55.42 170.96 55.56 170.96 55.84L170.96 56.69C170.96 56.98 171.13 57.12 171.48 57.12L173.02 57.12L173.02 55.42Z" fill="#C2C2C2" fill-opacity="1.000000" fill-rule="nonzero"/>
	<path id="Vector" d="M175.78 58.76L176.26 58.76C176.42 58.76 176.64 58.61 176.91 58.29L177.21 57.77L175.22 54.56L176.38 54.56L177.81 56.89L179.23 54.56L180.38 54.56L178.32 57.91L177.9 58.61C177.74 58.9 177.51 59.15 177.22 59.33C176.93 59.5 176.6 59.59 176.27 59.59L175.79 59.59L175.78 58.76Z" fill="#C2C2C2" fill-opacity="1.000000" fill-rule="nonzero"/>
</svg>
