<svg width="203.284668" height="61.199219" viewBox="0 0 203.285 61.1992" fill="none" xmlns="http://www.w3.org/2000/svg" xmlns:xlink="http://www.w3.org/1999/xlink">
	<desc>
			Created with Pixso.
	</desc>
	<defs/>
	<path id="Vector" d="M82.79 15.96C83.11 15.25 83.52 14.65 84.79 14.65C85.91 14.65 86.41 15.08 86.8 15.96L91.02 25.3L92.08 25.3L92.08 27.15L77.5 27.15L77.5 25.3L78.56 25.3L82.79 15.96ZM80.98 25.3L88.6 25.3L85.08 17.28C85.03 17.18 84.94 16.89 84.79 16.89C84.65 16.89 84.53 17.18 84.49 17.28L80.98 25.3Z" fill="#C2C2C2" fill-opacity="1.000000" fill-rule="nonzero"/>
	<path id="Vector" d="M104.08 15.96C105.35 17.19 105.49 19.35 105.49 20.97C105.49 22.29 105.44 24.66 104.08 25.98C102.73 27.29 100.49 27.29 99.07 27.29C97.58 27.29 95.45 27.29 94.07 25.98C92.62 24.61 92.62 22.37 92.62 20.97C92.62 19.29 92.71 17.23 94.07 15.96C95.47 14.65 97.55 14.65 99.07 14.65C100.53 14.65 102.71 14.65 104.08 15.96ZM95.86 24.38C96.6 25.31 97.64 25.44 99.06 25.44C100.11 25.44 101.46 25.4 102.27 24.38C102.73 23.79 103.06 22.79 103.06 20.97C103.06 19.12 102.75 18.15 102.27 17.55C101.46 16.54 100.1 16.5 99.06 16.5C97.96 16.5 96.69 16.54 95.86 17.55C95.36 18.16 95.06 19.08 95.06 20.97C95.06 22.74 95.34 23.72 95.86 24.38Z" fill="#C2C2C2" fill-opacity="1.000000" fill-rule="nonzero"/>
	<path id="Vector" d="M107.29 27.15L107.29 16.65C107.29 16.19 107.29 15.69 107.72 15.27C108.13 14.86 108.71 14.79 109.14 14.79L115.11 14.79C115.77 14.79 116.83 14.79 117.6 15.53C118.46 16.34 118.55 17.74 118.55 18.78C118.55 19.79 118.44 21.37 117.46 22.17C116.99 22.54 116.27 22.77 115.54 22.77L109.66 22.77L109.66 27.15L107.29 27.15ZM114.16 20.92C114.68 20.92 115.29 20.92 115.7 20.46C116.08 20.04 116.11 19.24 116.11 18.76C116.11 18.22 116.06 17.48 115.66 17.07C115.25 16.66 114.59 16.65 114.19 16.65L110.37 16.65C110.21 16.65 110 16.63 109.82 16.8C109.66 16.96 109.66 17.18 109.66 17.39L109.66 20.92L114.16 20.92L114.16 20.92Z" fill="#C2C2C2" fill-opacity="1.000000" fill-rule="nonzero"/>
	<path id="Vector" d="M131.45 15.96C132.72 17.19 132.86 19.35 132.86 20.97C132.86 22.29 132.81 24.66 131.45 25.98C130.1 27.29 127.86 27.29 126.44 27.29C124.96 27.29 122.82 27.29 121.44 25.98C119.99 24.61 119.99 22.37 119.99 20.97C119.99 19.29 120.08 17.23 121.44 15.96C122.84 14.65 124.92 14.65 126.44 14.65C127.9 14.65 130.08 14.65 131.45 15.96ZM123.23 24.38C123.97 25.31 125.01 25.44 126.43 25.44C127.48 25.44 128.83 25.4 129.64 24.38C130.1 23.79 130.42 22.79 130.42 20.97C130.42 19.12 130.12 18.15 129.64 17.55C128.83 16.54 127.47 16.5 126.43 16.5C125.33 16.5 124.06 16.54 123.23 17.55C122.73 18.16 122.43 19.08 122.43 20.97C122.43 22.74 122.71 23.72 123.23 24.38Z" fill="#C2C2C2" fill-opacity="1.000000" fill-rule="nonzero"/>
	<path id="Vector" d="M134.66 27.15L134.66 16.58C134.66 16.12 134.68 15.68 135.09 15.27C135.34 15.02 135.77 14.79 136.33 14.79L144.72 14.79L144.72 16.65L137.96 16.65C137.71 16.65 137.29 16.63 137.13 16.82C137.03 16.97 137.03 17.23 137.03 17.46L137.03 27.15L134.66 27.15L134.66 27.15Z" fill="#C2C2C2" fill-opacity="1.000000" fill-rule="nonzero"/>
	<path id="Vector" d="M156.72 15.96C157.99 17.19 158.14 19.35 158.14 20.97C158.14 22.29 158.08 24.66 156.72 25.98C155.37 27.29 153.13 27.29 151.72 27.29C150.23 27.29 148.09 27.29 146.71 25.98C145.26 24.61 145.26 22.37 145.26 20.97C145.26 19.29 145.35 17.23 146.71 15.96C148.11 14.65 150.19 14.65 151.72 14.65C153.17 14.65 155.36 14.65 156.72 15.96ZM148.51 24.38C149.24 25.31 150.28 25.44 151.7 25.44C152.75 25.44 154.1 25.4 154.91 24.38C155.37 23.79 155.7 22.79 155.7 20.97C155.7 19.12 155.39 18.15 154.91 17.55C154.1 16.54 152.74 16.5 151.7 16.5C150.6 16.5 149.33 16.54 148.51 17.55C148 18.16 147.7 19.08 147.7 20.97C147.7 22.74 147.99 23.72 148.51 24.38Z" fill="#C2C2C2" fill-opacity="1.000000" fill-rule="nonzero"/>
	<path id="Vector" d="M170.49 16.65L163.14 16.65C162.91 16.65 162.64 16.66 162.48 16.79C162.3 16.95 162.3 17.25 162.3 17.41L162.3 19.97L168.27 19.97C168.9 19.97 169.85 20.07 170.49 20.88C170.96 21.48 171.14 22.42 171.14 23.57C171.14 25.16 170.82 25.93 170.46 26.34C170.19 26.64 169.54 27.15 168.31 27.15L161.53 27.15C160.88 27.15 160.5 26.92 160.27 26.66C159.97 26.3 159.93 25.86 159.93 25.51L159.93 16.59C159.93 16.17 159.98 15.64 160.36 15.25C160.58 15.04 160.97 14.79 161.63 14.79L170.49 14.79L170.49 16.65L170.49 16.65ZM162.3 24.38C162.3 24.91 162.35 25.01 162.39 25.07C162.57 25.31 163.02 25.3 163.28 25.3L167.09 25.3C167.52 25.3 167.97 25.3 168.32 24.94C168.72 24.55 168.7 23.87 168.7 23.5C168.7 23.04 168.68 22.51 168.31 22.15C167.97 21.84 167.48 21.82 167.09 21.82L162.3 21.82L162.3 24.38Z" fill="#C2C2C2" fill-opacity="1.000000" fill-rule="nonzero"/>
	<path id="Vector" d="M174.98 27.15L176.5 24.41L171.14 14.79L173.76 14.79L177.72 22.28L181.54 14.79L184.13 14.79L177.54 27.15L174.98 27.15Z" fill="#C2C2C2" fill-opacity="1.000000" fill-rule="nonzero"/>
	<path id="Vector" d="M188.52 21.94C188.79 21.68 189.19 21.22 189.19 20.78C189.19 20.41 188.92 20.12 188.66 19.86L184.06 14.79L186.93 14.79L190.87 19.38C191.12 19.68 191.52 20.21 191.52 20.79C191.52 20.99 191.46 21.59 190.69 22.43L186.42 27.15L183.41 27.15L188.52 21.94ZM192.16 14.79L194.53 14.79L194.53 27.15L192.16 27.15L192.16 14.79ZM200.27 27.15L196 22.44C195.68 22.07 195.17 21.48 195.17 20.79C195.17 20.21 195.55 19.7 195.82 19.38L199.77 14.79L202.63 14.79L198.03 19.86C197.78 20.12 197.51 20.41 197.51 20.78C197.51 21.22 197.9 21.68 198.17 21.94L203.28 27.15L200.27 27.15L200.27 27.15Z" fill="#C2C2C2" fill-opacity="1.000000" fill-rule="nonzero"/>
	<path id="Vector" d="M84.84 33.35L87.21 33.35L87.21 45.71L84.84 45.71L84.84 33.35ZM93.86 45.71L88.7 40.96C87.96 40.29 87.84 39.69 87.84 39.37C87.84 39.12 87.91 38.58 88.52 37.98L93.27 33.35L96.19 33.35L90.78 38.42C90.37 38.8 90.11 39.11 90.11 39.37C90.11 39.76 90.56 40.18 90.92 40.5L96.86 45.71L93.86 45.71Z" fill="#C2C2C2" fill-opacity="1.000000" fill-rule="nonzero"/>
	<path id="Vector" d="M107.78 34.52C109.05 35.75 109.2 37.91 109.2 39.53C109.2 40.85 109.14 43.22 107.78 44.54C106.44 45.85 104.19 45.85 102.78 45.85C101.29 45.85 99.15 45.85 97.77 44.54C96.32 43.17 96.32 40.92 96.32 39.53C96.32 37.85 96.41 35.79 97.77 34.52C99.17 33.21 101.25 33.21 102.78 33.21C104.23 33.21 106.42 33.21 107.78 34.52ZM99.57 42.94C100.3 43.87 101.34 44 102.76 44C103.82 44 105.16 43.96 105.97 42.94C106.44 42.35 106.76 41.35 106.76 39.53C106.76 37.68 106.45 36.71 105.97 36.11C105.16 35.1 103.8 35.06 102.76 35.06C101.67 35.06 100.39 35.1 99.57 36.11C99.06 36.72 98.76 37.64 98.76 39.53C98.76 41.29 99.05 42.28 99.57 42.94Z" fill="#C2C2C2" fill-opacity="1.000000" fill-rule="nonzero"/>
	<path id="Vector" d="M114.27 45.71L114.27 35.2L109.38 35.2L109.38 33.35L121.55 33.35L121.55 35.2L116.64 35.2L116.64 45.71L114.27 45.71Z" fill="#C2C2C2" fill-opacity="1.000000" fill-rule="nonzero"/>
	<path id="Vector" d="M125.34 34.37C125.59 33.81 125.93 33.21 127.26 33.21C128.59 33.21 128.93 33.81 129.18 34.37L134.02 45.71L131.51 45.71L127.55 35.84C127.49 35.68 127.44 35.49 127.26 35.49C127.06 35.49 127.01 35.7 126.95 35.84L122.99 45.71L120.48 45.71L125.34 34.37Z" fill="#C2C2C2" fill-opacity="1.000000" fill-rule="nonzero"/>
	<path id="Vector" d="M145.66 34.52C146.93 35.75 147.08 37.91 147.08 39.53C147.08 40.85 147.02 43.22 145.66 44.54C144.32 45.85 142.07 45.85 140.66 45.85C139.17 45.85 137.04 45.85 135.66 44.54C134.2 43.17 134.2 40.92 134.2 39.53C134.2 37.85 134.29 35.79 135.66 34.52C137.05 33.21 139.13 33.21 140.66 33.21C142.11 33.21 144.3 33.21 145.66 34.52ZM137.45 42.94C138.18 43.87 139.22 44 140.64 44C141.7 44 143.04 43.96 143.85 42.94C144.32 42.35 144.64 41.35 144.64 39.53C144.64 37.68 144.33 36.71 143.85 36.11C143.04 35.1 141.68 35.06 140.64 35.06C139.54 35.06 138.27 35.1 137.45 36.11C136.95 36.72 136.64 37.64 136.64 39.53C136.64 41.29 136.93 42.28 137.45 42.94Z" fill="#C2C2C2" fill-opacity="1.000000" fill-rule="nonzero"/>
	<path id="Vector" d="M158.49 44.37C158.05 45.48 157.73 45.85 156.69 45.85C155.72 45.85 155.35 45.53 154.9 44.37L151.69 36.12C151.64 35.98 151.49 35.72 151.38 35.72C151.19 35.72 151.19 36.04 151.19 36.09L151.24 45.71L148.87 45.71L148.87 34.84C148.87 33.23 150.54 33.21 150.9 33.21C151.81 33.21 152.57 33.42 153.11 34.8L156.35 43.04C156.46 43.31 156.58 43.5 156.69 43.5C156.8 43.5 156.92 43.31 157.03 43.04L160.28 34.8C160.82 33.42 161.57 33.21 162.48 33.21C163.65 33.21 164.51 33.71 164.51 34.84L164.51 45.71L162.14 45.71L162.22 36.09C162.22 35.75 162.07 35.72 162 35.72C161.87 35.72 161.75 35.98 161.7 36.12L158.49 44.37Z" fill="#C2C2C2" fill-opacity="1.000000" fill-rule="nonzero"/>
	<path id="Vector" d="M169.79 34.61C170.24 33.56 170.72 33.21 171.85 33.21C172.93 33.21 173.46 33.57 173.91 34.61L178.65 45.71L176.15 45.71L174.86 42.58L168.82 42.58L167.55 45.71L165.05 45.71L169.79 34.61ZM169.43 40.92L174.25 40.92L172.21 35.89C172.14 35.72 172.01 35.38 171.85 35.38C171.69 35.38 171.56 35.72 171.49 35.89L169.43 40.92Z" fill="#C2C2C2" fill-opacity="1.000000" fill-rule="nonzero"/>
	<path id="Vector" d="M188.65 33.35L188.65 43.85L192.74 43.85C192.92 43.85 193.14 43.85 193.28 43.66C193.41 43.48 193.39 43.25 193.39 43.08L193.39 33.35L195.76 33.35L195.76 44.14C195.76 44.4 195.74 44.93 195.36 45.3C194.97 45.69 194.36 45.71 194.12 45.71L180.82 45.71C180.44 45.71 179.98 45.66 179.6 45.3C179.2 44.93 179.19 44.53 179.19 44.14L179.19 33.35L181.55 33.35L181.55 43.08C181.55 43.25 181.54 43.48 181.66 43.66C181.81 43.85 182.02 43.85 182.22 43.85L186.29 43.85L186.29 33.35L188.65 33.35Z" fill="#C2C2C2" fill-opacity="1.000000" fill-rule="nonzero"/>
	<path id="Vector" d="M25.13 9.24C27.85 6.45 28.46 2.92 28.34 0.44C27.2 0.83 26.13 1.48 25.22 2.37L2.42 24.81C-0.81 27.99 -0.81 33.2 2.42 36.38L7.95 41.82C7.52 38.83 7.83 35.04 9.98 30.61C11.16 36.61 13.77 37.87 17.32 39.47C13.35 25.95 14.65 19.65 25.13 9.24Z" fill="#C2C2C2" fill-opacity="1.000000" fill-rule="nonzero"/>
	<path id="Vector" d="M59.77 24.81L36.97 2.37C35.44 0.87 33.45 0.08 31.44 0C34.26 2.43 36.92 7.17 37.39 17.24C39.68 12.34 44.28 12.34 44.28 12.34C44.28 12.34 40.72 18.48 47.97 27.98C52.22 33.03 52.87 38.85 52.51 43.53L59.77 36.38C63 33.2 63 27.99 59.77 24.81Z" fill="#C2C2C2" fill-opacity="1.000000" fill-rule="nonzero"/>
	<path id="Vector" d="M32.59 16.67C16.58 30.36 28.5 43.71 31.19 49.45C33.88 55.19 27.05 57.65 22.8 56.38C24.85 59.07 29.82 63.48 35.78 59.78C44.97 53.8 41.76 46.34 34.64 35.16C27.36 23.72 32.59 16.67 32.59 16.67Z" fill="#C2C2C2" fill-opacity="1.000000" fill-rule="nonzero"/>
	<path id="Vector" d="M102.08 57.33L102.08 52.76C102.08 52.63 102.1 52.47 102.23 52.34C102.37 52.2 102.54 52.18 102.66 52.18L105.83 52.18L105.83 52.53L102.9 52.53C102.8 52.53 102.6 52.52 102.53 52.62C102.48 52.67 102.48 52.79 102.48 52.88L102.48 57.33L102.08 57.33Z" fill="#C2C2C2" fill-opacity="1.000000" fill-rule="nonzero"/>
	<path id="Vector" d="M105.09 58.59L104.71 58.59L104.71 53.92C104.71 53.71 104.83 53.59 104.89 53.55C105.04 53.44 105.22 53.43 105.33 53.43L106.34 53.43C106.6 53.43 107.13 53.47 107.52 53.88C107.92 54.3 107.94 54.86 107.94 55.32C107.94 55.82 107.91 56.33 107.62 56.75C107.31 57.22 106.86 57.33 106.22 57.33L105.09 57.33L105.09 58.59ZM106.37 56.99C106.73 56.99 107.09 56.85 107.29 56.55C107.47 56.27 107.52 55.88 107.52 55.38C107.52 54.84 107.47 54.54 107.38 54.34C107.19 53.93 106.78 53.78 106.42 53.78L105.27 53.78C105.24 53.78 105.18 53.81 105.15 53.83C105.1 53.87 105.09 53.92 105.09 53.97L105.09 56.99L106.37 56.99L106.37 56.99Z" fill="#C2C2C2" fill-opacity="1.000000" fill-rule="nonzero"/>
	<path id="Vector" d="M109.58 58.59L109.16 58.59L109.76 57.31L108.08 53.43L108.5 53.43L109.97 56.86L111.53 53.43L111.95 53.43L109.58 58.59Z" fill="#C2C2C2" fill-opacity="1.000000" fill-rule="nonzero"/>
	<path id="Vector" d="M114.9 53.43C115.15 53.43 115.26 53.54 115.31 53.6C115.38 53.71 115.39 53.87 115.39 54L115.39 57.33L115 57.33L115 54C115 53.93 114.99 53.84 114.96 53.81C114.94 53.79 114.87 53.78 114.84 53.78L112.8 53.78C112.77 53.78 112.7 53.79 112.68 53.81C112.65 53.84 112.64 53.93 112.64 54L112.64 57.33L112.25 57.33L112.25 54C112.25 53.87 112.26 53.71 112.33 53.6C112.38 53.54 112.49 53.43 112.74 53.43L114.9 53.43Z" fill="#C2C2C2" fill-opacity="1.000000" fill-rule="nonzero"/>
	<path id="Vector" d="M118.79 53.43C119.04 53.43 119.15 53.54 119.19 53.6C119.27 53.71 119.28 53.87 119.28 54L119.28 57.33L118.89 57.33L118.89 54C118.89 53.93 118.88 53.84 118.85 53.81C118.83 53.79 118.75 53.78 118.72 53.78L116.69 53.78C116.66 53.78 116.59 53.79 116.56 53.81C116.53 53.84 116.53 53.93 116.53 54L116.53 57.33L116.14 57.33L116.14 54C116.14 53.87 116.14 53.71 116.22 53.6C116.26 53.54 116.38 53.43 116.62 53.43L118.79 53.43Z" fill="#C2C2C2" fill-opacity="1.000000" fill-rule="nonzero"/>
	<path id="Vector" d="M122.12 53.43C122.39 53.43 122.66 53.54 122.81 53.71C123.02 53.93 123.05 54.25 123.05 54.49L123.05 56.82C123.05 56.92 123.04 57.11 122.92 57.22C122.8 57.33 122.6 57.33 122.47 57.33L120.94 57.33C120.72 57.33 120.44 57.33 120.23 57.16C119.9 56.89 119.87 56.36 119.87 56.13C119.87 55.81 119.92 55.44 120.2 55.21C120.42 55.03 120.72 55 120.94 55L122.66 55L122.66 54.42C122.66 54.29 122.61 54.07 122.52 53.96C122.43 53.86 122.28 53.78 122.1 53.78L120.17 53.78L120.17 53.43L122.12 53.43ZM120.85 55.35C120.62 55.35 120.48 55.46 120.42 55.54C120.32 55.66 120.29 55.87 120.29 56.14C120.29 56.38 120.32 56.66 120.45 56.82C120.53 56.91 120.68 56.99 120.84 56.99L122.44 56.99C122.49 56.99 122.56 56.99 122.61 56.94C122.66 56.9 122.66 56.86 122.66 56.81L122.66 55.35L120.85 55.35L120.85 55.35Z" fill="#C2C2C2" fill-opacity="1.000000" fill-rule="nonzero"/>
	<path id="Vector" d="M125.54 57.33L125.54 53.43L125.93 53.43L125.93 57.33L125.54 57.33ZM128.04 57.33L126.37 55.79C126.17 55.6 126.12 55.44 126.12 55.32C126.12 55.14 126.3 54.93 126.42 54.82L127.93 53.43L128.46 53.43L126.7 55.07C126.65 55.13 126.54 55.23 126.54 55.32C126.54 55.39 126.61 55.49 126.66 55.54L128.59 57.33L128.04 57.33L128.04 57.33Z" fill="#C2C2C2" fill-opacity="1.000000" fill-rule="nonzero"/>
	<path id="Vector" d="M129.23 53.81C129.62 53.44 130.2 53.39 130.7 53.39C131.2 53.39 131.78 53.44 132.17 53.81C132.6 54.24 132.66 54.93 132.66 55.36C132.66 56.21 132.42 56.69 132.17 56.94C131.73 57.36 131.05 57.38 130.7 57.38C130.35 57.38 129.67 57.36 129.23 56.94C128.98 56.69 128.74 56.21 128.74 55.36C128.74 54.93 128.8 54.24 129.23 53.81ZM129.48 56.66C129.8 56.99 130.3 57.03 130.7 57.03C131.11 57.03 131.61 56.99 131.92 56.66C132.25 56.3 132.24 55.71 132.24 55.4C132.24 55.06 132.24 54.44 131.93 54.09C131.62 53.76 131.08 53.73 130.7 53.73C130.33 53.73 129.78 53.76 129.47 54.09C129.16 54.44 129.16 55.06 129.16 55.4C129.16 55.71 129.15 56.3 129.48 56.66Z" fill="#C2C2C2" fill-opacity="1.000000" fill-rule="nonzero"/>
	<path id="Vector" d="M135.78 57.1C135.69 57.3 135.53 57.38 135.42 57.38C135.31 57.38 135.14 57.3 135.06 57.1L133.73 53.92C133.72 53.9 133.7 53.86 133.67 53.86C133.64 53.86 133.64 53.9 133.64 53.91L133.64 57.33L133.26 57.33L133.26 53.79C133.26 53.54 133.39 53.39 133.63 53.39C133.84 53.39 133.94 53.48 134.01 53.65L135.34 56.79C135.37 56.87 135.39 56.92 135.42 56.92C135.44 56.92 135.46 56.87 135.5 56.79L136.82 53.65C136.9 53.48 137 53.39 137.21 53.39C137.45 53.39 137.58 53.54 137.58 53.79L137.58 57.33L137.19 57.33L137.19 53.91C137.19 53.9 137.19 53.86 137.16 53.86C137.14 53.86 137.12 53.9 137.11 53.92L135.78 57.1Z" fill="#C2C2C2" fill-opacity="1.000000" fill-rule="nonzero"/>
	<path id="Vector" d="M140.98 53.43C141.23 53.43 141.34 53.54 141.38 53.6C141.46 53.71 141.47 53.87 141.47 54L141.47 57.33L141.08 57.33L141.08 54C141.08 53.93 141.07 53.84 141.04 53.81C141.02 53.79 140.94 53.78 140.91 53.78L138.88 53.78C138.85 53.78 138.77 53.79 138.75 53.81C138.72 53.84 138.71 53.93 138.71 54L138.71 57.33L138.33 57.33L138.33 54C138.33 53.87 138.33 53.71 138.41 53.6C138.45 53.54 138.56 53.43 138.81 53.43L140.98 53.43Z" fill="#C2C2C2" fill-opacity="1.000000" fill-rule="nonzero"/>
	<path id="Vector" d="M144.31 53.43C144.58 53.43 144.85 53.54 145 53.71C145.21 53.93 145.24 54.25 145.24 54.49L145.24 56.82C145.24 56.92 145.23 57.11 145.11 57.22C144.99 57.33 144.79 57.33 144.66 57.33L143.13 57.33C142.91 57.33 142.63 57.33 142.42 57.16C142.09 56.89 142.06 56.36 142.06 56.13C142.06 55.81 142.11 55.44 142.39 55.21C142.61 55.03 142.91 55 143.13 55L144.85 55L144.85 54.42C144.85 54.29 144.8 54.07 144.7 53.96C144.62 53.86 144.47 53.78 144.28 53.78L142.36 53.78L142.36 53.43L144.31 53.43ZM143.04 55.35C142.81 55.35 142.67 55.46 142.61 55.54C142.51 55.66 142.48 55.87 142.48 56.14C142.48 56.38 142.5 56.66 142.64 56.82C142.72 56.91 142.86 56.99 143.03 56.99L144.63 56.99C144.67 56.99 144.75 56.99 144.8 56.94C144.85 56.9 144.85 56.86 144.85 56.81L144.85 55.35L143.04 55.35L143.04 55.35Z" fill="#C2C2C2" fill-opacity="1.000000" fill-rule="nonzero"/>
	<path id="Vector" d="M148.76 57.33L148.76 55.49L146.38 55.49L146.38 57.33L145.99 57.33L145.99 53.43L146.38 53.43L146.38 55.15L148.76 55.15L148.76 53.43L149.14 53.43L149.14 57.33L148.76 57.33Z" fill="#C2C2C2" fill-opacity="1.000000" fill-rule="nonzero"/>
	<path id="Vector" d="M152.81 57.33L152.81 53.94C152.81 53.9 152.82 53.85 152.78 53.85C152.77 53.85 152.75 53.86 152.7 53.94L150.67 57.1C150.55 57.29 150.44 57.38 150.25 57.38C150.02 57.38 149.89 57.23 149.89 56.97L149.89 53.43L150.28 53.43L150.28 56.83C150.28 56.86 150.28 56.92 150.32 56.92C150.35 56.92 150.38 56.88 150.41 56.83L152.45 53.62C152.55 53.47 152.68 53.39 152.86 53.39C153.2 53.39 153.2 53.73 153.2 53.84L153.2 57.33L152.81 57.33Z" fill="#C2C2C2" fill-opacity="1.000000" fill-rule="nonzero"/>
	<path id="Vector" d="M156.88 57.33L156.88 53.94C156.88 53.9 156.88 53.85 156.84 53.85C156.83 53.85 156.81 53.86 156.75 53.94L154.74 57.1C154.61 57.29 154.5 57.38 154.31 57.38C154.08 57.38 153.95 57.23 153.95 56.97L153.95 53.43L154.34 53.43L154.34 56.83C154.34 56.86 154.34 56.92 154.38 56.92C154.41 56.92 154.44 56.88 154.47 56.83L156.51 53.62C156.61 53.47 156.74 53.39 156.92 53.39C157.26 53.39 157.26 53.73 157.26 53.84L157.26 57.33L156.88 57.33ZM156.12 52.72C156.2 52.65 156.28 52.52 156.31 52.4L156.76 52.4C156.7 52.59 156.58 52.84 156.4 52.98C156.18 53.17 155.9 53.22 155.63 53.22C155.37 53.22 155.09 53.17 154.87 52.98C154.69 52.84 154.56 52.59 154.5 52.4L154.95 52.4C154.99 52.52 155.07 52.65 155.15 52.72C155.25 52.81 155.41 52.87 155.63 52.87C155.86 52.87 156.02 52.81 156.12 52.72Z" fill="#C2C2C2" fill-opacity="1.000000" fill-rule="nonzero"/>
	<path id="Vector" d="M160.24 55.06C160.2 55.12 160.16 55.18 160.16 55.27C160.16 55.35 160.2 55.41 160.24 55.47L161.17 56.79L160.84 57L159.86 55.59C159.8 55.5 159.75 55.42 159.75 55.26C159.75 55.11 159.8 55.03 159.86 54.94L160.84 53.53L161.17 53.74L160.24 55.06ZM161.37 55.03C161.35 55.06 161.25 55.2 161.25 55.27C161.25 55.32 161.28 55.38 161.37 55.5L161.98 56.35L161.67 56.57L160.99 55.59C160.92 55.49 160.85 55.36 160.85 55.27C160.85 55.17 160.92 55.04 160.99 54.94L161.67 53.96L161.98 54.18L161.37 55.03Z" fill="#C2C2C2" fill-opacity="1.000000" fill-rule="nonzero"/>
	<path id="Vector" d="M163.59 57.33C163.41 57.33 163.21 57.34 163.04 57.18C162.89 57.03 162.88 56.81 162.88 56.62L162.88 52.87C162.88 52.56 162.99 52.42 163.03 52.37C163.18 52.19 163.37 52.18 163.57 52.18L166.66 52.18L166.66 52.53L163.63 52.53C163.55 52.53 163.42 52.56 163.37 52.61C163.28 52.67 163.28 52.81 163.28 52.87L163.28 54.52L166.59 54.52L166.59 54.87L163.28 54.87L163.28 56.71C163.28 56.78 163.3 56.87 163.36 56.91C163.42 56.96 163.6 56.98 163.69 56.98L166.69 56.98L166.69 57.33L163.59 57.33Z" fill="#C2C2C2" fill-opacity="1.000000" fill-rule="nonzero"/>
	<path id="Vector" d="M167.51 52.18L167.92 52.18L167.92 57.33L167.51 57.33L167.51 52.18ZM171.29 57.33L168.66 55.34C168.4 55.13 168.21 54.89 168.21 54.68C168.21 54.48 168.41 54.26 168.58 54.12L171.04 52.18L171.62 52.18L168.94 54.31C168.84 54.39 168.61 54.54 168.61 54.69C168.61 54.85 168.84 55.01 169 55.14L171.9 57.33L171.29 57.33Z" fill="#C2C2C2" fill-opacity="1.000000" fill-rule="nonzero"/>
	<path id="Vector" d="M173.89 57.33C173.04 57.33 172.56 56.98 172.33 56.75C171.88 56.31 171.74 55.7 171.74 54.83C171.74 54.13 171.8 53.34 172.31 52.81C172.49 52.62 172.99 52.18 173.91 52.18L175.92 52.18L175.92 52.53L174.08 52.53C173.7 52.53 173 52.58 172.57 53.13C172.21 53.59 172.18 54.26 172.18 54.84C172.18 55.37 172.21 55.93 172.52 56.35C172.69 56.59 173.11 56.98 173.97 56.98L176 56.98L176 57.33L173.89 57.33L173.89 57.33Z" fill="#C2C2C2" fill-opacity="1.000000" fill-rule="nonzero"/>
	<path id="Vector" d="M176.83 53.96L177.52 54.94C177.58 55.04 177.65 55.17 177.65 55.26C177.65 55.36 177.58 55.49 177.52 55.59L176.84 56.57L176.52 56.35L177.13 55.5C177.22 55.37 177.25 55.32 177.25 55.26C177.25 55.2 177.15 55.06 177.13 55.03L176.52 54.17L176.83 53.96ZM177.66 53.53L178.64 54.94C178.7 55.03 178.75 55.11 178.75 55.26C178.75 55.42 178.7 55.5 178.64 55.59L177.66 57L177.34 56.79L178.26 55.47C178.3 55.41 178.35 55.35 178.35 55.27C178.35 55.18 178.3 55.12 178.26 55.06L177.34 53.74L177.66 53.53Z" fill="#C2C2C2" fill-opacity="1.000000" fill-rule="nonzero"/>
</svg>
