<svg width="180.378906" height="61.200195" viewBox="0 0 180.379 61.2002" fill="none" xmlns="http://www.w3.org/2000/svg" xmlns:xlink="http://www.w3.org/1999/xlink">
	<desc>
			Created with Pixso.
	</desc>
	<defs>
		<clipPath id="clip5269_35777">
			<rect id="Logo" rx="0.000000" width="179.528946" height="60.350002" transform="translate(0.425000 0.425000)" fill="white" fill-opacity="0"/>
		</clipPath>
	</defs>
	<rect id="Logo" rx="0.000000" width="179.528946" height="60.350002" transform="translate(0.425000 0.425000)" fill="#FFFFFF" fill-opacity="0"/>
	<g clip-path="url(#clip5269_35777)">
		<path id="Vector" d="M0.16 52.07L-0.01 52.25C2.34 54.73 5.1 56.77 8.22 58.28C12.08 60.15 16.5 61.19 21.4 61.19C25.63 61.19 29.29 60.46 32.63 59.18C20.66 61.38 11.32 52.79 7.53 42.06L0.16 52.07Z" fill="#C2C2C2" fill-opacity="1.000000" fill-rule="evenodd"/>
		<path id="Vector" d="M7.32 19.45L7.3 19.41C7.57 19.08 7.86 18.75 8.16 18.43L7.32 19.45ZM7.25 19.34L0 8.76C2.27 6.41 4.89 4.49 7.79 3.06C11.83 1.06 16.38 -0.01 21.25 -0.01C25.7 -0.01 29.65 0.79 33.12 2.16L33.05 2.19L32.99 2.17C20.73 -0.48 11.03 8.18 7.25 19.34Z" fill="#C2C2C2" fill-opacity="1.000000" fill-rule="nonzero"/>
		<path id="Vector" d="M7.65 42.06L7.66 42.06L7.68 42.04L7.65 42.06Z" fill="#C2C2C2" fill-opacity="1.000000" fill-rule="nonzero"/>
		<path id="Vector" d="M19.38 17.28L19.37 17.28L6.39 30.23C6.25 30.37 6.15 30.56 6.15 30.78C6.15 31 6.25 31.2 6.4 31.33L6.4 31.34L19.39 44.34L19.39 44.34C19.53 44.49 19.73 44.59 19.95 44.59C20.37 44.59 20.7 44.25 20.7 43.84C20.7 43.81 20.7 43.77 20.7 43.74L20.7 36.34L31.93 36.34C34.98 36.34 37.48 33.85 37.48 30.81C37.48 27.76 34.98 25.27 31.93 25.27L20.7 25.27L20.7 17.77L20.69 17.77C20.69 17.36 20.35 17.03 19.94 17.03C19.72 17.03 19.52 17.12 19.38 17.28Z" fill="#C2C2C2" fill-opacity="1.000000" fill-rule="evenodd"/>
		<path id="Vector" d="M7.18 19.56C10.42 15.5 15.42 12.9 21.03 12.9C30.82 12.9 38.75 20.82 38.75 30.59C38.75 47.15 18.08 54.43 7.53 42.06C11.11 52.28 19.1 59.53 28.61 59.53C30.01 59.53 31.35 59.41 32.63 59.18C36.59 57.66 39.93 55.37 42.67 52.62C47.15 48.11 49.98 42.35 51.19 36.69C51.87 32.23 51.79 27.58 50.93 23.16C49.6 17.93 46.83 12.65 42.59 8.45C39.95 5.85 36.76 3.66 32.99 2.17C31.61 1.87 30.15 1.69 28.61 1.66C18.94 1.66 10.65 9.05 7.18 19.56Z" fill="#C2C2C2" fill-opacity="1.000000" fill-rule="evenodd"/>
		<path id="Vector" d="M59.41 37.36C57.87 35.79 57 33.59 57 31.13C57 28.72 57.89 26.59 59.41 25.06C60.91 23.56 63 22.65 65.45 22.65C66.56 22.65 67.72 22.83 68.81 23.23C69.81 23.58 70.74 24.12 71.5 24.85L71.88 25.21L70.11 27.82L69.59 27.36C69.07 26.9 68.41 26.52 67.7 26.25C67 25.99 66.25 25.83 65.54 25.83C63.98 25.83 62.74 26.38 61.88 27.27C60.95 28.23 60.45 29.59 60.45 31.11C60.45 32.65 60.97 34.08 61.92 35.08C62.79 36.01 64.04 36.58 65.58 36.58C66.36 36.58 67.15 36.41 67.88 36.1C68.62 35.79 69.31 35.33 69.89 34.76L70.39 34.26L72.28 36.79L71.91 37.17C71.21 37.87 70.34 38.52 69.28 39C68.22 39.48 66.97 39.79 65.51 39.79C63 39.79 60.9 38.87 59.41 37.36ZM170.75 39.18C169.82 38.79 168.97 38.22 168.32 37.49L167.97 37.11L169.94 34.7L170.42 35.21C170.79 35.61 171.3 35.99 171.9 36.25C172.42 36.48 173 36.63 173.59 36.63C174.4 36.63 175.07 36.41 175.53 36.01C175.95 35.65 176.19 35.12 176.19 34.45C176.19 33.84 175.98 33.37 175.62 33.05C175.22 32.7 174.63 32.51 173.92 32.51L171.41 32.51L171.41 29.5L173.55 29.5C174.18 29.5 174.74 29.29 175.13 28.95C175.49 28.62 175.71 28.16 175.71 27.62C175.71 27.08 175.54 26.59 175.18 26.26C174.84 25.96 174.32 25.77 173.59 25.77C173.08 25.77 172.54 25.86 172 26.06C171.51 26.25 171.02 26.53 170.54 26.93L169.98 27.41L168.45 24.71L168.84 24.38C169.73 23.65 170.65 23.21 171.52 22.96C172.39 22.72 173.2 22.65 173.9 22.65C175.4 22.65 176.72 23.11 177.67 23.94C178.59 24.76 179.14 25.92 179.14 27.36C179.14 28.32 178.88 29.1 178.48 29.72C178.22 30.13 177.9 30.47 177.55 30.75C178.04 31.03 178.45 31.4 178.78 31.86C179.31 32.58 179.62 33.49 179.62 34.56C179.62 36.13 178.99 37.42 177.96 38.33C176.89 39.27 175.41 39.79 173.77 39.79C172.75 39.79 171.7 39.58 170.75 39.18ZM158.97 39.53L156.19 39.53L156.19 22.91L159.58 22.91L159.58 29.39L160.91 29.39L164.82 22.91L168.64 22.91L163.75 30.86L168.9 39.53L165.01 39.53L160.91 32.48L159.58 32.48L159.58 39.53L158.97 39.53ZM149.25 39.53L142.98 39.53L142.98 22.91L153.31 22.91L153.31 26.01L146.37 26.01L146.37 29.08L149.14 29.08C150.69 29.08 152.04 29.59 152.99 30.53C153.91 31.44 154.45 32.72 154.45 34.34C154.45 35.87 153.91 37.16 153 38.07C152.07 39 150.77 39.53 149.25 39.53ZM146.37 32.18L146.37 36.43L148.9 36.43C149.6 36.43 150.14 36.24 150.49 35.89C150.85 35.54 151.04 35.01 151.04 34.34C151.04 33.66 150.83 33.11 150.47 32.75C150.1 32.38 149.54 32.18 148.86 32.18L146.37 32.18ZM140.03 34.25L133.05 34.25L133.05 31.16L140.65 31.16L140.65 34.25L140.03 34.25ZM117.15 39.53L114.33 39.53L115.7 22.91L118.91 22.91C120.06 25.6 121.72 28.95 122.63 31.62C122.7 31.79 122.77 31.98 122.84 32.16C122.91 31.98 122.98 31.79 123.05 31.62C123.96 28.95 125.62 25.6 126.77 22.91L129.99 22.91L131.33 39.53L127.96 39.53L127.23 29.91L124.19 36.76L121.47 36.76L118.45 29.91L117.72 39.53L117.15 39.53ZM101.11 39.13C100 38.68 99 38.04 98.21 37.26L97.83 36.88L99.71 34.39L100.21 34.89C100.7 35.39 101.38 35.83 102.16 36.14C102.91 36.43 103.74 36.61 104.58 36.61C105.93 36.61 107.09 36.13 107.94 35.35C108.69 34.67 109.22 33.75 109.46 32.7L101.52 32.7L101.52 29.69L109.5 29.69C109.27 28.65 108.75 27.75 108.01 27.08C107.15 26.3 105.97 25.83 104.6 25.83C103.84 25.83 103.1 25.97 102.39 26.24C101.69 26.5 101.03 26.89 100.43 27.41L99.91 27.86L98.18 25.25L98.53 24.9C99.27 24.17 100.2 23.62 101.23 23.24C102.31 22.85 103.5 22.65 104.64 22.65C107.12 22.65 109.2 23.55 110.69 25.04C112.21 26.57 113.09 28.71 113.09 31.11C113.09 33.57 112.18 35.75 110.65 37.31C109.14 38.85 107.02 39.79 104.58 39.79C103.35 39.79 102.18 39.55 101.11 39.13ZM87.23 37.84C86.17 36.55 85.67 34.7 85.67 32.57C85.67 30.49 85.98 28.81 86.8 27.41C87.64 26 88.97 24.91 91.02 24.06L91.02 24.05L95.54 22.11L96.7 24.99L91.91 26.99C90.9 27.44 90.17 27.96 89.68 28.58C89.59 28.7 89.51 28.82 89.43 28.94C89.51 28.9 89.59 28.86 89.66 28.82C90.47 28.41 91.35 28.26 92.22 28.26C93.79 28.26 95.13 28.83 96.08 29.85C96.99 30.84 97.52 32.24 97.52 33.95C97.52 35.65 96.93 37.11 95.89 38.15C94.86 39.18 93.41 39.79 91.69 39.79C89.71 39.79 88.24 39.07 87.23 37.84ZM91.61 37.04C95.03 37.04 94.98 30.93 91.69 30.93C88.27 30.93 88.22 37.04 91.61 37.04ZM75.73 39.53L73.09 39.53L73.09 27.27L76.34 27.27L76.34 34.28L81.14 27.27L84.12 27.27L84.12 39.53L80.84 39.53L80.84 32.66L76.04 39.53L75.73 39.53Z" fill="#C2C2C2" fill-opacity="1.000000" fill-rule="nonzero"/>
		<path id="Vector" d="M60.5 13.37C60.5 13.24 60.47 13.12 60.43 13C60.39 12.89 60.32 12.79 60.24 12.71C60.15 12.62 60.05 12.55 59.92 12.5C59.79 12.46 59.65 12.43 59.48 12.43L58.19 12.43L58.19 14.35L59.48 14.35C59.68 14.35 59.84 14.31 59.98 14.25C60.11 14.18 60.21 14.1 60.29 14C60.37 13.9 60.42 13.79 60.45 13.68C60.48 13.57 60.5 13.46 60.5 13.37ZM57.89 14.94C57.76 14.94 57.66 14.91 57.61 14.85C57.56 14.8 57.53 14.71 57.53 14.59L57.53 10.43C57.53 10.28 57.57 10.17 57.64 10.1C57.71 10.03 57.81 9.99 57.95 9.99L60.54 9.99C60.59 9.99 60.62 10 60.63 10.02C60.64 10.04 60.65 10.07 60.65 10.11L60.65 10.45C60.65 10.49 60.64 10.52 60.63 10.54C60.62 10.56 60.59 10.57 60.54 10.57L58.19 10.57L58.19 11.88L59.47 11.88C59.85 11.88 60.16 11.94 60.38 12.05C60.61 12.16 60.77 12.3 60.89 12.46C61 12.62 61.08 12.79 61.11 12.96C61.14 13.14 61.16 13.29 61.16 13.42C61.16 13.64 61.12 13.85 61.04 14.03C60.96 14.22 60.84 14.38 60.69 14.51C60.55 14.65 60.38 14.75 60.18 14.83C59.98 14.9 59.77 14.94 59.54 14.94L57.89 14.94Z" fill="#C2C2C2" fill-opacity="1.000000" fill-rule="nonzero"/>
		<path id="Vector" d="M63.95 11.75L63.61 10.71L63.58 10.71L63.26 11.71L62.78 13.22L64.42 13.22L63.95 11.75ZM65.13 14.94C65.08 14.94 65.05 14.94 65.02 14.93C65 14.92 64.97 14.89 64.96 14.83L64.6 13.8L62.61 13.8L62.26 14.83C62.23 14.91 62.18 14.94 62.11 14.94L61.63 14.94C61.58 14.94 61.55 14.93 61.54 14.9C61.53 14.88 61.53 14.84 61.54 14.81L63.13 10.26C63.17 10.15 63.21 10.08 63.26 10.04C63.31 10 63.38 9.99 63.49 9.98L63.71 9.98C63.83 9.98 63.92 10 63.96 10.04C64.01 10.09 64.05 10.16 64.09 10.26L65.68 14.81C65.69 14.84 65.69 14.87 65.68 14.9C65.67 14.93 65.64 14.94 65.59 14.94L65.13 14.94Z" fill="#C2C2C2" fill-opacity="1.000000" fill-rule="nonzero"/>
		<path id="Vector" d="M69.17 11.49C69.17 11.39 69.15 11.28 69.12 11.18C69.09 11.07 69.04 10.98 68.96 10.89C68.89 10.8 68.78 10.73 68.65 10.67C68.52 10.61 68.35 10.58 68.16 10.58L66.96 10.58L66.96 12.38L68.17 12.38C68.51 12.38 68.75 12.3 68.92 12.15C69.08 11.99 69.17 11.77 69.17 11.49ZM66.32 10.34C66.32 10.22 66.35 10.13 66.4 10.07C66.45 10.01 66.54 9.98 66.67 9.98L68.32 9.98C68.54 9.98 68.74 10.02 68.93 10.09C69.11 10.16 69.27 10.26 69.4 10.39C69.54 10.52 69.64 10.67 69.72 10.85C69.79 11.03 69.83 11.23 69.83 11.45C69.83 11.58 69.81 11.73 69.77 11.9C69.73 12.08 69.65 12.24 69.53 12.4C69.42 12.55 69.26 12.68 69.05 12.79C68.85 12.9 68.59 12.96 68.27 12.96L66.96 12.96L66.96 14.82C66.96 14.87 66.95 14.91 66.93 14.92C66.91 14.93 66.87 14.94 66.82 14.94L66.45 14.94C66.41 14.94 66.37 14.93 66.35 14.92C66.33 14.91 66.32 14.87 66.32 14.82L66.32 10.34Z" fill="#C2C2C2" fill-opacity="1.000000" fill-rule="nonzero"/>
		<path id="Vector" d="M73.75 10.11C73.75 10.06 73.76 10.03 73.78 10.01C73.8 10 73.83 9.99 73.88 9.99L74.26 9.99C74.31 9.99 74.35 10 74.37 10.01C74.39 10.03 74.4 10.06 74.4 10.11L74.4 14.82C74.4 14.87 74.39 14.9 74.37 14.92C74.35 14.93 74.31 14.94 74.26 14.94L73.88 14.94C73.83 14.94 73.8 14.93 73.78 14.92C73.76 14.9 73.75 14.87 73.75 14.82L73.75 12.62L71.26 12.62L71.26 14.82C71.26 14.87 71.25 14.9 71.23 14.92C71.21 14.93 71.18 14.94 71.12 14.94L70.73 14.94C70.69 14.94 70.65 14.93 70.63 14.92C70.61 14.9 70.59 14.87 70.59 14.82L70.59 10.11C70.59 10.06 70.61 10.03 70.63 10.01C70.65 10 70.69 9.99 70.73 9.99L71.12 9.99C71.18 9.99 71.21 10 71.23 10.01C71.25 10.03 71.26 10.06 71.26 10.11L71.26 12.05L73.75 12.05L73.75 10.11Z" fill="#C2C2C2" fill-opacity="1.000000" fill-rule="nonzero"/>
		<path id="Vector" d="M77.45 11.75L77.12 10.71L77.08 10.71L76.76 11.71L76.28 13.22L77.92 13.22L77.45 11.75ZM78.63 14.94C78.59 14.94 78.55 14.94 78.53 14.93C78.5 14.92 78.48 14.89 78.46 14.83L78.11 13.8L76.11 13.8L75.76 14.83C75.74 14.91 75.69 14.94 75.61 14.94L75.13 14.94C75.08 14.94 75.05 14.93 75.04 14.9C75.03 14.88 75.03 14.84 75.04 14.81L76.64 10.26C76.67 10.15 76.72 10.08 76.76 10.04C76.81 10 76.89 9.99 77 9.98L77.21 9.98C77.34 9.98 77.42 10 77.47 10.04C77.51 10.09 77.55 10.16 77.59 10.26L79.18 14.81C79.19 14.84 79.2 14.87 79.18 14.9C79.17 14.93 79.14 14.94 79.1 14.94L78.63 14.94Z" fill="#C2C2C2" fill-opacity="1.000000" fill-rule="nonzero"/>
		<path id="Vector" d="M81.63 14.22C81.57 14.39 81.5 14.53 81.42 14.64C81.35 14.76 81.27 14.85 81.17 14.91C81.08 14.97 80.97 15.02 80.85 15.04C80.74 15.07 80.61 15.08 80.46 15.08C80.4 15.08 80.32 15.08 80.22 15.07C80.12 15.06 80.02 15.04 79.91 15C79.86 14.99 79.83 14.98 79.82 14.96C79.81 14.95 79.81 14.92 79.82 14.89L79.89 14.54C79.9 14.5 79.91 14.48 79.93 14.47C79.94 14.47 79.97 14.47 80.01 14.47C80.11 14.49 80.2 14.5 80.27 14.51C80.34 14.51 80.41 14.51 80.47 14.51C80.61 14.5 80.72 14.47 80.81 14.41C80.9 14.36 80.98 14.24 81.05 14.08L81.24 13.58L81.12 13.58C81.05 13.58 80.98 13.57 80.93 13.55C80.88 13.53 80.83 13.46 80.78 13.34L79.42 10.07C79.4 10.02 79.42 9.99 79.49 9.99L79.99 9.99C80.03 9.99 80.06 10 80.08 10.02C80.1 10.03 80.11 10.06 80.12 10.09L80.86 11.93L81.35 13.16L81.4 13.16L81.87 11.88L82.56 10.07C82.57 10.03 82.59 10.01 82.61 10C82.63 9.99 82.66 9.99 82.7 9.99L83.14 9.99C83.18 9.99 83.21 10 83.21 10.02C83.22 10.03 83.22 10.06 83.21 10.08L81.63 14.22Z" fill="#C2C2C2" fill-opacity="1.000000" fill-rule="nonzero"/>
		<path id="Vector" d="M84.52 10.43C84.52 10.27 84.57 10.16 84.64 10.09C84.71 10.02 84.81 9.99 84.93 9.99L87.12 9.99C87.4 9.99 87.54 10.14 87.54 10.43L87.54 14.83C87.54 14.88 87.53 14.91 87.51 14.92C87.5 14.94 87.47 14.94 87.43 14.94L87 14.94C86.96 14.94 86.94 14.94 86.92 14.92C86.9 14.91 86.89 14.88 86.89 14.83L86.89 10.57L85.12 10.57L85.06 11.33C85.02 11.87 84.98 12.35 84.94 12.76C84.9 13.18 84.83 13.55 84.74 13.85C84.64 14.16 84.5 14.41 84.32 14.61C84.15 14.81 83.9 14.95 83.58 15.04C83.55 15.05 83.52 15.05 83.49 15.04C83.46 15.03 83.44 15 83.42 14.95L83.35 14.64C83.33 14.58 83.33 14.54 83.35 14.53C83.37 14.51 83.4 14.5 83.42 14.49C83.64 14.4 83.81 14.28 83.93 14.14C84.05 13.99 84.14 13.79 84.2 13.55C84.26 13.31 84.31 13.01 84.34 12.65C84.37 12.29 84.41 11.85 84.44 11.32L84.52 10.43Z" fill="#C2C2C2" fill-opacity="1.000000" fill-rule="nonzero"/>
		<path id="Vector" d="M91.56 13.37C91.56 13.24 91.54 13.12 91.49 13C91.45 12.89 91.38 12.79 91.3 12.71C91.22 12.62 91.11 12.56 90.99 12.51C90.86 12.46 90.72 12.43 90.55 12.43L89.26 12.43L89.26 14.35L90.54 14.35C90.74 14.35 90.91 14.31 91.04 14.25C91.17 14.18 91.28 14.1 91.35 14C91.43 13.9 91.48 13.8 91.51 13.68C91.54 13.57 91.56 13.47 91.56 13.37ZM88.95 14.94C88.83 14.94 88.73 14.91 88.68 14.86C88.62 14.8 88.59 14.71 88.59 14.59L88.59 10.09C88.59 10.05 88.6 10.02 88.62 10C88.64 9.99 88.67 9.99 88.71 9.99L89.14 9.99C89.18 9.99 89.22 9.99 89.23 10C89.25 10.02 89.26 10.05 89.26 10.09L89.26 11.88L90.53 11.88C90.92 11.88 91.22 11.94 91.45 12.05C91.67 12.16 91.84 12.3 91.95 12.46C92.07 12.62 92.14 12.79 92.18 12.97C92.21 13.14 92.22 13.29 92.22 13.42C92.22 13.64 92.18 13.85 92.1 14.03C92.02 14.22 91.9 14.38 91.76 14.51C91.61 14.65 91.44 14.75 91.24 14.83C91.04 14.9 90.83 14.94 90.61 14.94L88.95 14.94Z" fill="#C2C2C2" fill-opacity="1.000000" fill-rule="nonzero"/>
		<path id="Vector" d="M95.09 14.41C95.29 14.41 95.49 14.39 95.68 14.34C95.87 14.29 96.04 14.23 96.21 14.16C96.26 14.13 96.3 14.13 96.32 14.15C96.35 14.17 96.36 14.19 96.37 14.21L96.51 14.51C96.54 14.56 96.54 14.6 96.54 14.62C96.53 14.65 96.5 14.67 96.47 14.69C96.36 14.76 96.24 14.81 96.11 14.85C95.98 14.9 95.85 14.93 95.72 14.95C95.59 14.98 95.46 14.99 95.33 15C95.21 15.01 95.09 15.02 94.97 15.02C94.64 15.02 94.35 14.97 94.09 14.87C93.82 14.77 93.6 14.62 93.43 14.42C93.25 14.21 93.11 13.96 93.01 13.65C92.92 13.33 92.87 12.97 92.87 12.54C92.87 12.14 92.92 11.78 93.02 11.46C93.13 11.14 93.27 10.86 93.46 10.63C93.65 10.4 93.88 10.23 94.14 10.11C94.41 9.98 94.7 9.92 95.02 9.92C95.23 9.92 95.43 9.94 95.65 9.97C95.87 10.01 96.1 10.09 96.34 10.21C96.37 10.23 96.38 10.25 96.39 10.27C96.4 10.29 96.4 10.33 96.37 10.37L96.21 10.7C96.2 10.73 96.18 10.75 96.16 10.76C96.15 10.77 96.12 10.77 96.08 10.75C95.75 10.6 95.41 10.53 95.05 10.53C94.78 10.53 94.55 10.59 94.36 10.7C94.17 10.81 94.01 10.96 93.89 11.15C93.76 11.33 93.67 11.55 93.62 11.79C93.56 12.03 93.53 12.28 93.53 12.54C93.53 12.8 93.56 13.04 93.61 13.26C93.66 13.49 93.74 13.69 93.86 13.86C93.98 14.03 94.14 14.16 94.34 14.26C94.54 14.36 94.79 14.41 95.09 14.41Z" fill="#C2C2C2" fill-opacity="1.000000" fill-rule="nonzero"/>
		<path id="Vector" d="M99.69 12.29C99.81 12.33 99.91 12.38 99.99 12.43C100.07 12.49 100.14 12.55 100.19 12.63C100.25 12.71 100.29 12.79 100.32 12.88C100.36 12.97 100.39 13.07 100.41 13.17L100.86 14.81C100.87 14.84 100.87 14.86 100.86 14.89C100.85 14.93 100.82 14.94 100.77 14.94L100.34 14.94C100.31 14.94 100.29 14.94 100.26 14.93C100.23 14.92 100.21 14.89 100.2 14.85L99.78 13.27C99.74 13.14 99.7 13.02 99.64 12.94C99.59 12.85 99.53 12.78 99.45 12.73C99.38 12.68 99.29 12.64 99.2 12.62C99.1 12.6 99 12.59 98.87 12.59L97.87 12.59L97.87 14.83C97.87 14.88 97.86 14.91 97.85 14.92C97.83 14.94 97.8 14.94 97.76 14.94L97.35 14.94C97.31 14.94 97.28 14.94 97.26 14.92C97.24 14.91 97.23 14.88 97.23 14.83L97.23 10.1C97.23 10.05 97.24 10.02 97.26 10.01C97.28 10 97.31 9.99 97.35 9.99L97.76 9.99C97.81 9.99 97.84 10 97.85 10.01C97.87 10.02 97.87 10.05 97.87 10.1L97.87 12.01L98.81 12.01C98.89 12.01 98.97 12 99.05 11.98C99.14 11.97 99.22 11.93 99.29 11.88C99.37 11.83 99.44 11.76 99.51 11.67C99.58 11.58 99.63 11.45 99.67 11.29L99.99 10.07C100 10.03 100.02 10 100.04 9.99C100.07 9.99 100.09 9.98 100.12 9.98L100.51 9.98C100.56 9.98 100.59 10 100.6 10.03C100.61 10.06 100.61 10.09 100.6 10.11L100.29 11.38C100.24 11.58 100.16 11.76 100.07 11.91C99.97 12.05 99.85 12.17 99.69 12.26L99.69 12.29Z" fill="#C2C2C2" fill-opacity="1.000000" fill-rule="nonzero"/>
		<path id="Vector" d="M104.77 10.86L104.15 11.92L102.51 14.66C102.45 14.76 102.4 14.83 102.35 14.88C102.3 14.92 102.23 14.94 102.12 14.94L101.93 14.94C101.79 14.94 101.7 14.91 101.65 14.85C101.61 14.79 101.58 14.71 101.58 14.59L101.58 10.09C101.58 10.05 101.59 10.02 101.61 10C101.63 9.99 101.66 9.99 101.69 9.99L102.11 9.99C102.15 9.99 102.18 9.99 102.2 10C102.22 10.02 102.22 10.05 102.22 10.09L102.22 14.04L102.24 14.04L102.82 13.08L104.51 10.27C104.57 10.17 104.62 10.09 104.67 10.05C104.72 10.01 104.79 9.99 104.89 9.99L105.09 9.99C105.23 9.99 105.32 10.02 105.37 10.08C105.42 10.13 105.44 10.22 105.44 10.34L105.44 14.83C105.44 14.88 105.43 14.91 105.41 14.92C105.39 14.94 105.36 14.94 105.33 14.94L104.91 14.94C104.87 14.94 104.84 14.94 104.82 14.92C104.8 14.91 104.8 14.88 104.8 14.83L104.8 10.86L104.77 10.86Z" fill="#C2C2C2" fill-opacity="1.000000" fill-rule="nonzero"/>
		<path id="Vector" d="M108.36 9.76C108.13 9.76 107.91 9.69 107.72 9.54C107.53 9.4 107.36 9.22 107.23 9.02C107.22 9 107.21 8.99 107.2 8.96C107.19 8.94 107.21 8.91 107.25 8.88L107.38 8.76C107.42 8.74 107.45 8.73 107.47 8.74C107.48 8.75 107.5 8.76 107.54 8.79C107.67 8.94 107.82 9.06 107.96 9.15C108.11 9.23 108.26 9.27 108.39 9.27C108.5 9.27 108.62 9.24 108.75 9.18C108.89 9.11 109.05 8.98 109.25 8.77C109.29 8.74 109.31 8.72 109.33 8.73C109.34 8.73 109.36 8.74 109.38 8.75L109.52 8.86C109.56 8.9 109.58 8.93 109.57 8.96C109.56 8.98 109.55 9 109.54 9.01C109.35 9.28 109.14 9.47 108.94 9.59C108.73 9.7 108.54 9.76 108.36 9.76ZM109.69 10.86L109.07 11.92L107.43 14.66C107.37 14.76 107.32 14.83 107.27 14.88C107.22 14.92 107.15 14.94 107.04 14.94L106.85 14.94C106.71 14.94 106.62 14.91 106.57 14.85C106.52 14.79 106.5 14.71 106.5 14.59L106.5 10.09C106.5 10.05 106.51 10.02 106.53 10C106.55 9.99 106.57 9.99 106.61 9.99L107.03 9.99C107.07 9.99 107.1 9.99 107.12 10C107.13 10.02 107.14 10.05 107.14 10.09L107.14 14.04L107.16 14.04L107.73 13.08L109.42 10.27C109.49 10.17 109.54 10.09 109.59 10.05C109.63 10.01 109.71 9.99 109.81 9.99L110.01 9.99C110.15 9.99 110.24 10.02 110.29 10.08C110.33 10.13 110.36 10.22 110.36 10.34L110.36 14.83C110.36 14.88 110.35 14.91 110.33 14.92C110.31 14.94 110.28 14.94 110.24 14.94L109.83 14.94C109.78 14.94 109.75 14.94 109.74 14.92C109.72 14.91 109.71 14.88 109.71 14.83L109.71 10.86L109.69 10.86Z" fill="#C2C2C2" fill-opacity="1.000000" fill-rule="nonzero"/>
		<path id="Vector" d="M115.78 12.29C115.9 12.33 116 12.38 116.08 12.43C116.16 12.49 116.23 12.55 116.28 12.63C116.34 12.71 116.38 12.79 116.41 12.88C116.45 12.97 116.48 13.07 116.5 13.17L116.95 14.81C116.96 14.84 116.96 14.86 116.95 14.89C116.94 14.93 116.91 14.94 116.86 14.94L116.43 14.94C116.4 14.94 116.38 14.94 116.35 14.93C116.32 14.92 116.3 14.89 116.29 14.85L115.87 13.27C115.83 13.14 115.79 13.02 115.74 12.94C115.68 12.85 115.62 12.78 115.54 12.73C115.47 12.68 115.38 12.64 115.29 12.62C115.19 12.6 115.09 12.59 114.96 12.59L113.96 12.59L113.96 14.83C113.96 14.88 113.95 14.91 113.94 14.92C113.92 14.94 113.89 14.94 113.85 14.94L113.44 14.94C113.4 14.94 113.37 14.94 113.35 14.92C113.33 14.91 113.32 14.88 113.32 14.83L113.32 10.1C113.32 10.05 113.33 10.02 113.35 10.01C113.37 10 113.4 9.99 113.44 9.99L113.85 9.99C113.9 9.99 113.93 10 113.94 10.01C113.96 10.02 113.97 10.05 113.96 10.1L113.96 12.01L114.9 12.01C114.98 12.01 115.06 12 115.14 11.98C115.23 11.97 115.31 11.93 115.39 11.88C115.46 11.83 115.53 11.76 115.6 11.67C115.67 11.58 115.72 11.45 115.76 11.29L116.08 10.07C116.09 10.03 116.11 10 116.13 9.99C116.16 9.99 116.18 9.98 116.21 9.98L116.6 9.98C116.65 9.98 116.69 10 116.69 10.03C116.7 10.06 116.7 10.09 116.69 10.11L116.38 11.38C116.33 11.58 116.25 11.76 116.16 11.91C116.06 12.05 115.94 12.17 115.78 12.26L115.78 12.29Z" fill="#C2C2C2" fill-opacity="1.000000" fill-rule="nonzero"/>
		<path id="Vector" d="M121.07 12.47C121.07 12.21 121.05 11.97 121.01 11.73C120.97 11.49 120.9 11.28 120.79 11.1C120.68 10.91 120.54 10.77 120.36 10.66C120.17 10.55 119.94 10.49 119.65 10.49C119.4 10.49 119.18 10.55 118.99 10.65C118.81 10.75 118.66 10.89 118.54 11.07C118.42 11.25 118.33 11.46 118.27 11.7C118.21 11.93 118.18 12.18 118.18 12.45C118.18 12.74 118.2 13 118.25 13.25C118.3 13.49 118.38 13.7 118.49 13.88C118.6 14.05 118.74 14.19 118.93 14.29C119.11 14.39 119.34 14.44 119.62 14.44C119.89 14.44 120.12 14.38 120.31 14.28C120.5 14.17 120.65 14.02 120.76 13.84C120.87 13.65 120.95 13.44 121 13.21C121.05 12.97 121.07 12.73 121.07 12.47ZM121.73 12.45C121.73 13.27 121.56 13.91 121.2 14.35C120.84 14.8 120.32 15.02 119.61 15.02C118.92 15.02 118.4 14.8 118.05 14.36C117.7 13.92 117.53 13.29 117.53 12.47C117.53 12.06 117.58 11.7 117.69 11.38C117.79 11.06 117.94 10.8 118.13 10.58C118.31 10.36 118.53 10.2 118.79 10.08C119.05 9.97 119.33 9.91 119.63 9.91C119.97 9.91 120.28 9.97 120.54 10.09C120.8 10.2 121.02 10.37 121.2 10.59C121.38 10.81 121.51 11.07 121.6 11.38C121.69 11.7 121.73 12.05 121.73 12.45Z" fill="#C2C2C2" fill-opacity="1.000000" fill-rule="nonzero"/>
		<path id="Vector" d="M123.7 10.57L122.33 10.57C122.29 10.57 122.26 10.56 122.25 10.54C122.23 10.52 122.23 10.5 122.23 10.45L122.23 10.11C122.23 10.07 122.23 10.04 122.25 10.02C122.26 10 122.29 9.99 122.33 9.99L125.79 9.99C125.83 9.99 125.86 10 125.87 10.02C125.88 10.04 125.89 10.07 125.89 10.11L125.89 10.45C125.89 10.5 125.88 10.52 125.87 10.54C125.86 10.56 125.83 10.57 125.79 10.57L124.37 10.57L124.37 14.82C124.37 14.87 124.36 14.9 124.34 14.92C124.32 14.93 124.29 14.94 124.24 14.94L123.84 14.94C123.79 14.94 123.76 14.93 123.74 14.92C123.72 14.9 123.7 14.87 123.7 14.82L123.7 10.57Z" fill="#C2C2C2" fill-opacity="1.000000" fill-rule="nonzero"/>
		<path id="Vector" d="M129.79 14.91C129.77 14.93 129.73 14.94 129.68 14.94L127.71 14.94C127.48 14.94 127.29 14.91 127.14 14.84C126.98 14.78 126.86 14.69 126.77 14.58C126.68 14.47 126.61 14.34 126.57 14.2C126.54 14.05 126.52 13.9 126.52 13.73L126.52 11.2C126.52 11.04 126.54 10.89 126.58 10.74C126.62 10.59 126.69 10.46 126.79 10.35C126.89 10.24 127.01 10.15 127.16 10.09C127.31 10.02 127.5 9.99 127.71 9.99L129.64 9.99C129.69 9.99 129.73 10 129.74 10.02C129.76 10.05 129.77 10.08 129.77 10.14L129.77 10.43C129.77 10.48 129.76 10.52 129.74 10.54C129.73 10.56 129.69 10.57 129.64 10.57L127.72 10.57C127.52 10.57 127.38 10.62 127.29 10.7C127.2 10.79 127.16 10.93 127.16 11.11L127.16 12.03L129.41 12.03C129.46 12.03 129.49 12.04 129.51 12.06C129.53 12.09 129.53 12.13 129.53 12.18L129.53 12.45C129.53 12.49 129.53 12.53 129.51 12.55C129.49 12.58 129.46 12.59 129.41 12.59L127.16 12.59L127.16 13.82C127.16 13.98 127.2 14.11 127.29 14.2C127.37 14.3 127.52 14.35 127.72 14.35L129.68 14.35C129.73 14.35 129.77 14.36 129.79 14.38C129.8 14.41 129.81 14.44 129.81 14.5L129.81 14.79C129.81 14.84 129.8 14.88 129.79 14.91Z" fill="#C2C2C2" fill-opacity="1.000000" fill-rule="nonzero"/>
		<path id="Vector" d="M131.3 10.43C131.31 10.27 131.35 10.16 131.42 10.09C131.5 10.02 131.6 9.99 131.72 9.99L133.91 9.99C134.19 9.99 134.33 10.14 134.33 10.43L134.33 14.83C134.33 14.88 134.32 14.91 134.3 14.92C134.28 14.94 134.25 14.94 134.21 14.94L133.79 14.94C133.75 14.94 133.72 14.94 133.7 14.92C133.68 14.91 133.67 14.88 133.67 14.83L133.67 10.57L131.9 10.57L131.85 11.33C131.81 11.87 131.77 12.35 131.73 12.76C131.69 13.18 131.62 13.55 131.52 13.85C131.43 14.16 131.29 14.41 131.11 14.61C130.93 14.81 130.68 14.95 130.36 15.04C130.33 15.05 130.31 15.05 130.28 15.04C130.25 15.03 130.22 15 130.21 14.95L130.14 14.64C130.12 14.58 130.12 14.54 130.14 14.53C130.16 14.51 130.18 14.5 130.21 14.49C130.42 14.4 130.59 14.28 130.71 14.14C130.83 13.99 130.92 13.79 130.99 13.55C131.05 13.31 131.1 13.01 131.13 12.65C131.16 12.29 131.19 11.85 131.23 11.32L131.3 10.43Z" fill="#C2C2C2" fill-opacity="1.000000" fill-rule="nonzero"/>
		<path id="Vector" d="M138.35 13.37C138.35 13.24 138.32 13.12 138.28 13C138.23 12.89 138.17 12.79 138.09 12.71C138 12.62 137.9 12.56 137.77 12.51C137.65 12.46 137.5 12.43 137.34 12.43L136.04 12.43L136.04 14.35L137.32 14.35C137.53 14.35 137.69 14.31 137.82 14.25C137.96 14.18 138.06 14.1 138.14 14C138.22 13.9 138.27 13.8 138.3 13.68C138.33 13.57 138.35 13.47 138.35 13.37ZM135.74 14.94C135.61 14.94 135.52 14.91 135.46 14.86C135.41 14.8 135.38 14.71 135.38 14.59L135.38 10.09C135.38 10.05 135.39 10.02 135.41 10C135.43 9.99 135.45 9.99 135.49 9.99L135.93 9.99C135.97 9.99 136 9.99 136.02 10C136.03 10.02 136.04 10.05 136.04 10.09L136.04 11.88L137.32 11.88C137.7 11.88 138.01 11.94 138.23 12.05C138.45 12.16 138.62 12.3 138.74 12.46C138.85 12.62 138.93 12.79 138.96 12.97C138.99 13.14 139.01 13.29 139.01 13.42C139.01 13.64 138.97 13.85 138.89 14.03C138.8 14.22 138.69 14.38 138.54 14.51C138.4 14.65 138.23 14.75 138.03 14.83C137.83 14.9 137.62 14.94 137.39 14.94L135.74 14.94Z" fill="#C2C2C2" fill-opacity="1.000000" fill-rule="nonzero"/>
		<path id="Vector" d="M142.95 10.11C142.95 10.06 142.96 10.03 142.98 10.01C143 10 143.03 9.99 143.08 9.99L143.46 9.99C143.51 9.99 143.55 10 143.57 10.01C143.59 10.03 143.6 10.06 143.6 10.11L143.6 14.82C143.6 14.87 143.59 14.9 143.57 14.92C143.55 14.93 143.51 14.94 143.46 14.94L143.08 14.94C143.03 14.94 143 14.93 142.98 14.92C142.96 14.9 142.95 14.87 142.95 14.82L142.95 12.62L140.46 12.62L140.46 14.82C140.46 14.87 140.45 14.9 140.43 14.92C140.41 14.93 140.38 14.94 140.32 14.94L139.93 14.94C139.89 14.94 139.86 14.93 139.83 14.92C139.81 14.9 139.8 14.87 139.8 14.82L139.8 10.11C139.8 10.06 139.81 10.03 139.83 10.01C139.86 10 139.89 9.99 139.93 9.99L140.32 9.99C140.38 9.99 140.41 10 140.43 10.01C140.45 10.03 140.46 10.06 140.46 10.11L140.46 12.05L142.95 12.05L142.95 10.11Z" fill="#C2C2C2" fill-opacity="1.000000" fill-rule="nonzero"/>
		<path id="Vector" d="M149.44 14.83C149.44 14.88 149.43 14.91 149.41 14.92C149.39 14.94 149.36 14.94 149.32 14.94L148.89 14.94C148.85 14.94 148.82 14.94 148.81 14.92C148.79 14.91 148.78 14.88 148.78 14.83L148.78 10.1C148.78 10.05 148.79 10.02 148.81 10.01C148.82 10 148.85 9.99 148.89 9.99L149.32 9.99C149.36 9.99 149.39 10 149.41 10.01C149.43 10.02 149.44 10.05 149.44 10.1L149.44 14.83ZM147.62 13.37C147.62 13.24 147.6 13.12 147.56 13C147.51 12.89 147.45 12.79 147.36 12.71C147.28 12.62 147.17 12.56 147.05 12.51C146.93 12.46 146.78 12.43 146.62 12.43L145.32 12.43L145.32 14.35L146.6 14.35C146.81 14.35 146.97 14.31 147.1 14.25C147.23 14.18 147.34 14.1 147.42 14C147.49 13.9 147.55 13.8 147.58 13.68C147.61 13.57 147.62 13.47 147.62 13.37ZM145.02 14.94C144.89 14.94 144.8 14.91 144.74 14.86C144.69 14.8 144.66 14.71 144.66 14.59L144.66 10.09C144.66 10.05 144.67 10.02 144.69 10C144.7 9.99 144.73 9.99 144.77 9.99L145.21 9.99C145.25 9.99 145.28 9.99 145.3 10C145.31 10.02 145.32 10.05 145.32 10.09L145.32 11.88L146.6 11.88C146.98 11.88 147.29 11.94 147.51 12.05C147.73 12.16 147.9 12.3 148.02 12.46C148.13 12.62 148.21 12.79 148.24 12.97C148.27 13.14 148.29 13.29 148.29 13.42C148.29 13.64 148.25 13.85 148.17 14.03C148.08 14.22 147.97 14.38 147.82 14.51C147.68 14.65 147.5 14.75 147.31 14.83C147.11 14.9 146.9 14.94 146.67 14.94L145.02 14.94Z" fill="#C2C2C2" fill-opacity="1.000000" fill-rule="nonzero"/>
		<path id="Vector" d="M152.36 9.76C152.12 9.76 151.91 9.69 151.72 9.54C151.52 9.4 151.36 9.22 151.22 9.02C151.21 9 151.2 8.99 151.2 8.96C151.19 8.94 151.2 8.91 151.24 8.88L151.38 8.76C151.42 8.74 151.45 8.73 151.46 8.74C151.48 8.75 151.5 8.76 151.53 8.79C151.67 8.94 151.81 9.06 151.96 9.15C152.11 9.23 152.25 9.27 152.39 9.27C152.49 9.27 152.61 9.24 152.75 9.18C152.88 9.11 153.05 8.98 153.24 8.77C153.28 8.74 153.31 8.72 153.32 8.73C153.33 8.73 153.35 8.74 153.38 8.75L153.52 8.86C153.56 8.9 153.57 8.93 153.56 8.96C153.56 8.98 153.55 9 153.54 9.01C153.34 9.28 153.14 9.47 152.93 9.59C152.73 9.7 152.54 9.76 152.36 9.76ZM153.68 10.86L153.07 11.92L151.43 14.66C151.37 14.76 151.31 14.83 151.26 14.88C151.22 14.92 151.14 14.94 151.04 14.94L150.84 14.94C150.71 14.94 150.62 14.91 150.57 14.85C150.52 14.79 150.49 14.71 150.49 14.59L150.49 10.09C150.49 10.05 150.5 10.02 150.52 10C150.54 9.99 150.57 9.99 150.61 9.99L151.02 9.99C151.07 9.99 151.1 9.99 151.11 10C151.13 10.02 151.14 10.05 151.14 10.09L151.14 14.04L151.16 14.04L151.73 13.08L153.42 10.27C153.48 10.17 153.53 10.09 153.58 10.05C153.63 10.01 153.7 9.99 153.81 9.99L154 9.99C154.14 9.99 154.23 10.02 154.28 10.08C154.33 10.13 154.35 10.22 154.35 10.34L154.35 14.83C154.35 14.88 154.34 14.91 154.32 14.92C154.3 14.94 154.28 14.94 154.24 14.94L153.82 14.94C153.78 14.94 153.75 14.94 153.73 14.92C153.72 14.91 153.71 14.88 153.71 14.83L153.71 10.86L153.68 10.86Z" fill="#C2C2C2" fill-opacity="1.000000" fill-rule="nonzero"/>
		<path id="Vector" d="M158.72 10.5C158.49 10.5 158.27 10.52 158.06 10.58C157.85 10.63 157.66 10.69 157.49 10.76C157.44 10.79 157.4 10.79 157.38 10.77C157.35 10.76 157.34 10.74 157.33 10.71L157.21 10.43C157.19 10.37 157.18 10.33 157.19 10.31C157.2 10.29 157.22 10.27 157.25 10.25C157.48 10.12 157.72 10.03 157.98 9.98C158.24 9.93 158.5 9.91 158.75 9.91C159 9.91 159.22 9.94 159.42 9.99C159.63 10.04 159.8 10.12 159.95 10.23C160.1 10.33 160.22 10.46 160.3 10.62C160.38 10.77 160.42 10.95 160.42 11.15C160.42 11.42 160.34 11.65 160.18 11.85C160.03 12.05 159.82 12.2 159.57 12.29L159.57 12.33C159.71 12.35 159.85 12.4 159.98 12.46C160.1 12.53 160.21 12.62 160.31 12.72C160.4 12.82 160.48 12.94 160.53 13.07C160.58 13.2 160.61 13.34 160.61 13.49C160.61 13.71 160.56 13.92 160.46 14.1C160.37 14.29 160.24 14.45 160.07 14.58C159.9 14.72 159.69 14.82 159.45 14.9C159.21 14.98 158.95 15.02 158.66 15.02C158.54 15.02 158.41 15.01 158.26 15C158.12 14.99 157.97 14.98 157.82 14.95C157.68 14.93 157.53 14.9 157.39 14.85C157.24 14.81 157.11 14.75 156.99 14.69C156.97 14.66 156.95 14.64 156.94 14.62C156.93 14.6 156.94 14.56 156.97 14.51L157.09 14.23C157.11 14.21 157.13 14.19 157.15 14.17C157.17 14.15 157.21 14.15 157.27 14.18C157.36 14.21 157.45 14.25 157.55 14.28C157.66 14.31 157.76 14.34 157.88 14.36C157.99 14.39 158.1 14.41 158.22 14.42C158.34 14.44 158.45 14.45 158.56 14.45C159.01 14.45 159.36 14.35 159.58 14.17C159.81 13.99 159.93 13.75 159.93 13.45C159.93 13.34 159.9 13.23 159.85 13.13C159.8 13.03 159.73 12.94 159.63 12.86C159.53 12.78 159.41 12.72 159.25 12.67C159.11 12.62 158.93 12.6 158.73 12.6L158.34 12.6C158.25 12.6 158.19 12.59 158.15 12.56C158.12 12.53 158.1 12.47 158.1 12.39L158.1 12.25C158.1 12.1 158.17 12.03 158.31 12.03L158.7 12.03C159.03 12.03 159.29 11.95 159.48 11.8C159.66 11.65 159.76 11.45 159.76 11.2C159.76 11.07 159.73 10.96 159.68 10.87C159.62 10.79 159.55 10.71 159.45 10.66C159.36 10.6 159.25 10.56 159.12 10.53C159 10.51 158.86 10.5 158.72 10.5Z" fill="#C2C2C2" fill-opacity="1.000000" fill-rule="nonzero"/>
		<path id="Vector" d="M163.42 11.75L163.09 10.71L163.06 10.71L162.74 11.71L162.26 13.22L163.9 13.22L163.42 11.75ZM164.61 14.94C164.56 14.94 164.53 14.94 164.5 14.93C164.48 14.92 164.45 14.89 164.44 14.83L164.08 13.8L162.09 13.8L161.74 14.83C161.71 14.91 161.66 14.94 161.59 14.94L161.11 14.94C161.06 14.94 161.03 14.93 161.02 14.9C161.01 14.88 161.01 14.84 161.02 14.81L162.61 10.26C162.65 10.15 162.69 10.08 162.74 10.04C162.79 10 162.86 9.99 162.97 9.98L163.19 9.98C163.31 9.98 163.4 10 163.44 10.04C163.49 10.09 163.53 10.16 163.57 10.26L165.16 14.81C165.17 14.84 165.17 14.87 165.16 14.9C165.15 14.93 165.12 14.94 165.07 14.94L164.61 14.94Z" fill="#C2C2C2" fill-opacity="1.000000" fill-rule="nonzero"/>
		<path id="Vector" d="M168.77 13.42C168.77 13.15 168.69 12.93 168.52 12.77C168.34 12.6 168.09 12.52 167.76 12.52L166.45 12.52L166.45 14.35L167.76 14.35C167.97 14.35 168.13 14.31 168.27 14.25C168.4 14.19 168.5 14.12 168.58 14.02C168.65 13.93 168.7 13.83 168.73 13.72C168.76 13.62 168.77 13.51 168.77 13.42ZM166.45 11.99L167.75 11.99C167.82 11.99 167.91 11.97 168 11.95C168.1 11.93 168.19 11.89 168.27 11.84C168.35 11.79 168.42 11.71 168.47 11.61C168.53 11.52 168.55 11.39 168.55 11.24C168.55 11.04 168.49 10.88 168.35 10.76C168.22 10.63 168.04 10.57 167.81 10.57L166.45 10.57L166.45 11.99ZM168.62 12.23C168.77 12.28 168.89 12.35 168.99 12.43C169.1 12.52 169.18 12.62 169.25 12.73C169.31 12.84 169.36 12.96 169.39 13.09C169.42 13.21 169.44 13.34 169.44 13.47C169.44 13.69 169.4 13.89 169.31 14.07C169.23 14.25 169.12 14.4 168.98 14.53C168.83 14.66 168.66 14.76 168.47 14.83C168.27 14.9 168.06 14.94 167.83 14.94L166.16 14.94C166.03 14.94 165.94 14.91 165.88 14.85C165.83 14.8 165.8 14.71 165.8 14.59L165.8 10.35C165.8 10.22 165.83 10.13 165.88 10.07C165.93 10.01 166.02 9.99 166.16 9.99L167.73 9.98C167.95 9.98 168.15 10 168.33 10.05C168.51 10.09 168.66 10.16 168.8 10.26C168.93 10.36 169.03 10.49 169.11 10.64C169.18 10.79 169.22 10.98 169.22 11.19C169.22 11.41 169.17 11.6 169.06 11.78C168.95 11.95 168.8 12.09 168.62 12.18L168.62 12.23Z" fill="#C2C2C2" fill-opacity="1.000000" fill-rule="nonzero"/>
		<path id="Vector" d="M173.76 12.47C173.76 12.21 173.74 11.97 173.7 11.73C173.66 11.49 173.58 11.28 173.48 11.1C173.37 10.91 173.23 10.77 173.04 10.66C172.86 10.55 172.62 10.49 172.34 10.49C172.08 10.49 171.86 10.55 171.68 10.65C171.49 10.75 171.34 10.89 171.22 11.07C171.1 11.25 171.01 11.46 170.95 11.7C170.9 11.93 170.87 12.18 170.87 12.45C170.87 12.74 170.89 13 170.94 13.25C170.98 13.49 171.06 13.7 171.17 13.88C171.28 14.05 171.43 14.19 171.61 14.29C171.8 14.39 172.03 14.44 172.31 14.44C172.58 14.44 172.81 14.38 173 14.28C173.18 14.17 173.33 14.02 173.45 13.84C173.56 13.65 173.64 13.44 173.68 13.21C173.73 12.97 173.76 12.73 173.76 12.47ZM174.42 12.45C174.42 13.27 174.24 13.91 173.89 14.35C173.53 14.8 173 15.02 172.3 15.02C171.6 15.02 171.08 14.8 170.73 14.36C170.39 13.92 170.22 13.29 170.22 12.47C170.22 12.06 170.27 11.7 170.37 11.38C170.48 11.06 170.63 10.8 170.81 10.58C171 10.36 171.22 10.2 171.48 10.08C171.73 9.97 172.01 9.91 172.31 9.91C172.66 9.91 172.96 9.97 173.23 10.09C173.49 10.2 173.71 10.37 173.89 10.59C174.06 10.81 174.2 11.07 174.29 11.38C174.38 11.7 174.42 12.05 174.42 12.45Z" fill="#C2C2C2" fill-opacity="1.000000" fill-rule="nonzero"/>
		<path id="Vector" d="M176.29 13.1C176.27 13.29 176.24 13.45 176.22 13.58C176.19 13.71 176.16 13.82 176.13 13.92C176.1 14.01 176.07 14.09 176.03 14.16C176 14.22 175.96 14.29 175.92 14.35L178.41 14.35L178.41 10.57L176.61 10.57L176.29 13.1ZM175.42 14.94L175.35 15.99C175.35 16.06 175.32 16.1 175.26 16.1L174.91 16.1C174.89 16.1 174.86 16.09 174.85 16.08C174.84 16.06 174.83 16.04 174.82 15.99L174.73 14.62C174.73 14.55 174.74 14.49 174.78 14.45C174.81 14.4 174.88 14.37 174.97 14.36L175.2 14.35C175.28 14.26 175.34 14.16 175.4 14.06C175.45 13.95 175.5 13.84 175.54 13.71C175.57 13.58 175.61 13.44 175.63 13.28C175.66 13.13 175.68 12.94 175.71 12.74L176 10.48C176.03 10.33 176.07 10.21 176.14 10.12C176.21 10.03 176.33 9.99 176.49 9.99L178.62 9.99C178.77 9.99 178.88 10.02 178.95 10.1C179.02 10.17 179.06 10.28 179.06 10.43L179.06 14.36L179.3 14.37C179.37 14.38 179.43 14.4 179.47 14.45C179.52 14.49 179.54 14.56 179.54 14.65L179.46 15.99C179.45 16.04 179.44 16.06 179.43 16.08C179.42 16.09 179.39 16.1 179.37 16.1L179.02 16.1C179 16.1 178.98 16.09 178.96 16.08C178.95 16.06 178.94 16.04 178.94 15.99L178.9 14.94L175.42 14.94Z" fill="#C2C2C2" fill-opacity="1.000000" fill-rule="nonzero"/>
		<path id="Vector" d="M102.06 51.68C102.06 51.74 102.05 51.78 102.03 51.79C102.01 51.81 101.97 51.82 101.92 51.82L101.57 51.82C101.52 51.82 101.48 51.81 101.45 51.79C101.43 51.78 101.42 51.74 101.42 51.68L101.42 48.08C101.42 47.92 101.44 47.77 101.48 47.62C101.52 47.47 101.58 47.34 101.68 47.23C101.77 47.12 101.89 47.03 102.04 46.96C102.2 46.9 102.39 46.86 102.61 46.86L104.51 46.86C104.56 46.86 104.6 46.88 104.62 46.9C104.63 46.92 104.64 46.96 104.64 47.01L104.64 47.3C104.64 47.36 104.63 47.4 104.62 47.42C104.6 47.44 104.56 47.45 104.51 47.45L102.62 47.45C102.42 47.45 102.28 47.49 102.19 47.58C102.1 47.66 102.06 47.8 102.06 47.98L102.06 51.68Z" fill="#C2C2C2" fill-opacity="1.000000" fill-rule="nonzero"/>
		<path id="Vector" d="M107.71 49.96C107.71 49.7 107.68 49.49 107.63 49.31C107.58 49.13 107.5 48.99 107.41 48.88C107.31 48.77 107.2 48.69 107.06 48.64C106.93 48.59 106.78 48.57 106.61 48.57C106.48 48.57 106.34 48.58 106.19 48.6C106.03 48.63 105.9 48.66 105.79 48.7L105.79 51.23C105.97 51.29 106.13 51.32 106.26 51.33C106.39 51.35 106.5 51.36 106.61 51.36C106.77 51.36 106.92 51.33 107.05 51.29C107.19 51.24 107.3 51.16 107.4 51.05C107.5 50.94 107.57 50.79 107.63 50.61C107.68 50.44 107.71 50.22 107.71 49.96ZM108.35 49.96C108.35 50.23 108.32 50.48 108.25 50.71C108.18 50.95 108.08 51.15 107.94 51.33C107.81 51.5 107.64 51.64 107.43 51.75C107.22 51.85 106.98 51.9 106.71 51.9C106.58 51.9 106.44 51.89 106.28 51.87C106.13 51.86 105.97 51.83 105.79 51.78L105.79 53.15C105.79 53.19 105.79 53.22 105.77 53.23C105.75 53.24 105.72 53.25 105.69 53.25L105.29 53.25C105.25 53.25 105.22 53.24 105.21 53.23C105.19 53.22 105.18 53.19 105.18 53.15L105.18 48.41C105.18 48.35 105.21 48.31 105.26 48.29C105.5 48.19 105.74 48.12 105.99 48.08C106.24 48.05 106.48 48.03 106.7 48.03C106.99 48.03 107.23 48.08 107.44 48.18C107.65 48.27 107.82 48.41 107.95 48.58C108.09 48.75 108.19 48.96 108.25 49.19C108.32 49.43 108.35 49.68 108.35 49.96Z" fill="#C2C2C2" fill-opacity="1.000000" fill-rule="nonzero"/>
		<path id="Vector" d="M110.63 52.43C110.52 52.75 110.38 52.98 110.21 53.11C110.04 53.23 109.82 53.3 109.56 53.3C109.49 53.3 109.41 53.29 109.31 53.28C109.21 53.27 109.1 53.25 108.99 53.22C108.91 53.2 108.88 53.16 108.9 53.11L108.98 52.79C108.99 52.76 109 52.73 109.02 52.73C109.04 52.72 109.07 52.72 109.1 52.73C109.19 52.75 109.26 52.77 109.3 52.78C109.35 52.78 109.4 52.79 109.46 52.79C109.62 52.79 109.75 52.75 109.85 52.69C109.95 52.63 110.03 52.5 110.09 52.31C110.09 52.3 110.11 52.27 110.12 52.21C110.14 52.16 110.16 52.11 110.18 52.05C110.21 51.99 110.22 51.93 110.24 51.88C110.26 51.83 110.27 51.8 110.27 51.78L110.14 51.78C110.07 51.78 110.01 51.77 109.97 51.75C109.92 51.73 109.87 51.66 109.83 51.54L108.75 48.19C108.73 48.13 108.75 48.11 108.81 48.11L109.28 48.11C109.34 48.11 109.37 48.13 109.38 48.18C109.39 48.21 109.41 48.28 109.44 48.37C109.47 48.47 109.51 48.58 109.55 48.71C109.6 48.84 109.64 48.98 109.69 49.13C109.73 49.28 109.78 49.42 109.82 49.55C109.86 49.68 109.9 49.79 109.93 49.89C109.96 49.99 109.98 50.05 109.99 50.08L110.35 51.32L110.39 51.32C110.41 51.29 110.44 51.2 110.48 51.07C110.52 50.94 110.56 50.8 110.61 50.65C110.65 50.5 110.7 50.37 110.74 50.25C110.78 50.13 110.8 50.06 110.8 50.05C110.81 50.04 110.82 50 110.85 49.92C110.87 49.84 110.91 49.75 110.95 49.63C110.99 49.51 111.03 49.38 111.08 49.24C111.13 49.1 111.17 48.97 111.22 48.83C111.26 48.69 111.3 48.57 111.34 48.45C111.38 48.34 111.41 48.25 111.44 48.18C111.45 48.13 111.49 48.11 111.54 48.11L111.99 48.11C112.05 48.11 112.07 48.13 112.05 48.19L110.63 52.43Z" fill="#C2C2C2" fill-opacity="1.000000" fill-rule="nonzero"/>
		<path id="Vector" d="M113.18 51.8C113.16 51.81 113.13 51.82 113.09 51.82L112.7 51.82C112.67 51.82 112.64 51.81 112.62 51.8C112.6 51.79 112.59 51.76 112.59 51.71L112.59 48.4C112.59 48.35 112.61 48.29 112.65 48.22C112.7 48.14 112.77 48.11 112.89 48.11L115.42 48.11C115.54 48.11 115.61 48.14 115.66 48.22C115.7 48.29 115.72 48.35 115.72 48.4L115.72 51.71C115.72 51.76 115.71 51.79 115.7 51.8C115.68 51.81 115.65 51.82 115.61 51.82L115.22 51.82C115.18 51.82 115.15 51.81 115.13 51.8C115.12 51.79 115.11 51.76 115.11 51.71L115.11 48.65L113.21 48.65L113.21 51.71C113.21 51.76 113.2 51.79 113.18 51.8Z" fill="#C2C2C2" fill-opacity="1.000000" fill-rule="nonzero"/>
		<path id="Vector" d="M117.23 51.8C117.21 51.81 117.18 51.82 117.14 51.82L116.75 51.82C116.71 51.82 116.69 51.81 116.67 51.8C116.65 51.79 116.64 51.76 116.64 51.71L116.64 48.4C116.64 48.35 116.66 48.29 116.7 48.22C116.75 48.14 116.82 48.11 116.94 48.11L119.47 48.11C119.59 48.11 119.66 48.14 119.71 48.22C119.75 48.29 119.77 48.35 119.77 48.4L119.77 51.71C119.77 51.76 119.76 51.79 119.75 51.8C119.73 51.81 119.7 51.82 119.66 51.82L119.27 51.82C119.23 51.82 119.2 51.81 119.18 51.8C119.16 51.79 119.15 51.76 119.15 51.71L119.15 48.65L117.25 48.65L117.25 51.71C117.25 51.76 117.24 51.79 117.23 51.8Z" fill="#C2C2C2" fill-opacity="1.000000" fill-rule="nonzero"/>
		<path id="Vector" d="M122.94 50L122.12 50C122.04 50 121.94 50 121.83 50.01C121.72 50.03 121.61 50.06 121.52 50.11C121.42 50.15 121.33 50.23 121.26 50.32C121.2 50.42 121.16 50.55 121.16 50.72C121.16 50.85 121.18 50.96 121.23 51.04C121.28 51.13 121.34 51.2 121.42 51.25C121.5 51.3 121.6 51.33 121.71 51.36C121.81 51.38 121.93 51.39 122.06 51.39C122.1 51.39 122.16 51.39 122.23 51.38C122.29 51.38 122.37 51.37 122.45 51.36C122.53 51.35 122.62 51.34 122.7 51.32C122.79 51.3 122.87 51.28 122.94 51.25L122.94 50ZM123.57 51.47C123.57 51.57 123.54 51.63 123.47 51.66C123.25 51.75 123.02 51.81 122.78 51.85C122.53 51.88 122.29 51.9 122.07 51.9C121.76 51.9 121.51 51.86 121.31 51.8C121.12 51.74 120.96 51.65 120.85 51.54C120.74 51.43 120.66 51.31 120.61 51.17C120.57 51.03 120.55 50.88 120.55 50.72C120.55 50.56 120.57 50.4 120.63 50.25C120.68 50.1 120.77 49.96 120.89 49.84C121.02 49.73 121.17 49.64 121.37 49.57C121.57 49.49 121.81 49.46 122.09 49.46L122.95 49.46L122.95 49.3C122.95 49.19 122.94 49.09 122.92 49C122.9 48.91 122.86 48.84 122.79 48.77C122.73 48.71 122.65 48.66 122.54 48.62C122.43 48.59 122.28 48.57 122.11 48.57C121.94 48.57 121.77 48.58 121.58 48.61C121.4 48.64 121.24 48.67 121.13 48.71C121.09 48.72 121.06 48.73 121.03 48.72C121.01 48.72 121 48.7 120.99 48.66L120.9 48.36C120.89 48.33 120.89 48.31 120.9 48.29C120.9 48.27 120.93 48.25 120.96 48.24C121.14 48.16 121.35 48.11 121.58 48.08C121.81 48.05 122.02 48.03 122.21 48.03C122.69 48.03 123.03 48.14 123.25 48.35C123.46 48.56 123.57 48.86 123.57 49.26L123.57 51.47Z" fill="#C2C2C2" fill-opacity="1.000000" fill-rule="nonzero"/>
		<path id="Vector" d="M126.98 51.8C126.96 51.81 126.94 51.82 126.89 51.82L126.51 51.82C126.47 51.82 126.44 51.81 126.42 51.8C126.4 51.79 126.39 51.76 126.39 51.71L126.39 48.22C126.39 48.17 126.4 48.14 126.42 48.13C126.44 48.12 126.47 48.11 126.51 48.11L126.89 48.11C126.94 48.11 126.96 48.12 126.98 48.13C127 48.14 127.01 48.17 127.01 48.22L127.01 49.59L127.61 49.59C127.68 49.59 127.75 49.58 127.82 49.57C127.89 49.56 127.95 49.53 128 49.5C128.07 49.46 128.12 49.41 128.17 49.34C128.22 49.27 128.26 49.19 128.29 49.08L128.57 48.19C128.58 48.16 128.59 48.13 128.61 48.12C128.63 48.11 128.66 48.11 128.68 48.11L129.07 48.11C129.11 48.11 129.13 48.12 129.14 48.15C129.15 48.17 129.15 48.2 129.15 48.22L128.88 49.15C128.84 49.3 128.79 49.43 128.72 49.55C128.64 49.66 128.55 49.75 128.42 49.81L128.41 49.82C128.6 49.88 128.73 49.96 128.8 50.08C128.88 50.19 128.94 50.33 128.98 50.48L129.35 51.7C129.35 51.72 129.35 51.75 129.35 51.78C129.34 51.81 129.31 51.82 129.26 51.82L128.84 51.82C128.82 51.82 128.8 51.82 128.78 51.81C128.75 51.8 128.74 51.78 128.73 51.74L128.38 50.58C128.33 50.4 128.24 50.27 128.11 50.19C127.98 50.12 127.84 50.08 127.69 50.08L127.01 50.08L127.01 51.71C127.01 51.76 127 51.79 126.98 51.8Z" fill="#C2C2C2" fill-opacity="1.000000" fill-rule="nonzero"/>
		<path id="Vector" d="M132.52 49.97C132.52 49.78 132.51 49.61 132.48 49.43C132.45 49.26 132.4 49.11 132.33 48.98C132.25 48.85 132.15 48.75 132.02 48.67C131.88 48.59 131.71 48.55 131.51 48.55C131.33 48.55 131.17 48.58 131.04 48.66C130.91 48.74 130.8 48.84 130.71 48.96C130.63 49.09 130.57 49.24 130.52 49.41C130.48 49.58 130.46 49.76 130.46 49.95C130.46 50.16 130.48 50.35 130.51 50.53C130.54 50.71 130.6 50.86 130.68 50.98C130.76 51.11 130.87 51.2 130.99 51.28C131.12 51.35 131.29 51.38 131.49 51.38C131.68 51.38 131.85 51.34 131.98 51.26C132.12 51.18 132.23 51.08 132.3 50.94C132.39 50.81 132.44 50.66 132.47 50.49C132.51 50.32 132.52 50.15 132.52 49.97ZM133.14 49.95C133.14 50.58 133 51.06 132.71 51.39C132.43 51.73 132.02 51.9 131.47 51.9C130.94 51.9 130.54 51.73 130.26 51.41C129.98 51.08 129.85 50.6 129.85 49.97C129.85 49.66 129.89 49.38 129.97 49.14C130.05 48.9 130.17 48.7 130.32 48.53C130.46 48.37 130.64 48.24 130.84 48.16C131.04 48.07 131.26 48.03 131.5 48.03C132.03 48.03 132.44 48.2 132.72 48.54C133 48.88 133.14 49.35 133.14 49.95Z" fill="#C2C2C2" fill-opacity="1.000000" fill-rule="nonzero"/>
		<path id="Vector" d="M134.52 49.13L134.52 51.71C134.52 51.76 134.51 51.79 134.49 51.8C134.48 51.81 134.45 51.82 134.4 51.82L134.04 51.82C134 51.82 133.97 51.81 133.95 51.8C133.93 51.79 133.92 51.76 133.92 51.71L133.92 48.37C133.92 48.3 133.94 48.25 133.99 48.19C134.03 48.14 134.1 48.11 134.21 48.11L134.43 48.11C134.51 48.11 134.58 48.12 134.62 48.15C134.67 48.17 134.72 48.23 134.76 48.32L135.5 49.85C135.5 49.87 135.53 49.93 135.57 50.02C135.61 50.11 135.66 50.21 135.7 50.31C135.75 50.42 135.8 50.51 135.84 50.6C135.88 50.69 135.91 50.75 135.92 50.76L135.94 50.76C135.95 50.74 135.98 50.67 136.03 50.57C136.08 50.46 136.13 50.34 136.18 50.22C136.24 50.1 136.29 49.99 136.34 49.88C136.39 49.77 136.42 49.71 136.44 49.69C136.45 49.67 136.47 49.62 136.5 49.55C136.53 49.48 136.58 49.4 136.62 49.3C136.67 49.21 136.72 49.11 136.77 49C136.82 48.89 136.87 48.79 136.91 48.7C136.96 48.6 137 48.52 137.03 48.45C137.07 48.38 137.09 48.34 137.1 48.32C137.14 48.24 137.19 48.18 137.23 48.15C137.27 48.12 137.34 48.11 137.42 48.11L137.64 48.11C137.75 48.11 137.82 48.14 137.86 48.19C137.9 48.25 137.92 48.31 137.92 48.37L137.92 51.71C137.92 51.76 137.92 51.79 137.9 51.8C137.88 51.81 137.85 51.82 137.81 51.82L137.44 51.82C137.41 51.82 137.38 51.81 137.36 51.8C137.34 51.79 137.33 51.76 137.33 51.71L137.33 49.08L137.3 49.08L136.95 49.84C136.94 49.85 136.91 49.91 136.86 50.02C136.81 50.13 136.75 50.25 136.69 50.39C136.62 50.53 136.55 50.68 136.48 50.82C136.41 50.97 136.35 51.09 136.31 51.18C136.27 51.26 136.24 51.31 136.2 51.34C136.16 51.37 136.09 51.39 136.01 51.39L135.85 51.39C135.76 51.39 135.7 51.37 135.66 51.34C135.61 51.31 135.57 51.26 135.53 51.18C135.52 51.14 135.48 51.06 135.42 50.94C135.36 50.81 135.3 50.68 135.23 50.54C135.17 50.41 135.1 50.27 135.04 50.15C134.98 50.03 134.94 49.95 134.92 49.91C134.92 49.9 134.89 49.86 134.86 49.78C134.82 49.7 134.78 49.62 134.73 49.53C134.69 49.43 134.65 49.35 134.61 49.27C134.58 49.19 134.56 49.14 134.55 49.13L134.52 49.13Z" fill="#C2C2C2" fill-opacity="1.000000" fill-rule="nonzero"/>
		<path id="Vector" d="M139.43 51.8C139.41 51.81 139.38 51.82 139.34 51.82L138.95 51.82C138.92 51.82 138.89 51.81 138.87 51.8C138.85 51.79 138.84 51.76 138.84 51.71L138.84 48.4C138.84 48.35 138.86 48.29 138.91 48.22C138.95 48.14 139.03 48.11 139.14 48.11L141.67 48.11C141.79 48.11 141.87 48.14 141.91 48.22C141.95 48.29 141.97 48.35 141.97 48.4L141.97 51.71C141.97 51.76 141.96 51.79 141.95 51.8C141.93 51.81 141.9 51.82 141.86 51.82L141.47 51.82C141.43 51.82 141.4 51.81 141.39 51.8C141.37 51.79 141.36 51.76 141.36 51.71L141.36 48.65L139.46 48.65L139.46 51.71C139.46 51.76 139.45 51.79 139.43 51.8Z" fill="#C2C2C2" fill-opacity="1.000000" fill-rule="nonzero"/>
		<path id="Vector" d="M145.14 50L144.33 50C144.24 50 144.14 50 144.03 50.01C143.92 50.03 143.82 50.06 143.72 50.11C143.62 50.15 143.53 50.23 143.47 50.32C143.4 50.42 143.36 50.55 143.36 50.72C143.36 50.85 143.39 50.96 143.43 51.04C143.48 51.13 143.55 51.2 143.62 51.25C143.71 51.3 143.8 51.33 143.91 51.36C144.02 51.38 144.13 51.39 144.26 51.39C144.3 51.39 144.36 51.39 144.43 51.38C144.5 51.38 144.57 51.37 144.65 51.36C144.74 51.35 144.82 51.34 144.9 51.32C144.99 51.3 145.07 51.28 145.14 51.25L145.14 50ZM145.77 51.47C145.77 51.57 145.74 51.63 145.67 51.66C145.46 51.75 145.23 51.81 144.98 51.85C144.73 51.88 144.49 51.9 144.27 51.9C143.96 51.9 143.71 51.86 143.52 51.8C143.32 51.74 143.17 51.65 143.05 51.54C142.94 51.43 142.86 51.31 142.82 51.17C142.77 51.03 142.75 50.88 142.75 50.72C142.75 50.56 142.78 50.4 142.83 50.25C142.88 50.1 142.97 49.96 143.1 49.84C143.22 49.73 143.38 49.64 143.57 49.57C143.77 49.49 144.01 49.46 144.29 49.46L145.15 49.46L145.15 49.3C145.15 49.19 145.14 49.09 145.12 49C145.1 48.91 145.06 48.84 145 48.77C144.93 48.71 144.85 48.66 144.74 48.62C144.63 48.59 144.49 48.57 144.31 48.57C144.14 48.57 143.97 48.58 143.78 48.61C143.6 48.64 143.45 48.67 143.33 48.71C143.29 48.72 143.26 48.73 143.24 48.72C143.21 48.72 143.2 48.7 143.19 48.66L143.1 48.36C143.09 48.33 143.09 48.31 143.1 48.29C143.11 48.27 143.13 48.25 143.17 48.24C143.34 48.16 143.55 48.11 143.78 48.08C144.01 48.05 144.22 48.03 144.42 48.03C144.89 48.03 145.23 48.14 145.45 48.35C145.66 48.56 145.77 48.86 145.77 49.26L145.77 51.47Z" fill="#C2C2C2" fill-opacity="1.000000" fill-rule="nonzero"/>
		<path id="Vector" d="M147.28 51.79C147.26 51.81 147.23 51.82 147.18 51.82L146.84 51.82C146.79 51.82 146.76 51.81 146.73 51.79C146.71 51.78 146.7 51.74 146.7 51.69L146.7 48.23C146.7 48.18 146.71 48.14 146.73 48.13C146.76 48.12 146.79 48.11 146.84 48.11L147.18 48.11C147.23 48.11 147.26 48.12 147.28 48.13C147.3 48.14 147.31 48.18 147.31 48.23L147.31 49.57L149.14 49.57L149.14 48.23C149.14 48.18 149.15 48.14 149.18 48.13C149.2 48.12 149.23 48.11 149.28 48.11L149.63 48.11C149.68 48.11 149.72 48.12 149.73 48.13C149.75 48.14 149.76 48.18 149.76 48.23L149.76 51.69C149.76 51.74 149.75 51.78 149.73 51.79C149.72 51.81 149.68 51.82 149.63 51.82L149.28 51.82C149.23 51.82 149.2 51.81 149.18 51.79C149.15 51.78 149.14 51.74 149.14 51.69L149.14 50.09L147.31 50.09L147.31 51.69C147.31 51.74 147.3 51.78 147.28 51.79Z" fill="#C2C2C2" fill-opacity="1.000000" fill-rule="nonzero"/>
		<path id="Vector" d="M150.68 48.21C150.68 48.17 150.69 48.14 150.71 48.12C150.73 48.11 150.76 48.1 150.8 48.1L151.19 48.1C151.23 48.1 151.26 48.11 151.27 48.12C151.29 48.14 151.3 48.17 151.3 48.21L151.3 50.94L151.33 50.94C151.44 50.76 151.54 50.6 151.63 50.45C151.73 50.3 151.83 50.14 151.95 49.97L153.01 48.33C153.06 48.25 153.1 48.19 153.15 48.16C153.19 48.12 153.25 48.11 153.35 48.11L153.53 48.11C153.61 48.11 153.68 48.13 153.73 48.18C153.79 48.23 153.82 48.3 153.82 48.39L153.82 51.72C153.82 51.76 153.81 51.79 153.79 51.8C153.77 51.81 153.74 51.82 153.7 51.82L153.31 51.82C153.28 51.82 153.25 51.81 153.23 51.8C153.21 51.79 153.2 51.76 153.2 51.72L153.2 49.02L153.16 49.02C153.1 49.1 153.05 49.18 153 49.26C152.96 49.33 152.92 49.4 152.87 49.47C152.83 49.55 152.78 49.62 152.73 49.7C152.69 49.77 152.64 49.85 152.58 49.94L151.48 51.61C151.42 51.69 151.37 51.74 151.32 51.77C151.27 51.8 151.21 51.82 151.13 51.82L150.97 51.82C150.88 51.82 150.81 51.79 150.76 51.75C150.71 51.71 150.68 51.64 150.68 51.54L150.68 48.21Z" fill="#C2C2C2" fill-opacity="1.000000" fill-rule="nonzero"/>
		<path id="Vector" d="M156.27 47.73C156.03 47.73 155.82 47.66 155.62 47.51C155.43 47.37 155.27 47.19 155.13 46.99C155.12 46.98 155.11 46.96 155.1 46.94C155.1 46.91 155.11 46.89 155.15 46.86L155.28 46.74C155.33 46.71 155.36 46.71 155.37 46.71C155.38 46.72 155.41 46.74 155.44 46.77C155.58 46.92 155.72 47.03 155.87 47.12C156.02 47.2 156.16 47.25 156.3 47.25C156.4 47.25 156.52 47.21 156.66 47.15C156.79 47.09 156.96 46.95 157.15 46.74C157.19 46.71 157.21 46.7 157.23 46.7C157.24 46.7 157.26 46.71 157.28 46.72L157.42 46.84C157.46 46.87 157.48 46.9 157.47 46.93C157.46 46.95 157.46 46.97 157.45 46.98C157.25 47.25 157.05 47.45 156.84 47.56C156.64 47.68 156.45 47.73 156.27 47.73ZM154.74 48.21C154.74 48.17 154.75 48.14 154.77 48.12C154.79 48.11 154.82 48.1 154.86 48.1L155.24 48.1C155.28 48.1 155.31 48.11 155.33 48.12C155.35 48.14 155.36 48.17 155.36 48.21L155.36 50.94L155.38 50.94C155.5 50.76 155.6 50.6 155.69 50.45C155.78 50.3 155.89 50.14 156 49.97L157.07 48.33C157.12 48.25 157.16 48.19 157.2 48.16C157.24 48.12 157.31 48.11 157.41 48.11L157.59 48.11C157.67 48.11 157.74 48.13 157.79 48.18C157.84 48.23 157.87 48.3 157.87 48.39L157.87 51.72C157.87 51.76 157.86 51.79 157.85 51.8C157.83 51.81 157.8 51.82 157.76 51.82L157.37 51.82C157.33 51.82 157.3 51.81 157.28 51.8C157.27 51.79 157.26 51.76 157.26 51.72L157.26 49.02L157.21 49.02C157.16 49.1 157.11 49.18 157.06 49.26C157.02 49.33 156.97 49.4 156.93 49.48C156.88 49.55 156.84 49.62 156.79 49.7C156.74 49.77 156.69 49.85 156.63 49.94L155.53 51.61C155.48 51.69 155.43 51.74 155.38 51.77C155.33 51.8 155.27 51.82 155.19 51.82L155.02 51.82C154.94 51.82 154.87 51.8 154.82 51.75C154.77 51.71 154.74 51.64 154.74 51.54L154.74 48.21Z" fill="#C2C2C2" fill-opacity="1.000000" fill-rule="nonzero"/>
		<path id="Vector" d="M162.45 50.11L163.31 51.46C163.34 51.51 163.34 51.54 163.32 51.56C163.31 51.59 163.28 51.6 163.23 51.6L162.87 51.6C162.8 51.6 162.75 51.59 162.72 51.56C162.69 51.54 162.66 51.51 162.64 51.47L161.93 50.36C161.91 50.32 161.89 50.28 161.87 50.23C161.85 50.18 161.84 50.13 161.84 50.09C161.84 50.03 161.85 49.98 161.88 49.93C161.9 49.88 161.92 49.84 161.95 49.8L162.63 48.69C162.65 48.66 162.68 48.63 162.71 48.6C162.74 48.58 162.79 48.57 162.85 48.57L163.21 48.57C163.25 48.57 163.28 48.58 163.3 48.61C163.32 48.64 163.32 48.67 163.29 48.71L162.45 50.11ZM161.3 50.11L162.16 51.46C162.18 51.51 162.19 51.54 162.17 51.56C162.15 51.59 162.12 51.6 162.08 51.6L161.72 51.6C161.64 51.6 161.59 51.59 161.56 51.56C161.53 51.54 161.5 51.51 161.48 51.47L160.77 50.36C160.76 50.32 160.74 50.28 160.72 50.23C160.69 50.18 160.68 50.13 160.68 50.09C160.68 50.03 160.7 49.98 160.72 49.93C160.74 49.88 160.77 49.84 160.79 49.8L161.47 48.69C161.49 48.66 161.52 48.63 161.55 48.6C161.58 48.58 161.63 48.57 161.7 48.57L162.05 48.57C162.1 48.57 162.13 48.58 162.14 48.61C162.16 48.64 162.16 48.67 162.13 48.71L161.3 50.11Z" fill="#C2C2C2" fill-opacity="1.000000" fill-rule="nonzero"/>
		<path id="Vector" d="M167.46 51.78C167.44 51.81 167.4 51.82 167.35 51.82L165.38 51.82C165.15 51.82 164.96 51.79 164.81 51.72C164.65 51.65 164.53 51.57 164.44 51.46C164.35 51.35 164.28 51.22 164.25 51.08C164.21 50.93 164.19 50.78 164.19 50.61L164.19 48.08C164.19 47.92 164.21 47.77 164.25 47.62C164.29 47.47 164.36 47.34 164.46 47.23C164.56 47.12 164.68 47.03 164.83 46.96C164.98 46.9 165.17 46.87 165.38 46.87L167.31 46.87C167.36 46.87 167.4 46.88 167.41 46.9C167.43 46.92 167.44 46.96 167.44 47.01L167.44 47.31C167.44 47.36 167.43 47.4 167.41 47.42C167.4 47.44 167.36 47.45 167.31 47.45L165.39 47.45C165.19 47.45 165.05 47.5 164.96 47.58C164.88 47.67 164.83 47.8 164.83 47.99L164.83 48.91L167.08 48.91C167.13 48.91 167.16 48.92 167.18 48.94C167.2 48.97 167.21 49 167.21 49.06L167.21 49.32C167.21 49.37 167.2 49.41 167.18 49.43C167.16 49.45 167.13 49.47 167.08 49.47L164.83 49.47L164.83 50.7C164.83 50.86 164.87 50.98 164.96 51.08C165.04 51.18 165.19 51.23 165.39 51.23L167.35 51.23C167.4 51.23 167.44 51.24 167.46 51.26C167.47 51.28 167.48 51.32 167.48 51.37L167.48 51.67C167.48 51.72 167.47 51.76 167.46 51.78Z" fill="#C2C2C2" fill-opacity="1.000000" fill-rule="nonzero"/>
		<path id="Vector" d="M170.73 49.17C170.85 49.21 170.96 49.25 171.04 49.31C171.12 49.37 171.18 49.43 171.24 49.51C171.29 49.58 171.33 49.66 171.37 49.75C171.4 49.84 171.43 49.94 171.46 50.05L171.91 51.69C171.91 51.71 171.91 51.74 171.91 51.77C171.9 51.8 171.87 51.82 171.81 51.82L171.38 51.82C171.36 51.82 171.33 51.81 171.3 51.8C171.28 51.79 171.26 51.77 171.25 51.73L170.82 50.15C170.79 50.01 170.74 49.9 170.69 49.81C170.64 49.73 170.57 49.66 170.5 49.61C170.42 49.55 170.34 49.52 170.25 49.5C170.15 49.48 170.04 49.47 169.92 49.47L168.92 49.47L168.92 51.71C168.92 51.76 168.91 51.79 168.89 51.8C168.87 51.81 168.85 51.82 168.8 51.82L168.39 51.82C168.36 51.82 168.33 51.81 168.31 51.8C168.29 51.79 168.28 51.76 168.28 51.71L168.28 46.98C168.28 46.93 168.29 46.9 168.31 46.89C168.33 46.88 168.36 46.87 168.39 46.87L168.81 46.87C168.85 46.87 168.88 46.88 168.9 46.89C168.91 46.9 168.92 46.93 168.92 46.98L168.92 48.89L169.86 48.89C169.93 48.89 170.01 48.88 170.1 48.86C170.18 48.84 170.26 48.81 170.34 48.76C170.42 48.71 170.49 48.64 170.56 48.55C170.62 48.45 170.68 48.33 170.72 48.17L171.04 46.95C171.04 46.91 171.06 46.88 171.09 46.87C171.11 46.86 171.14 46.86 171.16 46.86L171.55 46.86C171.61 46.86 171.64 46.87 171.65 46.91C171.65 46.94 171.65 46.97 171.64 46.99L171.33 48.26C171.28 48.46 171.21 48.63 171.11 48.78C171.02 48.93 170.89 49.05 170.73 49.13L170.73 49.17Z" fill="#C2C2C2" fill-opacity="1.000000" fill-rule="nonzero"/>
		<path id="Vector" d="M174.7 51.29C174.91 51.29 175.11 51.26 175.3 51.22C175.48 51.17 175.66 51.11 175.83 51.03C175.88 51.01 175.92 51.01 175.94 51.03C175.96 51.04 175.98 51.07 175.99 51.09L176.12 51.39C176.15 51.44 176.16 51.48 176.15 51.5C176.14 51.52 176.12 51.55 176.09 51.57C175.97 51.64 175.85 51.69 175.72 51.73C175.59 51.78 175.46 51.81 175.34 51.83C175.21 51.86 175.08 51.87 174.95 51.88C174.82 51.89 174.7 51.9 174.59 51.9C174.26 51.9 173.96 51.85 173.7 51.75C173.44 51.65 173.22 51.5 173.04 51.29C172.86 51.09 172.73 50.84 172.63 50.53C172.53 50.21 172.48 49.84 172.48 49.41C172.48 49.02 172.54 48.66 172.64 48.34C172.74 48.02 172.89 47.74 173.08 47.51C173.27 47.28 173.49 47.11 173.76 46.98C174.03 46.86 174.32 46.8 174.64 46.8C174.84 46.8 175.05 46.82 175.27 46.85C175.48 46.89 175.71 46.97 175.95 47.09C175.98 47.1 176 47.12 176.01 47.15C176.02 47.17 176.01 47.21 175.99 47.25L175.83 47.58C175.81 47.61 175.8 47.63 175.78 47.64C175.76 47.65 175.74 47.65 175.7 47.63C175.37 47.48 175.03 47.41 174.67 47.41C174.4 47.41 174.17 47.46 173.98 47.58C173.79 47.69 173.63 47.84 173.51 48.03C173.38 48.21 173.29 48.43 173.23 48.67C173.18 48.91 173.15 49.16 173.15 49.41C173.15 49.67 173.17 49.92 173.22 50.14C173.27 50.37 173.36 50.57 173.48 50.74C173.6 50.91 173.76 51.04 173.96 51.14C174.16 51.24 174.41 51.29 174.7 51.29Z" fill="#C2C2C2" fill-opacity="1.000000" fill-rule="nonzero"/>
		<path id="Vector" d="M177.85 48.71C177.82 48.67 177.82 48.64 177.84 48.61C177.85 48.58 177.88 48.57 177.93 48.57L178.28 48.57C178.35 48.57 178.4 48.58 178.43 48.6C178.46 48.63 178.48 48.66 178.51 48.69L179.19 49.8C179.21 49.84 179.23 49.88 179.26 49.93C179.28 49.98 179.3 50.03 179.3 50.09C179.3 50.13 179.29 50.18 179.27 50.23C179.24 50.28 179.22 50.32 179.2 50.36L178.5 51.47C178.47 51.51 178.45 51.54 178.42 51.56C178.39 51.59 178.34 51.6 178.26 51.6L177.91 51.6C177.86 51.6 177.83 51.59 177.81 51.56C177.79 51.54 177.8 51.51 177.82 51.46L178.69 50.11L177.85 48.71ZM176.69 48.71C176.67 48.67 176.66 48.64 176.68 48.61C176.69 48.58 176.73 48.57 176.77 48.57L177.13 48.57C177.2 48.57 177.25 48.58 177.28 48.6C177.3 48.63 177.33 48.66 177.35 48.69L178.03 49.8C178.06 49.84 178.08 49.88 178.11 49.93C178.13 49.98 178.14 50.03 178.14 50.09C178.14 50.13 178.13 50.18 178.11 50.23C178.09 50.28 178.07 50.32 178.05 50.36L177.35 51.47C177.32 51.51 177.3 51.54 177.27 51.56C177.23 51.59 177.18 51.6 177.11 51.6L176.75 51.6C176.7 51.6 176.67 51.59 176.65 51.56C176.63 51.54 176.64 51.51 176.66 51.46L177.53 50.11L176.69 48.71Z" fill="#C2C2C2" fill-opacity="1.000000" fill-rule="nonzero"/>
	</g>
</svg>
