<svg width="140.487305" height="68.000000" viewBox="0 0 140.487 68" fill="none" xmlns="http://www.w3.org/2000/svg" xmlns:xlink="http://www.w3.org/1999/xlink">
	<desc>
			Created with Pixso.
	</desc>
	<defs/>
	<path d="M108.7 40.13C108.7 41.78 108.89 44.34 112.13 44.34L115.96 44.34C119.2 44.34 119.4 41.78 119.4 40.13L119.4 25.01C119.4 23.36 119.2 20.81 115.96 20.81L112.13 20.81C108.89 20.81 108.7 23.36 108.7 25.01L108.7 40.13ZM114.78 40.53C114.78 40.93 114.48 41.3 114.05 41.3C113.78 41.3 113.32 41.14 113.32 40.53L113.32 24.5C113.32 23.89 113.78 23.73 114.05 23.73C114.48 23.73 114.78 24.09 114.78 24.5L114.78 40.53Z" fill="#C2C2C2" fill-opacity="1.000000" fill-rule="nonzero"/>
	<path d="M134.47 20.81L140.48 20.81L140.48 44.34L135.85 44.34L135.85 29.58L135.69 29.58L133.31 44.34L129.61 44.34L127.23 29.58L127.06 29.58L127.06 44.34L122.44 44.34L122.44 20.81L128.45 20.81L131.46 37.34L134.47 20.81Z" fill="#C2C2C2" fill-opacity="1.000000" fill-rule="nonzero"/>
	<path d="M37.87 22.99C37.81 25.4 37.52 27.94 37.14 29.46C37.28 26.84 36.96 23.15 36.34 20.27C35.73 17.38 33.99 12.57 32.61 10.34C31.33 12.46 29.75 16.63 28.93 20.24C28.1 23.86 28.07 28.23 28.07 29.54C27.85 28.43 27.3 24.49 27.46 20.53C27.58 17.26 28.37 13.9 28.79 12.35C30.42 7.19 32.26 3.9 32.61 3.37C32.96 3.9 35.28 7.96 36.48 12.23C37.68 16.5 37.92 20.58 37.87 22.99ZM32.64 41.43C31.91 40.09 30.79 37.55 30.69 33.63C30.66 29.83 32.21 26.58 32.66 25.9C33.06 26.58 34.39 29.41 34.55 33.29C34.66 37.08 33.38 40.07 32.64 41.43ZM38.29 12.28C36.82 5.96 33.14 0.83 32.64 0C31.83 1.17 28.89 5.7 27.41 10.73C25.77 16.34 25.54 21.31 26.1 26.21C26.66 31.11 28.77 36.14 28.77 36.14C29.89 38.78 31.56 41.61 32.66 43C34.26 40.95 37.95 34.86 39.09 26.89C39.73 22.47 39.76 18.59 38.29 12.28Z" fill="#C2C2C2" fill-opacity="1.000000" fill-rule="nonzero"/>
	<path d="M35.13 44.46L23.96 44.46L23.96 51.82C23.97 51.81 23.98 51.8 23.99 51.79C26.62 49.21 30.88 49.21 33.52 51.79C36.15 54.37 36.15 58.56 33.52 61.14C33.5 61.16 33.49 61.17 33.48 61.18C33.47 61.19 33.46 61.2 33.44 61.22C30.82 63.77 27.39 65.05 23.96 65.05C20.52 65.05 17.07 63.76 14.44 61.18C9.81 56.64 9.26 49.6 12.79 44.46C13.27 43.77 13.82 43.11 14.44 42.5C17.07 39.92 20.52 38.63 23.96 38.63L23.96 20.95C10.73 20.95 0 31.48 0 44.46C0 57.46 10.73 67.99 23.96 67.99C30.86 67.99 37.08 65.13 41.45 60.55L41.45 44.46L35.13 44.46Z" fill="#C2C2C2" fill-opacity="1.000000" fill-rule="nonzero"/>
	<path d="M44.43 20.81L53.26 20.81L53.26 23.73L49.06 23.73L49.06 44.34L44.43 44.34L44.43 20.81Z" fill="#C2C2C2" fill-opacity="1.000000" fill-rule="nonzero"/>
	<path d="M53.36 44.34L57.89 44.34L58.32 38.08L60.5 38.08L60.93 44.34L65.45 44.34L63.04 20.81L55.77 20.81L53.36 44.34ZM58.48 35.5L59.28 23.72L59.54 23.72L60.33 35.5L58.48 35.5Z" fill="#C2C2C2" fill-opacity="1.000000" fill-rule="nonzero"/>
	<path d="M72.08 36.1L72.08 40.53C72.08 41.14 72.54 41.3 72.8 41.3C73.23 41.3 73.53 40.93 73.53 40.53L73.53 35.06C73.53 34.32 73.4 33.51 71.68 33.51L69.8 33.51L69.8 30.92L71.74 30.92C73.06 30.92 73.53 30.62 73.53 29.18L73.53 24.5C73.53 24.09 73.23 23.73 72.8 23.73C72.54 23.73 72.08 23.89 72.08 24.5L72.08 28.34L67.45 28.34L67.45 25.01C67.45 23.36 67.65 20.81 70.89 20.81L74.72 20.81C77.96 20.81 78.16 23.36 78.16 25.01L78.16 28.78C78.16 31.33 76.4 32.03 75.02 31.97L75.02 32.2C78.12 32.13 78.16 34.55 78.16 35.4L78.16 40.13C78.16 41.78 77.96 44.34 74.72 44.34L70.89 44.34C67.65 44.34 67.45 41.78 67.45 40.13L67.45 36.1L72.08 36.1Z" fill="#C2C2C2" fill-opacity="1.000000" fill-rule="nonzero"/>
	<path d="M81.2 20.81L91.91 20.81L91.91 44.34L87.28 44.34L87.28 23.73L85.82 23.73L85.82 44.34L81.2 44.34L81.2 20.81Z" fill="#C2C2C2" fill-opacity="1.000000" fill-rule="nonzero"/>
	<path d="M94.95 44.34L99.57 44.34L99.57 36.33L102.21 36.33C105.45 36.33 105.65 33.78 105.65 32.13L105.65 25.01C105.65 23.36 105.45 20.81 102.21 20.81L94.95 20.81L94.95 44.34ZM99.57 33.75L99.57 23.73L100.16 23.73C100.66 23.73 101.02 24.16 101.02 24.9L101.02 32.58C101.02 33.31 100.66 33.75 100.16 33.75L99.57 33.75Z" fill="#C2C2C2" fill-opacity="1.000000" fill-rule="nonzero"/>
	<path d="M140.485 68L140.485 51.7861L44.2017 51.7861L44.2017 68L140.485 68ZM87.9346 57.1982L87.9346 62.252C87.9346 64.4961 86.7998 65.7988 84.2109 65.7988C81.6528 65.7988 80.4854 64.4961 80.4854 62.252L80.4854 57.1826C80.4854 55.4092 81.6206 54.0127 84.2266 54.0127C86.832 54.0127 87.9346 55.4404 87.9346 57.1982ZM89.2119 57.9053L89.2119 57.2139C89.2119 55.457 90.3623 54.0127 92.9531 54.0127C95.5742 54.0127 96.6934 55.4092 96.6934 57.1826L96.6934 62.127C96.6934 64.7002 95.4941 65.7988 92.9531 65.7988C90.3945 65.7988 89.2119 64.6846 89.2119 62.127L89.2119 61.4043L91.9775 61.4043L91.9775 62.5664C91.9775 63.4131 92.3926 63.7275 92.9844 63.7275C93.5596 63.7275 93.9277 63.3975 93.9277 62.5498L93.9277 60.7451L92.457 60.7451L92.457 58.6104L93.9277 58.6104L93.9277 56.9316C93.9277 56.3506 93.4482 56.084 92.9844 56.084C92.5527 56.084 91.9775 56.3662 91.9775 56.9639L91.9775 57.9053L89.2119 57.9053ZM138.11 57.1982L138.11 62.252C138.11 64.4961 136.976 65.7988 134.386 65.7988C131.827 65.7988 130.66 64.4961 130.66 62.252L130.66 57.1826C130.66 55.4092 131.795 54.0127 134.401 54.0127C137.007 54.0127 138.11 55.4404 138.11 57.1982ZM79.0972 54.2656L79.0972 65.5332L76.3315 65.5332L76.3315 56.3994L74.5093 56.3994L74.5093 60.2764C74.5093 64.5449 73.71 65.6592 71.8394 65.6592C71.248 65.6592 70.8325 65.5332 70.353 65.3301L70.353 63.4307C70.4805 63.4932 70.7524 63.5244 71.0239 63.5244C71.7915 63.5244 71.8394 63.0703 71.8394 59.5859L71.8394 54.2656L79.0972 54.2656ZM51.4272 65.5332L48.8853 65.5332L48.8853 56.3994L46.7114 56.3994L46.7114 54.2646L53.4575 54.2646L53.4575 56.3994L51.4272 56.3994L51.4272 65.5332ZM54.4629 54.2646L60.8896 54.2646L60.8896 56.3994L57.2285 56.3994L57.2285 58.6113L60.5054 58.6113L60.5054 60.7461L57.2285 60.7461L57.2285 63.3984L60.8896 63.3984L60.8896 65.5332L54.4629 65.5332L54.4629 54.2646ZM69.3433 54.2646L69.3433 65.5332L66.5776 65.5332L66.5776 56.3994L64.771 56.3994L64.771 65.5332L62.0054 65.5332L62.0054 54.2646L69.3433 54.2646ZM100.85 58.6113L102.655 58.6113L102.655 54.2646L105.421 54.2646L105.421 65.5332L102.655 65.5332L102.655 60.7461L100.85 60.7461L100.85 65.5332L98.083 65.5332L98.083 54.2646L100.85 54.2646L100.85 58.6113ZM106.938 54.2646L113.364 54.2646L113.364 56.3994L109.703 56.3994L109.703 58.6113L112.98 58.6113L112.98 60.7461L109.703 60.7461L109.703 63.3984L113.364 63.3984L113.364 65.5332L106.938 65.5332L106.938 54.2646ZM117.249 65.5332L114.483 65.5332L114.483 54.2646L118.496 54.2646C120.095 54.2646 121.854 54.8301 121.854 57.7021C121.854 60.4795 120.127 61.1387 118.496 61.1387L117.249 61.1387L117.249 65.5332ZM129.67 54.2646L129.67 56.3994L126.009 56.3994L126.009 65.5332L123.243 65.5332L123.243 54.2646L129.67 54.2646ZM83.251 57.0107L83.251 62.7227C83.251 63.3975 83.7305 63.7275 84.2109 63.7275C84.6738 63.7275 85.1699 63.3975 85.1699 62.7227L85.1699 57.0107C85.1699 56.3662 84.6738 56.084 84.2109 56.084C83.7305 56.084 83.251 56.3662 83.251 57.0107ZM133.426 57.0107L133.426 62.7227C133.426 63.3975 133.906 63.7275 134.386 63.7275C134.849 63.7275 135.345 63.3975 135.345 62.7227L135.345 57.0107C135.345 56.3662 134.849 56.084 134.386 56.084C133.906 56.084 133.426 56.3662 133.426 57.0107ZM117.249 59.1143L117.745 59.1143C118.432 59.1143 119.088 58.7842 119.088 57.6699C119.088 56.5566 118.496 56.2891 117.696 56.2891L117.249 56.2891L117.249 59.1143Z" clip-rule="evenodd" fill="#C2C2C2" fill-opacity="1.000000" fill-rule="evenodd"/>
</svg>
